<?xml version="1.0" encoding="UTF-8"?>
<svg width="79px" height="113px" viewBox="0 0 79 113" version="1.1" xmlns="http://www.w3.org/2000/svg" xmlns:xlink="http://www.w3.org/1999/xlink">
    <!-- Generator: Sketch 53.1 (72631) - https://sketchapp.com -->
    <title>icon_design</title>
    <desc>Created with Sketch.</desc>
    <g id="Page-1" stroke="none" stroke-width="1" fill="none" fill-rule="evenodd">
        <g id="shutterstock_339433193-copy" transform="translate(-636.000000, -500.000000)">
            <g id="icon_design" transform="translate(636.523000, 500.188000)">
                <polyline id="Fill-237" fill="#00D2D4" points="61.61 58.758 66.045 23.76 58.696 16.968 53.401 58.758 61.61 58.758"></polyline>
                <path d="M55.103,57.258 L60.288,57.258 L64.46,24.337 L59.818,20.047 L55.103,57.258 Z M61.61,60.258 L53.401,60.258 C52.97,60.258 52.56,60.072 52.276,59.75 C51.991,59.427 51.859,58.996 51.913,58.569 L57.207,16.779 C57.278,16.222 57.655,15.751 58.182,15.559 C58.706,15.363 59.3,15.483 59.713,15.866 L67.063,22.658 C67.419,22.987 67.594,23.468 67.534,23.948 L63.098,58.946 C63.003,59.696 62.366,60.258 61.61,60.258 L61.61,60.258 Z" id="Fill-238" fill="#00D2D4"></path>
                <polyline id="Fill-239" fill="#00D2D4" points="69.815 58.758 74.852 19.014 66.045 23.76 61.61 58.758 69.815 58.758"></polyline>
                <path d="M63.312,57.258 L68.493,57.258 L72.998,21.717 L67.436,24.714 L63.312,57.258 Z M69.815,60.258 L61.61,60.258 C61.179,60.258 60.769,60.072 60.485,59.75 C60.2,59.427 60.068,58.996 60.122,58.569 L64.557,23.571 C64.619,23.091 64.908,22.669 65.333,22.439 L74.14,17.693 C74.634,17.427 75.237,17.461 75.701,17.776 C76.164,18.095 76.411,18.645 76.34,19.202 L71.303,58.946 C71.208,59.696 70.571,60.258 69.815,60.258 L69.815,60.258 Z" id="Fill-240" fill="#00D2D4"></path>
                <path d="M21.477,20.152 C22.596,27.416 18.319,29.781 12.733,30.643 C7.145,31.502 2.358,30.533 1.239,23.271 C0.12,16.006 8.682,4.344 8.682,4.344 C8.682,4.344 20.358,12.891 21.477,20.152" id="Fill-241" fill="#00D2D4"></path>
                <polyline id="Fill-242" fill="#FFFFFF" points="9.071 52.832 8.614 49.867 23.36 47.596 23.817 50.561 9.071 52.832"></polyline>
                <path d="M60.742,16.815 L66.273,21.927 L72.825,18.354 L68.03,7.737 L60.742,16.815 Z M66.045,25.26 C65.676,25.26 65.311,25.124 65.028,24.861 L57.678,18.069 C57.099,17.534 57.033,16.644 57.526,16.028 L67.221,3.952 C67.548,3.546 68.064,3.34 68.58,3.403 C69.097,3.469 69.543,3.799 69.758,4.274 L76.131,18.387 C76.455,19.102 76.171,19.945 75.483,20.32 L66.764,25.076 C66.539,25.199 66.291,25.26 66.045,25.26 L66.045,25.26 Z" id="Fill-243" fill="#FFFFFF"></path>
                <polyline id="Fill-244" fill="#FFFFFF" points="63.012 59.618 60.036 59.241 64.557 23.571 67.534 23.948 63.012 59.618"></polyline>
                <polyline id="Fill-245" fill="#FFFFFF" points="72.029 14.67 62.515 13.465 62.892 10.488 72.406 11.693 72.029 14.67"></polyline>
                <polyline id="Fill-246" fill="#FFFFFF" points="31.238 12.596 31.236 9.596 36.964 9.594 36.966 12.594 31.238 12.596"></polyline>
                <polygon id="Fill-247" fill="#FFFFFF" points="31.237 22.189 36.965 22.189 36.965 19.189 31.237 19.189"></polygon>
                <polyline id="Fill-248" fill="#FFFFFF" points="31.237 31.785 31.237 28.785 36.965 28.784 36.965 31.784 31.237 31.785"></polyline>
                <polygon id="Fill-249" fill="#FFFFFF" points="31.237 41.379 36.965 41.379 36.965 38.379 31.237 38.379"></polygon>
                <polygon id="Fill-250" fill="#FFFFFF" points="31.239 50.975 36.965 50.975 36.965 47.975 31.239 47.975"></polygon>
                <path d="M10.837,57.258 L22.85,57.258 C19.448,36.517 15.83,32.093 13.366,32.093 C13.23,32.093 13.096,32.104 12.961,32.125 C10.472,32.509 8.118,37.22 10.837,57.258 Z M24.61,60.258 L9.532,60.258 C8.785,60.258 8.152,59.708 8.046,58.969 C5.211,38.993 6.545,30.078 12.504,29.16 C12.791,29.116 13.078,29.093 13.366,29.093 C17.378,29.093 22.029,32.59 26.091,58.525 C26.16,58.959 26.035,59.399 25.749,59.733 C25.464,60.066 25.048,60.258 24.61,60.258 L24.61,60.258 Z" id="Fill-251" fill="#FFFFFF"></path>
                <path d="M32.737,57.258 L46.518,57.258 L46.518,3 L32.737,3 L32.737,57.258 Z M48.018,60.258 L31.237,60.258 C30.409,60.258 29.737,59.586 29.737,58.758 L29.737,1.5 C29.737,0.672 30.409,2.84217094e-14 31.237,2.84217094e-14 L48.018,2.84217094e-14 C48.846,2.84217094e-14 49.518,0.672 49.518,1.5 L49.518,58.758 C49.518,59.586 48.846,60.258 48.018,60.258 L48.018,60.258 Z" id="Fill-252" fill="#FFFFFF"></path>
                <polyline id="Fill-253" fill="#000000" points="45.575 71.816 30.415 71.814 30.415 69.814 45.575 69.816 45.575 71.816"></polyline>
                <polyline id="Fill-254" fill="#00D2D4" points="67.332 111.037 10.991 111.037 7.764 69.725 70.557 69.725 67.332 111.037"></polyline>
                <path d="M12.378,109.537 L65.945,109.537 L68.935,71.225 L9.386,71.225 L12.378,109.537 Z M67.332,112.537 L10.991,112.537 C10.207,112.537 9.556,111.935 9.496,111.154 L6.269,69.842 C6.236,69.425 6.379,69.013 6.663,68.706 C6.947,68.399 7.346,68.225 7.764,68.225 L70.557,68.225 C70.975,68.225 71.374,68.399 71.659,68.706 C71.942,69.013 72.085,69.425 72.052,69.842 L68.828,111.154 C68.767,111.935 68.116,112.537 67.332,112.537 L67.332,112.537 Z" id="Fill-255" fill="#00D2D4"></path>
                <path d="M76.821,67.41 C76.821,68.687 75.815,69.725 74.573,69.725 L3.75,69.725 C2.508,69.725 1.5,68.687 1.5,67.41 L1.5,61.043 C1.5,59.766 2.508,58.729 3.75,58.729 L74.573,58.729 C75.815,58.729 76.821,59.766 76.821,61.043 L76.821,67.41" id="Fill-256" fill="#FFFFFF"></path>
                <path d="M3.75,60.229 C3.337,60.229 3,60.594 3,61.043 L3,67.41 C3,67.859 3.337,68.225 3.75,68.225 L74.573,68.225 C74.985,68.225 75.321,67.859 75.321,67.41 L75.321,61.043 C75.321,60.594 74.985,60.229 74.573,60.229 L3.75,60.229 Z M74.573,71.225 L3.75,71.225 C1.683,71.225 -5.68434189e-14,69.514 -5.68434189e-14,67.41 L-5.68434189e-14,61.043 C-5.68434189e-14,58.939 1.683,57.229 3.75,57.229 L74.573,57.229 C76.639,57.229 78.321,58.939 78.321,61.043 L78.321,67.41 C78.321,69.514 76.639,71.225 74.573,71.225 L74.573,71.225 Z" id="Fill-257" fill="#FFFFFF"></path>
            </g>
        </g>
    </g>
</svg>