<?xml version="1.0" encoding="UTF-8"?>
<svg width="117px" height="130px" viewBox="0 0 117 130" version="1.1" xmlns="http://www.w3.org/2000/svg" xmlns:xlink="http://www.w3.org/1999/xlink">
    <!-- Generator: Sketch 53.1 (72631) - https://sketchapp.com -->
    <title>icon_spec</title>
    <desc>Created with Sketch.</desc>
    <g id="Page-1" stroke="none" stroke-width="1" fill="none" fill-rule="evenodd">
        <g id="shutterstock_339433193-copy" transform="translate(-274.000000, -317.000000)">
            <g id="icon_spec" transform="translate(274.990000, 317.261000)">
                <polygon id="Fill-42" fill="#FFFFFF" points="13.593 9.047 101.822 9.047 101.822 6.047 13.593 6.047"></polygon>
                <path d="M109.369,57.708 L106.369,57.708 C106.369,30.876 84.54,9.047 57.709,9.047 C30.877,9.047 9.048,30.876 9.048,57.708 L6.048,57.708 C6.048,29.222 29.223,6.047 57.709,6.047 C86.195,6.047 109.369,29.222 109.369,57.708" id="Fill-43" fill="#FFFFFF"></path>
                <polygon id="Fill-44" fill="#00D2D4" points="1.5 63.753 13.593 63.753 13.593 51.66 1.5 51.66"></polygon>
                <path d="M3,62.253 L12.093,62.253 L12.093,53.16 L3,53.16 L3,62.253 Z M13.593,65.253 L1.5,65.253 C0.672,65.253 2.84217094e-14,64.582 2.84217094e-14,63.753 L2.84217094e-14,51.66 C2.84217094e-14,50.832 0.672,50.16 1.5,50.16 L13.593,50.16 C14.422,50.16 15.093,50.832 15.093,51.66 L15.093,63.753 C15.093,64.582 14.422,65.253 13.593,65.253 L13.593,65.253 Z" id="Fill-45" fill="#FFFFFF"></path>
                <polygon id="Fill-46" fill="#00D2D4" points="101.822 63.753 113.914 63.753 113.914 51.66 101.822 51.66"></polygon>
                <path d="M103.322,62.253 L112.414,62.253 L112.414,53.16 L103.322,53.16 L103.322,62.253 Z M113.914,65.253 L101.822,65.253 C100.993,65.253 100.322,64.582 100.322,63.753 L100.322,51.66 C100.322,50.832 100.993,50.16 101.822,50.16 L113.914,50.16 C114.743,50.16 115.414,50.832 115.414,51.66 L115.414,63.753 C115.414,64.582 114.743,65.253 113.914,65.253 L113.914,65.253 Z" id="Fill-47" fill="#FFFFFF"></path>
                <polygon id="Fill-48" fill="#00D2D4" points="51.661 13.593 63.753 13.593 63.753 1.5 51.661 1.5"></polygon>
                <path d="M53.161,12.093 L62.253,12.093 L62.253,3 L53.161,3 L53.161,12.093 Z M63.753,15.093 L51.661,15.093 C50.833,15.093 50.161,14.421 50.161,13.593 L50.161,1.5 C50.161,0.671 50.833,0 51.661,0 L63.753,0 C64.582,0 65.253,0.671 65.253,1.5 L65.253,13.593 C65.253,14.421 64.582,15.093 63.753,15.093 L63.753,15.093 Z" id="Fill-49" fill="#FFFFFF"></path>
                <path d="M105.714,7.547 C105.714,9.697 103.974,11.439 101.822,11.439 C99.672,11.439 97.93,9.697 97.93,7.547 C97.93,5.396 99.672,3.654 101.822,3.654 C103.974,3.654 105.714,5.396 105.714,7.547" id="Fill-50" fill="#FFFFFF"></path>
                <path d="M101.822,5.154 C100.503,5.154 99.43,6.227 99.43,7.547 C99.43,8.866 100.503,9.939 101.822,9.939 C103.141,9.939 104.214,8.866 104.214,7.547 C104.214,6.227 103.141,5.154 101.822,5.154 Z M101.822,12.939 C98.848,12.939 96.43,10.52 96.43,7.547 C96.43,4.573 98.848,2.154 101.822,2.154 C104.795,2.154 107.214,4.573 107.214,7.547 C107.214,10.52 104.795,12.939 101.822,12.939 L101.822,12.939 Z" id="Fill-51" fill="#FFFFFF"></path>
                <path d="M17.487,7.547 C17.487,9.697 15.743,11.439 13.593,11.439 C11.444,11.439 9.701,9.697 9.701,7.547 C9.701,5.396 11.444,3.654 13.593,3.654 C15.743,3.654 17.487,5.396 17.487,7.547" id="Fill-52" fill="#FFFFFF"></path>
                <path d="M13.593,5.154 C12.274,5.154 11.201,6.227 11.201,7.547 C11.201,8.866 12.274,9.939 13.593,9.939 C14.913,9.939 15.987,8.866 15.987,7.547 C15.987,6.227 14.913,5.154 13.593,5.154 Z M13.593,12.939 C10.62,12.939 8.201,10.52 8.201,7.547 C8.201,4.573 10.62,2.154 13.593,2.154 C16.567,2.154 18.987,4.573 18.987,7.547 C18.987,10.52 16.567,12.939 13.593,12.939 L13.593,12.939 Z" id="Fill-53" fill="#FFFFFF"></path>
                <polygon id="Fill-54" fill="#00D2D4" points="36.689 127.44 79.043 127.44 79.043 111.478 36.689 111.478"></polygon>
                <path d="M38.189,125.94 L77.543,125.94 L77.543,112.978 L38.189,112.978 L38.189,125.94 Z M79.043,128.94 L36.689,128.94 C35.86,128.94 35.189,128.268 35.189,127.44 L35.189,111.478 C35.189,110.65 35.86,109.978 36.689,109.978 L79.043,109.978 C79.872,109.978 80.543,110.65 80.543,111.478 L80.543,127.44 C80.543,128.268 79.872,128.94 79.043,128.94 L79.043,128.94 Z" id="Fill-55" fill="#00D2D4"></path>
                <path d="M37.687,109.978 L77.728,109.978 L88.452,84.331 C73.432,69.599 69.157,56.422 62.801,33.173 L52.615,33.173 C46.261,56.42 41.987,69.596 26.963,84.331 L37.687,109.978 Z M78.727,112.978 L36.689,112.978 C36.084,112.978 35.538,112.614 35.305,112.057 L23.801,84.546 C23.562,83.974 23.699,83.315 24.145,82.886 C39.473,68.143 43.357,55.734 50.023,31.278 C50.2,30.625 50.793,30.173 51.47,30.173 L63.947,30.173 C64.623,30.173 65.216,30.625 65.394,31.278 C72.061,55.736 75.946,68.147 91.271,82.886 C91.717,83.315 91.853,83.974 91.614,84.546 L80.111,112.057 C79.877,112.614 79.332,112.978 78.727,112.978 L78.727,112.978 Z" id="Fill-56" fill="#FFFFFF"></path>
                <polygon id="Fill-57" fill="#FFFFFF" points="56.209 87.071 59.209 87.071 59.209 31.673 56.209 31.673"></polygon>
                <path d="M57.709,87.133 C55.517,87.133 53.734,88.916 53.734,91.108 C53.734,93.3 55.517,95.083 57.709,95.083 C59.901,95.083 61.684,93.3 61.684,91.108 C61.684,88.916 59.901,87.133 57.709,87.133 Z M57.709,98.083 C53.863,98.083 50.734,94.954 50.734,91.108 C50.734,87.261 53.863,84.133 57.709,84.133 C61.555,84.133 64.684,87.261 64.684,91.108 C64.684,94.954 61.555,98.083 57.709,98.083 L57.709,98.083 Z" id="Fill-58" fill="#FFFFFF"></path>
            </g>
        </g>
    </g>
</svg>