<?xml version="1.0" encoding="UTF-8"?>
<svg width="119px" height="113px" viewBox="0 0 119 113" version="1.1" xmlns="http://www.w3.org/2000/svg" xmlns:xlink="http://www.w3.org/1999/xlink">
    <!-- Generator: Sketch 53.1 (72631) - https://sketchapp.com -->
    <title>icon_colour</title>
    <desc>Created with Sketch.</desc>
    <g id="Page-1" stroke="none" stroke-width="1" fill="none" fill-rule="evenodd">
        <g id="shutterstock_339433193-copy" transform="translate(-95.000000, -672.000000)">
            <g id="icon_colour" transform="translate(95.647000, 672.274000)">
                <path d="M82.757,17.146 L58.572,1.875 C57.442,1.16 55.947,1.498 55.232,2.629 L1.5,87.721 L1.5,101.932 L15.783,110.953 L26.387,110.953 L83.51,20.488 C84.224,19.357 83.887,17.859 82.757,17.146" id="Fill-258" fill="#FFFFFF"></path>
                <path d="M16.217,109.453 L25.561,109.453 L82.242,19.687 C82.374,19.478 82.416,19.231 82.362,18.99 C82.308,18.75 82.164,18.546 81.957,18.415 L57.771,3.143 C57.348,2.877 56.762,3.016 56.5,3.431 L3,88.154 L3,101.104 L16.217,109.453 Z M26.387,112.453 L15.783,112.453 C15.499,112.453 15.221,112.373 14.981,112.222 L0.699,103.2 C0.263,102.925 2.13162821e-14,102.446 2.13162821e-14,101.932 L2.13162821e-14,87.721 C2.13162821e-14,87.437 0.08,87.159 0.231,86.92 L53.964,1.828 C54.687,0.684 55.927,-1.42108547e-14 57.281,-1.42108547e-14 C58.022,-1.42108547e-14 58.746,0.21 59.374,0.607 L83.558,15.878 C84.443,16.436 85.058,17.308 85.289,18.331 C85.519,19.353 85.337,20.403 84.779,21.289 L27.655,111.754 C27.381,112.189 26.902,112.453 26.387,112.453 L26.387,112.453 Z" id="Fill-259" fill="#00D2D4"></path>
                <polyline id="Fill-260" fill="#00D2D4" points="41.426 87.136 13.146 69.274 14.748 66.737 43.028 84.599 41.426 87.136"></polyline>
                <polyline id="Fill-261" fill="#00D2D4" points="50.049 73.477 21.769 55.62 23.371 53.083 51.651 70.94 50.049 73.477"></polyline>
                <polyline id="Fill-262" fill="#00D2D4" points="58.673 59.821 30.392 41.964 31.994 39.427 60.275 57.284 58.673 59.821"></polyline>
                <polyline id="Fill-263" fill="#00D2D4" points="67.297 46.165 39.015 28.308 40.617 25.77 68.899 43.628 67.297 46.165"></polyline>
                <path d="M111.596,58.34 L98.259,33.039 C97.635,31.853 96.17,31.4 94.987,32.023 L1.918,81.08 L1.918,97.051 L9.025,110.533 L17.771,110.533 L110.581,61.611 C111.764,60.988 112.219,59.523 111.596,58.34" id="Fill-264" fill="#00D2D4"></path>
                <path d="M9.93,109.033 L17.4,109.033 L109.881,60.284 C110.1,60.169 110.26,59.976 110.333,59.741 C110.406,59.506 110.383,59.256 110.269,59.038 L96.932,33.738 C96.702,33.302 96.131,33.119 95.686,33.351 L3.418,81.985 L3.418,96.68 L9.93,109.033 Z M17.771,112.033 L9.025,112.033 C8.468,112.033 7.957,111.725 7.698,111.232 L0.591,97.75 C0.477,97.534 0.418,97.295 0.418,97.051 L0.418,81.08 C0.418,80.523 0.726,80.013 1.218,79.753 L94.288,30.696 C94.85,30.4 95.481,30.244 96.114,30.244 C97.575,30.244 98.906,31.047 99.586,32.341 L112.923,57.641 C113.412,58.568 113.509,59.63 113.198,60.631 C112.888,61.631 112.206,62.451 111.279,62.938 L18.47,111.86 C18.255,111.974 18.015,112.033 17.771,112.033 L17.771,112.033 Z" id="Fill-265" fill="#FFFFFF"></path>
                <polyline id="Fill-266" fill="#00D2D4" points="75.917 32.511 47.639 14.653 49.241 12.116 77.519 29.974 75.917 32.511"></polyline>
                <polyline id="Fill-267" fill="#FFFFFF" points="40.434 98.785 24.84 69.197 27.495 67.799 43.088 97.387 40.434 98.785"></polyline>
                <polyline id="Fill-268" fill="#FFFFFF" points="54.721 91.254 39.127 61.666 41.782 60.268 57.375 89.855 54.721 91.254"></polyline>
                <polyline id="Fill-269" fill="#FFFFFF" points="69.01 83.723 53.413 54.135 56.067 52.736 71.665 82.324 69.01 83.723"></polyline>
                <polyline id="Fill-270" fill="#FFFFFF" points="83.297 76.191 67.702 46.603 70.356 45.205 85.952 74.793 83.297 76.191"></polyline>
                <polyline id="Fill-271" fill="#FFFFFF" points="97.584 68.66 81.989 39.074 84.643 37.676 100.239 67.262 97.584 68.66"></polyline>
                <path d="M116.574,108.531 C116.574,109.869 115.489,110.953 114.151,110.953 L3.921,110.953 C2.583,110.953 1.5,109.869 1.5,108.531 L1.5,79.93 C1.5,78.592 2.583,77.506 3.921,77.506 L114.151,77.506 C115.489,77.506 116.574,78.592 116.574,79.93 L116.574,108.531" id="Fill-272" fill="#FFFFFF"></path>
                <path d="M3.921,79.006 C3.413,79.006 3,79.42 3,79.93 L3,108.531 C3,109.04 3.413,109.453 3.921,109.453 L114.151,109.453 C114.66,109.453 115.074,109.04 115.074,108.531 L115.074,79.93 C115.074,79.42 114.66,79.006 114.151,79.006 L3.921,79.006 Z M114.151,112.453 L3.921,112.453 C1.759,112.453 7.10542736e-15,110.693 7.10542736e-15,108.531 L7.10542736e-15,79.93 C7.10542736e-15,77.766 1.759,76.006 3.921,76.006 L114.151,76.006 C116.314,76.006 118.074,77.766 118.074,79.93 L118.074,108.531 C118.074,110.693 116.314,112.453 114.151,112.453 L114.151,112.453 Z" id="Fill-273" fill="#FFFFFF"></path>
                <path d="M16.439,92.096 C15.262,92.096 14.305,93.053 14.305,94.228 C14.305,95.405 15.262,96.363 16.439,96.363 C17.616,96.363 18.574,95.405 18.574,94.228 C18.574,93.053 17.616,92.096 16.439,92.096 Z M16.439,99.363 C13.608,99.363 11.305,97.06 11.305,94.228 C11.305,91.398 13.608,89.096 16.439,89.096 C19.27,89.096 21.574,91.398 21.574,94.228 C21.574,97.06 19.27,99.363 16.439,99.363 L16.439,99.363 Z" id="Fill-274" fill="#FFFFFF"></path>
                <polygon id="Fill-275" fill="#FFFFFF" points="35.33 110.953 38.33 110.953 38.33 77.506 35.33 77.506"></polygon>
                <polygon id="Fill-276" fill="#FFFFFF" points="51.48 110.953 54.48 110.953 54.48 77.506 51.48 77.506"></polygon>
                <polygon id="Fill-277" fill="#FFFFFF" points="67.63 110.953 70.63 110.953 70.63 77.506 67.63 77.506"></polygon>
                <polygon id="Fill-278" fill="#FFFFFF" points="83.783 110.953 86.783 110.953 86.783 77.506 83.783 77.506"></polygon>
                <polygon id="Fill-279" fill="#FFFFFF" points="99.932 110.953 102.932 110.953 102.932 77.506 99.932 77.506"></polygon>
            </g>
        </g>
    </g>
</svg>