<?xml version="1.0" encoding="UTF-8"?>
<svg width="112px" height="87px" viewBox="0 0 112 87" version="1.1" xmlns="http://www.w3.org/2000/svg" xmlns:xlink="http://www.w3.org/1999/xlink">
    <!-- Generator: Sketch 53.1 (72631) - https://sketchapp.com -->
    <title>icon_typography</title>
    <desc>Created with Sketch.</desc>
    <g id="Page-1" stroke="none" stroke-width="1" fill="none" fill-rule="evenodd">
        <g id="shutterstock_339433193-copy" transform="translate(-619.000000, -165.000000)">
            <g id="icon_typography" transform="translate(619.610000, 165.694000)">
                <path d="M52.823,52.723 L42.02,21.271 L41.778,21.271 L30.614,52.723 L52.823,52.723 Z M51.743,0.14 L83.799,85.859 L64.229,85.859 L57.746,66.771 L25.692,66.771 L18.969,85.859 L0,85.859 L32.414,0.14 L51.743,0.14 L51.743,0.14 Z" id="Fill-59" fill="#00D2D4"></path>
                <polygon id="Fill-60" fill="#FFFFFF" points="98.998 84.322 101.998 84.322 101.998 1.5 98.998 1.5"></polygon>
                <polygon id="Fill-61" fill="#FFFFFF" points="90.192 85.822 110.803 85.822 110.803 82.822 90.192 82.822"></polygon>
                <polygon id="Fill-62" fill="#FFFFFF" points="90.192 3 110.803 3 110.803 0 90.192 0"></polygon>
            </g>
        </g>
    </g>
</svg>