<?xml version="1.0" encoding="UTF-8"?>
<svg width="88px" height="119px" viewBox="0 0 88 119" version="1.1" xmlns="http://www.w3.org/2000/svg" xmlns:xlink="http://www.w3.org/1999/xlink">
    <!-- Generator: Sketch 53.1 (72631) - https://sketchapp.com -->
    <title>icon_idea</title>
    <desc>Created with Sketch.</desc>
    <g id="Page-1" stroke="none" stroke-width="1" fill="none" fill-rule="evenodd">
        <g id="shutterstock_339433193-copy" transform="translate(-458.000000, -321.000000)">
            <g id="icon_idea" transform="translate(458.353000, 321.533000)">
                <polyline id="Fill-143" fill="#00D2D4" points="33.713 96.518 33.713 44.647 43.482 50.136 43.482 96.518 33.713 96.518"></polyline>
                <path d="M35.213,95.018 L41.982,95.018 L41.982,51.014 L35.213,47.21 L35.213,95.018 Z M43.482,98.018 L33.713,98.018 C32.885,98.018 32.213,97.346 32.213,96.518 L32.213,44.647 C32.213,44.114 32.496,43.621 32.956,43.352 C33.417,43.082 33.984,43.077 34.448,43.339 L44.216,48.828 C44.689,49.094 44.982,49.594 44.982,50.136 L44.982,96.518 C44.982,97.346 44.31,98.018 43.482,98.018 L43.482,98.018 Z" id="Fill-144" fill="#00D2D4"></path>
                <polyline id="Fill-145" fill="#00D2D4" points="43.482 50.136 53.25 44.647 53.25 96.518 43.482 96.518 43.482 50.136"></polyline>
                <path d="M44.982,95.018 L51.75,95.018 L51.75,47.21 L44.982,51.013 L44.982,95.018 Z M53.25,98.018 L43.482,98.018 C42.654,98.018 41.982,97.346 41.982,96.518 L41.982,50.136 C41.982,49.594 42.275,49.094 42.747,48.828 L52.514,43.339 C52.979,43.077 53.546,43.082 54.007,43.352 C54.467,43.621 54.75,44.114 54.75,44.647 L54.75,96.518 C54.75,97.346 54.078,98.018 53.25,98.018 L53.25,98.018 Z" id="Fill-146" fill="#00D2D4"></path>
                <polygon id="Fill-147" fill="#00D2D4" points="27.624 116.395 59.441 116.395 59.441 96.518 27.624 96.518"></polygon>
                <path d="M29.124,114.895 L57.941,114.895 L57.941,98.018 L29.124,98.018 L29.124,114.895 Z M59.441,117.895 L27.624,117.895 C26.795,117.895 26.124,117.223 26.124,116.395 L26.124,96.518 C26.124,95.69 26.795,95.018 27.624,95.018 L59.441,95.018 C60.269,95.018 60.941,95.69 60.941,96.518 L60.941,116.395 C60.941,117.223 60.269,117.895 59.441,117.895 L59.441,117.895 Z" id="Fill-148" fill="#00D2D4"></path>
                <path d="M29.012,95.018 L57.96,95.018 C58.323,86.092 63.21,81.301 67.946,76.658 C69.844,74.797 71.637,73.039 73.131,71.029 L73.235,70.905 C74.608,69.423 75.872,67.841 76.991,66.2 C81.551,59.469 83.963,51.612 83.963,43.482 C83.963,21.2 65.831,3.046 43.543,3.012 L43.314,3.001 C21.068,3.093 3,21.217 3,43.482 C3,51.61 5.412,59.468 9.974,66.205 C11.126,67.888 12.352,69.428 13.717,70.907 L13.818,71.028 C15.315,73.037 17.11,74.794 19.009,76.655 C23.752,81.298 28.648,86.091 29.012,95.018 Z M60.965,98.018 L26.006,98.018 L26.031,96.494 C26.17,87.864 21.672,83.46 16.911,78.798 C15.031,76.957 13.086,75.054 11.46,72.884 C10.036,71.335 8.702,69.657 7.495,67.894 C2.589,60.652 -2.84217094e-14,52.212 -2.84217094e-14,43.482 C-2.84217094e-14,19.506 19.507,2.84217094e-14 43.486,2.84217094e-14 L43.722,0.012 C67.584,0.144 86.963,19.607 86.963,43.482 C86.963,52.215 84.373,60.654 79.472,67.887 C78.281,69.632 76.942,71.312 75.491,72.884 C73.866,75.055 71.924,76.959 70.046,78.8 C65.292,83.462 60.8,87.865 60.941,96.494 L60.965,98.018 L60.965,98.018 Z" id="Fill-149" fill="#FFFFFF"></path>
                <path d="M11.472,43.482 L8.472,43.482 C8.472,32.324 13.883,21.73 22.948,15.144 L24.711,17.571 C16.421,23.594 11.472,33.281 11.472,43.482" id="Fill-150" fill="#FFFFFF"></path>
                <path d="M29.273,14.803 L27.941,12.115 C29.082,11.55 30.25,11.047 31.414,10.62 L32.447,13.436 C31.384,13.826 30.317,14.286 29.273,14.803" id="Fill-151" fill="#FFFFFF"></path>
                <polygon id="Fill-152" fill="#FFFFFF" points="24.314 105.377 62.75 105.377 62.75 102.377 24.314 102.377"></polygon>
                <polygon id="Fill-153" fill="#FFFFFF" points="24.314 112.45 62.75 112.45 62.75 109.45 24.314 109.45"></polygon>
                <path d="M40.858,35.643 L46.21,35.643 L43.534,31.097 L40.858,35.643 Z M48.833,38.643 L38.234,38.643 C37.696,38.643 37.199,38.355 36.932,37.888 C36.665,37.421 36.668,36.846 36.941,36.383 L42.241,27.38 C42.51,26.922 43.002,26.64 43.534,26.64 C44.065,26.64 44.557,26.922 44.827,27.38 L50.126,36.383 C50.398,36.846 50.402,37.421 50.134,37.888 C49.868,38.355 49.371,38.643 48.833,38.643 L48.833,38.643 Z" id="Fill-154" fill="#FFFFFF"></path>
                <polyline id="Fill-155" fill="#FFFFFF" points="48.833 37.143 53.25 44.647 43.482 49.905 33.713 44.647 38.234 37.143 48.833 37.143"></polyline>
                <path d="M35.811,44.072 L43.482,48.202 L51.167,44.065 L47.975,38.643 L39.082,38.643 L35.811,44.072 Z M43.482,51.405 C43.238,51.405 42.993,51.346 42.771,51.226 L33.002,45.967 C32.641,45.773 32.376,45.439 32.267,45.043 C32.159,44.647 32.216,44.224 32.428,43.873 L36.949,36.369 C37.22,35.919 37.708,35.643 38.234,35.643 L48.833,35.643 C49.364,35.643 49.856,35.925 50.126,36.383 L54.543,43.886 C54.749,44.237 54.804,44.657 54.694,45.051 C54.585,45.443 54.32,45.774 53.96,45.967 L44.193,51.226 C43.971,51.346 43.726,51.405 43.482,51.405 L43.482,51.405 Z" id="Fill-156" fill="#FFFFFF"></path>
                <polygon id="Fill-157" fill="#FFFFFF" points="41.982 96.518 44.982 96.518 44.982 49.905 41.982 49.905"></polygon>
            </g>
        </g>
    </g>
</svg>