<?xml version="1.0" encoding="UTF-8"?>
<svg width="107px" height="136px" viewBox="0 0 107 136" version="1.1" xmlns="http://www.w3.org/2000/svg" xmlns:xlink="http://www.w3.org/1999/xlink">
    <!-- Generator: Sketch 53.1 (72631) - https://sketchapp.com -->
    <title>icon_symbols</title>
    <desc>Created with Sketch.</desc>
    <g id="Page-1" stroke="none" stroke-width="1" fill="none" fill-rule="evenodd">
        <g id="shutterstock_339433193-copy" transform="translate(-101.000000, -487.000000)">
            <g id="icon_symbols" transform="translate(101.746000, 487.693000)">
                <path d="M3,29.18 L16.416,29.18 L16.416,15.765 L3,15.765 L3,29.18 Z M17.916,32.18 L1.5,32.18 C0.671,32.18 -7.10542736e-15,31.508 -7.10542736e-15,30.68 L-7.10542736e-15,14.265 C-7.10542736e-15,13.436 0.671,12.765 1.5,12.765 L17.916,12.765 C18.745,12.765 19.416,13.436 19.416,14.265 L19.416,30.68 C19.416,31.508 18.745,32.18 17.916,32.18 L17.916,32.18 Z" id="Fill-185" fill="#FFFFFF"></path>
                <path d="M89.034,29.18 L102.45,29.18 L102.45,15.765 L89.034,15.765 L89.034,29.18 Z M103.95,32.18 L87.534,32.18 C86.706,32.18 86.034,31.508 86.034,30.68 L86.034,14.265 C86.034,13.436 86.706,12.765 87.534,12.765 L103.95,12.765 C104.779,12.765 105.45,13.436 105.45,14.265 L105.45,30.68 C105.45,31.508 104.779,32.18 103.95,32.18 L103.95,32.18 Z" id="Fill-186" fill="#FFFFFF"></path>
                <path d="M3,113.83 L16.416,113.83 L16.416,100.413 L3,100.413 L3,113.83 Z M17.916,116.83 L1.5,116.83 C0.671,116.83 -7.10542736e-15,116.158 -7.10542736e-15,115.33 L-7.10542736e-15,98.913 C-7.10542736e-15,98.085 0.671,97.413 1.5,97.413 L17.916,97.413 C18.745,97.413 19.416,98.085 19.416,98.913 L19.416,115.33 C19.416,116.158 18.745,116.83 17.916,116.83 L17.916,116.83 Z" id="Fill-187" fill="#FFFFFF"></path>
                <path d="M89.034,113.83 L102.45,113.83 L102.45,100.413 L89.034,100.413 L89.034,113.83 Z M103.95,116.83 L87.534,116.83 C86.706,116.83 86.034,116.158 86.034,115.33 L86.034,98.913 C86.034,98.085 86.706,97.413 87.534,97.413 L103.95,97.413 C104.779,97.413 105.45,98.085 105.45,98.913 L105.45,115.33 C105.45,116.158 104.779,116.83 103.95,116.83 L103.95,116.83 Z" id="Fill-188" fill="#FFFFFF"></path>
                <polygon id="Fill-189" fill="#FFFFFF" points="25.241 23.972 32.218 23.972 32.218 20.972 25.241 20.972"></polygon>
                <polygon id="Fill-190" fill="#FFFFFF" points="37.239 23.972 44.215 23.972 44.215 20.972 37.239 20.972"></polygon>
                <polygon id="Fill-191" fill="#FFFFFF" points="49.236 23.972 56.213 23.972 56.213 20.972 49.236 20.972"></polygon>
                <polygon id="Fill-192" fill="#FFFFFF" points="61.234 23.972 68.212 23.972 68.212 20.972 61.234 20.972"></polygon>
                <polygon id="Fill-193" fill="#FFFFFF" points="73.233 23.972 80.21 23.972 80.21 20.972 73.233 20.972"></polygon>
                <polygon id="Fill-194" fill="#FFFFFF" points="25.241 110.004 32.218 110.004 32.218 107.004 25.241 107.004"></polygon>
                <polygon id="Fill-195" fill="#FFFFFF" points="37.239 110.004 44.215 110.004 44.215 107.004 37.239 107.004"></polygon>
                <polygon id="Fill-196" fill="#FFFFFF" points="49.236 110.004 56.213 110.004 56.213 107.004 49.236 107.004"></polygon>
                <polygon id="Fill-197" fill="#FFFFFF" points="61.234 110.004 68.212 110.004 68.212 107.004 61.234 107.004"></polygon>
                <polygon id="Fill-198" fill="#FFFFFF" points="73.233 110.004 80.21 110.004 80.21 107.004 73.233 107.004"></polygon>
                <polygon id="Fill-199" fill="#FFFFFF" points="94.241 44.979 97.241 44.979 97.241 38.004 94.241 38.004"></polygon>
                <polygon id="Fill-200" fill="#FFFFFF" points="94.241 56.978 97.241 56.978 97.241 50.001 94.241 50.001"></polygon>
                <polygon id="Fill-201" fill="#FFFFFF" points="94.241 68.976 97.241 68.976 97.241 61.999 94.241 61.999"></polygon>
                <polygon id="Fill-202" fill="#FFFFFF" points="94.241 80.974 97.241 80.974 97.241 73.997 94.241 73.997"></polygon>
                <polygon id="Fill-203" fill="#FFFFFF" points="94.241 92.974 97.241 92.974 97.241 85.996 94.241 85.996"></polygon>
                <polygon id="Fill-204" fill="#FFFFFF" points="8.208 44.979 11.208 44.979 11.208 38.004 8.208 38.004"></polygon>
                <polygon id="Fill-205" fill="#FFFFFF" points="8.208 56.978 11.208 56.978 11.208 50.001 8.208 50.001"></polygon>
                <polygon id="Fill-206" fill="#FFFFFF" points="8.208 68.976 11.208 68.976 11.208 61.999 8.208 61.999"></polygon>
                <polygon id="Fill-207" fill="#FFFFFF" points="8.208 80.974 11.208 80.974 11.208 73.997 8.208 73.997"></polygon>
                <polygon id="Fill-208" fill="#FFFFFF" points="8.208 92.974 11.208 92.974 11.208 85.996 8.208 85.996"></polygon>
                <polyline id="Fill-209" fill="#00D2D4" points="52.727 110.925 43.04 117.843 43.04 16.763 52.727 16.764 52.727 110.925"></polyline>
                <path d="M44.54,18.263 L44.54,114.928 L51.227,110.152 L51.227,18.264 L44.54,18.263 Z M43.04,119.343 C42.805,119.343 42.57,119.288 42.354,119.177 C41.854,118.919 41.54,118.404 41.54,117.843 L41.54,16.763 C41.54,16.365 41.698,15.983 41.98,15.702 C42.261,15.421 42.642,15.263 43.04,15.263 L52.727,15.264 C53.555,15.264 54.227,15.935 54.227,16.764 L54.227,110.925 C54.227,111.409 53.993,111.864 53.598,112.145 L43.912,119.063 C43.652,119.249 43.347,119.343 43.04,119.343 L43.04,119.343 Z" id="Fill-210" fill="#FFFFFF"></path>
                <polyline id="Fill-211" fill="#00D2D4" points="52.727 110.925 62.413 117.843 62.412 16.764 52.727 16.764 52.727 110.925"></polyline>
                <path d="M54.227,110.152 L60.913,114.928 L60.912,18.264 L54.227,18.264 L54.227,110.152 Z M62.413,119.343 C62.106,119.343 61.801,119.249 61.542,119.063 L51.855,112.145 C51.461,111.864 51.227,111.409 51.227,110.925 L51.227,16.764 C51.227,15.935 51.898,15.264 52.727,15.264 L62.412,15.264 C63.241,15.264 63.912,15.935 63.912,16.764 L63.913,117.843 C63.913,118.404 63.599,118.919 63.1,119.177 C62.883,119.288 62.648,119.343 62.413,119.343 L62.413,119.343 Z" id="Fill-212" fill="#FFFFFF"></path>
                <path d="M44.54,15.263 L60.812,15.264 L60.812,12.013 L44.539,12.014 L44.54,15.263 Z M62.312,18.264 L62.312,18.264 L43.04,18.263 C42.212,18.263 41.541,17.592 41.54,16.763 L41.538,10.514 C41.538,10.116 41.696,9.734 41.977,9.453 C42.258,9.172 42.64,9.014 43.038,9.014 L62.312,9.013 C62.71,9.013 63.091,9.171 63.372,9.452 C63.653,9.733 63.812,10.115 63.812,10.513 L63.812,16.764 C63.812,17.161 63.653,17.543 63.372,17.824 C63.091,18.105 62.71,18.264 62.312,18.264 L62.312,18.264 Z" id="Fill-213" fill="#FFFFFF"></path>
                <path d="M47.098,3 C45.688,3 44.539,4.247 44.537,5.78 L44.538,9.014 L60.812,9.013 L60.814,5.777 C60.812,4.248 59.665,3.001 58.256,3.001 L47.098,3 Z M43.038,12.014 C42.21,12.014 41.538,11.343 41.538,10.514 L41.537,5.778 C41.541,2.591 44.036,0 47.098,0 L58.255,0.001 C61.316,0.001 63.81,2.592 63.814,5.776 L63.812,10.514 C63.811,11.342 63.14,12.013 62.312,12.013 L43.038,12.014 L43.038,12.014 Z" id="Fill-214" fill="#FFFFFF"></path>
                <path d="M45.15,118.243 L52.777,130.678 L60.403,118.25 L52.731,112.771 L45.15,118.243 Z M52.777,135.046 L52.777,135.046 C52.256,135.046 51.772,134.774 51.499,134.33 L41.865,118.625 C41.455,117.956 41.629,117.084 42.266,116.624 L51.849,109.708 C52.37,109.332 53.074,109.329 53.598,109.704 L63.285,116.622 C63.926,117.08 64.104,117.956 63.692,118.627 L54.056,134.33 C53.783,134.775 53.299,135.046 52.777,135.046 L52.777,135.046 Z" id="Fill-215" fill="#FFFFFF"></path>
                <polygon id="Fill-216" fill="#FFFFFF" points="51.227 110.925 54.227 110.925 54.227 16.764 51.227 16.764"></polygon>
                <polygon id="Fill-217" fill="#FFFFFF" points="47.022 125.834 58.431 125.834 58.431 122.834 47.022 122.834"></polygon>
            </g>
        </g>
    </g>
</svg>