<?xml version="1.0" encoding="UTF-8"?>
<svg width="113px" height="115px" viewBox="0 0 113 115" version="1.1" xmlns="http://www.w3.org/2000/svg" xmlns:xlink="http://www.w3.org/1999/xlink">
    <!-- Generator: Sketch 53.1 (72631) - https://sketchapp.com -->
    <title>icon_grid</title>
    <desc>Created with Sketch.</desc>
    <g id="Page-1" stroke="none" stroke-width="1" fill="none" fill-rule="evenodd">
        <g id="shutterstock_339433193-copy" transform="translate(-619.000000, -325.000000)">
            <g id="icon_grid" transform="translate(619.077000, 325.716000)">
                <path d="M3,78.395 L0,78.395 L0,23.471 C0,22.642 0.672,21.971 1.5,21.971 L61.325,21.971 L61.325,24.971 L3,24.971 L3,78.395" id="Fill-158" fill="#FFFFFF"></path>
                <path d="M112.851,78.395 L109.851,78.395 L109.851,24.971 L80.575,24.971 L80.575,21.971 L111.351,21.971 C112.179,21.971 112.851,22.642 112.851,23.471 L112.851,78.395" id="Fill-159" fill="#FFFFFF"></path>
                <polyline id="Fill-160" fill="#FFFFFF" points="10.423 78.395 7.423 78.395 7.423 29.635 61.325 29.635 61.325 32.635 10.423 32.635 10.423 78.395"></polyline>
                <polyline id="Fill-161" fill="#FFFFFF" points="105.425 78.395 102.425 78.395 102.425 32.635 80.575 32.635 80.575 29.635 105.425 29.635 105.425 78.395"></polyline>
                <path d="M43.796,104.971 L69.052,104.971 L66.756,93.385 L46.092,93.385 L43.796,104.971 Z M70.878,107.971 L41.97,107.971 C41.521,107.971 41.096,107.77 40.811,107.423 C40.526,107.076 40.411,106.619 40.498,106.179 L43.389,91.593 C43.528,90.891 44.145,90.385 44.861,90.385 L67.987,90.385 C68.703,90.385 69.319,90.891 69.459,91.593 L72.35,106.179 C72.437,106.619 72.322,107.076 72.037,107.423 C71.752,107.77 71.327,107.971 70.878,107.971 L70.878,107.971 Z" id="Fill-162" fill="#FFFFFF"></path>
                <path d="M28.675,110.385 L84.177,110.385 L84.177,107.971 L28.675,107.971 L28.675,110.385 Z M85.677,113.385 L27.175,113.385 C26.347,113.385 25.675,112.713 25.675,111.885 L25.675,106.471 C25.675,105.643 26.347,104.971 27.175,104.971 L85.677,104.971 C86.505,104.971 87.177,105.643 87.177,106.471 L87.177,111.885 C87.177,112.713 86.505,113.385 85.677,113.385 L85.677,113.385 Z" id="Fill-163" fill="#FFFFFF"></path>
                <polygon id="Fill-164" fill="#00D2D4" points="1.5 91.885 111.351 91.885 111.351 78.395 1.5 78.395"></polygon>
                <path d="M3,90.385 L109.851,90.385 L109.851,79.895 L3,79.895 L3,90.385 Z M5.68434189e-14,93.385 L112.851,93.385 L112.851,76.895 L5.68434189e-14,76.895 L5.68434189e-14,93.385 Z" id="Fill-165" fill="#00D2D4"></path>
                <polygon id="Fill-166" fill="#FFFFFF" points="50.943 86.858 62.454 86.858 62.454 83.858 50.943 83.858"></polygon>
                <polygon id="Fill-167" fill="#FFFFFF" points="101.425 86.858 103.925 86.858 103.925 83.858 101.425 83.858"></polygon>
                <polygon id="Fill-168" fill="#FFFFFF" points="95.454 86.858 97.954 86.858 97.954 83.858 95.454 83.858"></polygon>
                <polyline id="Fill-169" fill="#00D2D4" points="32.821 76.951 32.821 15.057 40.845 19.566 40.845 76.951 32.821 76.951"></polyline>
                <path d="M34.321,75.451 L39.345,75.451 L39.345,20.444 L34.321,17.621 L34.321,75.451 Z M40.845,78.451 L32.821,78.451 C31.993,78.451 31.321,77.78 31.321,76.951 L31.321,15.057 C31.321,14.525 31.604,14.032 32.064,13.763 C32.525,13.493 33.093,13.488 33.556,13.75 L41.579,18.258 C42.052,18.524 42.345,19.024 42.345,19.566 L42.345,76.951 C42.345,77.78 41.673,78.451 40.845,78.451 L40.845,78.451 Z" id="Fill-170" fill="#00D2D4"></path>
                <polyline id="Fill-171" fill="#00D2D4" points="40.845 19.566 48.866 15.057 48.866 76.951 40.845 76.951 40.845 19.566"></polyline>
                <path d="M42.345,75.451 L47.366,75.451 L47.366,17.621 L42.345,20.443 L42.345,75.451 Z M48.866,78.451 L40.845,78.451 C40.017,78.451 39.345,77.78 39.345,76.951 L39.345,19.566 C39.345,19.024 39.638,18.524 40.11,18.258 L48.131,13.75 C48.596,13.488 49.163,13.493 49.624,13.763 C50.084,14.032 50.366,14.525 50.366,15.057 L50.366,76.951 C50.366,77.78 49.694,78.451 48.866,78.451 L48.866,78.451 Z" id="Fill-172" fill="#00D2D4"></path>
                <path d="M39.157,7.394 L42.615,7.394 L40.886,4.457 L39.157,7.394 Z M45.239,10.394 L36.534,10.394 C35.996,10.394 35.499,10.106 35.233,9.639 C34.965,9.172 34.969,8.597 35.241,8.134 L39.593,0.74 C39.862,0.282 40.355,0 40.886,0 C41.417,0 41.909,0.282 42.179,0.739 L46.532,8.133 C46.805,8.597 46.809,9.172 46.541,9.639 C46.275,10.106 45.777,10.394 45.239,10.394 L45.239,10.394 Z" id="Fill-173" fill="#FFFFFF"></path>
                <polyline id="Fill-174" fill="#FFFFFF" points="45.239 8.894 48.866 15.057 40.845 19.376 32.821 15.057 36.534 8.894 45.239 8.894"></polyline>
                <path d="M34.919,14.483 L40.845,17.673 L46.783,14.475 L44.382,10.394 L37.382,10.394 L34.919,14.483 Z M40.845,20.876 C40.601,20.876 40.356,20.817 40.134,20.697 L32.111,16.378 C31.749,16.184 31.484,15.849 31.375,15.454 C31.267,15.058 31.324,14.635 31.536,14.284 L35.249,8.12 C35.521,7.67 36.008,7.394 36.534,7.394 L45.239,7.394 C45.771,7.394 46.263,7.676 46.532,8.134 L50.159,14.297 C50.366,14.648 50.421,15.069 50.311,15.461 C50.201,15.854 49.937,16.185 49.577,16.378 L41.556,20.697 C41.334,20.817 41.089,20.876 40.845,20.876 L40.845,20.876 Z" id="Fill-175" fill="#FFFFFF"></path>
                <polygon id="Fill-176" fill="#FFFFFF" points="39.345 76.951 42.345 76.951 42.345 19.376 39.345 19.376"></polygon>
                <path d="M82.075,76.951 L79.075,76.951 L79.075,3.701 L62.825,3.701 L62.825,76.951 L59.825,76.951 L59.825,2.201 C59.825,1.373 60.497,0.701 61.325,0.701 L80.575,0.701 C81.403,0.701 82.075,1.373 82.075,2.201 L82.075,76.951" id="Fill-177" fill="#FFFFFF"></path>
                <polygon id="Fill-178" fill="#FFFFFF" points="74.206 13.368 80.575 13.368 80.575 10.368 74.206 10.368"></polygon>
                <polygon id="Fill-179" fill="#FFFFFF" points="74.206 23.035 80.575 23.035 80.575 20.035 74.206 20.035"></polygon>
                <polygon id="Fill-180" fill="#FFFFFF" points="74.206 32.701 80.575 32.701 80.575 29.701 74.206 29.701"></polygon>
                <polygon id="Fill-181" fill="#FFFFFF" points="74.206 42.368 80.575 42.368 80.575 39.368 74.206 39.368"></polygon>
                <polygon id="Fill-182" fill="#FFFFFF" points="74.206 52.035 80.575 52.035 80.575 49.035 74.206 49.035"></polygon>
                <polygon id="Fill-183" fill="#FFFFFF" points="74.206 61.702 80.575 61.702 80.575 58.702 74.206 58.702"></polygon>
                <polygon id="Fill-184" fill="#FFFFFF" points="74.206 71.369 80.575 71.369 80.575 68.369 74.206 68.369"></polygon>
            </g>
        </g>
    </g>
</svg>