<?xml version="1.0" encoding="UTF-8"?>
<svg width="98px" height="117px" viewBox="0 0 98 117" version="1.1" xmlns="http://www.w3.org/2000/svg" xmlns:xlink="http://www.w3.org/1999/xlink">
    <!-- Generator: Sketch 53.1 (72631) - https://sketchapp.com -->
    <title>icon_animations</title>
    <desc>Created with Sketch.</desc>
    <g id="Page-1" stroke="none" stroke-width="1" fill="none" fill-rule="evenodd">
        <g id="shutterstock_339433193-copy" transform="translate(-275.000000, -496.000000)">
            <g id="icon_animations" transform="translate(275.032000, 496.342500)">
                <path d="M13.361,66.7295 L38.791,92.1575 C40.178,91.6875 41.599,91.3455 43.044,91.1335 L16.495,64.5845 C15.599,65.5055 14.534,66.2335 13.361,66.7295 Z M38.405,95.3925 C38.014,95.3925 37.631,95.2405 37.344,94.9525 L9.393,67.0035 C8.984,66.5945 8.846,65.9865 9.04,65.4415 C9.234,64.8965 9.723,64.5105 10.299,64.4505 C12.268,64.2475 14.029,63.1785 15.129,61.5185 C15.378,61.1435 15.781,60.9005 16.229,60.8555 C16.681,60.8135 17.121,60.9685 17.44,61.2865 L47.469,91.3165 C47.897,91.7435 48.026,92.3855 47.797,92.9455 C47.567,93.5045 47.025,93.8715 46.42,93.8765 C43.85,93.8965 41.335,94.3725 38.943,95.2925 C38.768,95.3605 38.586,95.3925 38.405,95.3925 L38.405,95.3925 Z" id="Fill-218" fill="#FFFFFF"></path>
                <path d="M12.314,48.6495 C13.57,49.0185 14.742,49.6415 15.756,50.4865 L47.028,19.2145 L44.388,16.5735 L12.314,48.6495 Z M15.768,54.0955 C15.749,54.0955 15.73,54.0955 15.711,54.0945 C15.294,54.0785 14.902,53.8895 14.63,53.5735 C13.283,52.0055 11.26,51.1285 9.228,51.2825 C8.597,51.3265 7.981,50.9835 7.72,50.4125 C7.459,49.8435 7.547,49.1735 7.99,48.7305 L43.327,13.3915 C43.609,13.1105 43.99,12.9515 44.388,12.9515 C44.786,12.9515 45.168,13.1105 45.449,13.3915 L50.21,18.1545 C50.795,18.7405 50.795,19.6895 50.209,20.2755 L16.828,53.6565 C16.547,53.9385 16.165,54.0955 15.768,54.0955 L15.768,54.0955 Z" id="Fill-219" fill="#FFFFFF"></path>
                <path d="M55.088,24.8915 C56.194,22.3885 57.749,20.0365 59.799,17.9865 C61.85,15.9355 64.201,14.3785 66.703,13.2755 L66.834,13.1445 L55.188,1.4995 L43.311,13.3745 L54.957,25.0225 L55.088,24.8915" id="Fill-220" fill="#00D2D4"></path>
                <path d="M45.432,13.3745 L54.579,22.5225 C55.695,20.4525 57.089,18.5755 58.738,16.9255 C60.389,15.2745 62.266,13.8795 64.334,12.7655 L55.188,3.6205 L45.432,13.3745 Z M54.957,26.5225 L54.957,26.5225 C54.559,26.5225 54.178,26.3645 53.897,26.0825 L42.25,14.4355 C41.969,14.1545 41.811,13.7725 41.811,13.3745 C41.811,12.9775 41.969,12.5955 42.25,12.3145 L54.127,0.4395 C54.713,-0.1465 55.662,-0.1465 56.248,0.4395 L67.895,12.0835 C68.176,12.3655 68.334,12.7465 68.334,13.1445 C68.334,13.5415 68.176,13.9235 67.895,14.2045 L67.764,14.3355 C67.633,14.4665 67.478,14.5735 67.309,14.6475 C64.875,15.7205 62.705,17.2005 60.86,19.0465 C59.016,20.8905 57.536,23.0615 56.46,25.4975 C56.385,25.6665 56.28,25.8215 56.149,25.9515 L56.018,26.0825 C55.737,26.3645 55.355,26.5225 54.957,26.5225 L54.957,26.5225 Z" id="Fill-221" fill="#00D2D4"></path>
                <path d="M9.614,61.1525 C7.802,61.1525 6.334,59.6855 6.334,57.8725 C6.334,56.0645 7.802,54.5955 9.614,54.5955 C11.425,54.5955 12.893,56.0645 12.893,57.8725 C12.893,59.6855 11.425,61.1525 9.614,61.1525 Z M9.614,49.7615 C5.133,49.7615 1.5,53.3925 1.5,57.8725 C1.5,62.3535 5.133,65.9865 9.614,65.9865 C14.094,65.9865 17.727,62.3515 17.727,57.8725 C17.727,53.3925 14.094,49.7615 9.614,49.7615 L9.614,49.7615 Z" id="Fill-222" fill="#00D2D4"></path>
                <path d="M9.614,56.0955 C8.633,56.0955 7.834,56.8925 7.834,57.8725 C7.834,58.8545 8.633,59.6525 9.614,59.6525 C10.594,59.6525 11.393,58.8545 11.393,57.8725 C11.393,56.8925 10.594,56.0955 9.614,56.0955 Z M9.614,62.6525 C6.978,62.6525 4.834,60.5085 4.834,57.8725 C4.834,55.2395 6.978,53.0955 9.614,53.0955 C12.249,53.0955 14.393,55.2395 14.393,57.8725 C14.393,60.5085 12.249,62.6525 9.614,62.6525 Z M9.614,51.2615 C5.967,51.2615 3,54.2275 3,57.8725 C3,61.5195 5.967,64.4865 9.614,64.4865 C13.26,64.4865 16.227,61.5195 16.227,57.8725 C16.227,54.2275 13.26,51.2615 9.614,51.2615 Z M9.614,67.4865 C4.313,67.4865 2.84217094e-14,63.1735 2.84217094e-14,57.8725 C2.84217094e-14,52.5735 4.313,48.2615 9.614,48.2615 C14.914,48.2615 19.227,52.5735 19.227,57.8725 C19.227,63.1735 14.914,67.4865 9.614,67.4865 L9.614,67.4865 Z" id="Fill-223" fill="#00D2D4"></path>
                <path d="M9.614,56.0955 C8.633,56.0955 7.834,56.8925 7.834,57.8725 C7.834,58.8545 8.633,59.6525 9.614,59.6525 C10.594,59.6525 11.393,58.8545 11.393,57.8725 C11.393,56.8925 10.594,56.0955 9.614,56.0955 Z M9.614,62.6525 C6.978,62.6525 4.834,60.5085 4.834,57.8725 C4.834,55.2395 6.978,53.0955 9.614,53.0955 C12.249,53.0955 14.393,55.2395 14.393,57.8725 C14.393,60.5085 12.249,62.6525 9.614,62.6525 L9.614,62.6525 Z" id="Fill-224" fill="#FFFFFF"></path>
                <path d="M83.209,41.3985 C87.246,37.3615 87.246,30.8165 83.209,26.7825 L68.596,41.3985 C72.631,45.4335 79.174,45.4335 83.209,41.3985" id="Fill-225" fill="#00D2D4"></path>
                <path d="M70.806,41.3095 C72.286,42.3595 74.051,42.9245 75.903,42.9245 C78.262,42.9245 80.48,42.0055 82.149,40.3375 C83.818,38.6685 84.737,36.4495 84.737,34.0895 C84.737,32.2375 84.171,30.4725 83.121,28.9925 L70.806,41.3095 Z M75.903,45.9245 C72.742,45.9245 69.77,44.6945 67.535,42.4585 C66.949,41.8725 66.949,40.9235 67.535,40.3375 L82.149,25.7225 C82.734,25.1365 83.683,25.1375 84.269,25.7215 C86.506,27.9555 87.737,30.9275 87.737,34.0895 C87.737,37.2505 86.506,40.2235 84.27,42.4585 C82.035,44.6945 79.063,45.9245 75.903,45.9245 L75.903,45.9245 Z" id="Fill-226" fill="#00D2D4"></path>
                <path d="M75.902,12.8175 C70.219,12.8175 64.877,15.0295 60.86,19.0465 C52.922,26.9845 52.581,39.6865 59.836,48.0345 L89.846,18.0225 C85.978,14.6555 81.081,12.8175 75.902,12.8175 Z M59.799,51.6935 L59.799,51.6935 C59.401,51.6935 59.02,51.5345 58.739,51.2535 C49.275,41.7875 49.275,26.3885 58.739,16.9255 C63.322,12.3415 69.418,9.8175 75.902,9.8175 C82.385,9.8175 88.481,12.3415 93.065,16.9255 C93.651,17.5115 93.651,18.4605 93.065,19.0465 L60.86,51.2535 C60.578,51.5345 60.197,51.6935 59.799,51.6935 L59.799,51.6935 Z" id="Fill-227" fill="#FFFFFF"></path>
                <polyline id="Fill-228" fill="#FFFFFF" points="48.135 22.2305 46.014 20.1095 54.485 11.6395 56.606 13.7605 48.135 22.2305"></polyline>
                <polyline id="Fill-229" fill="#FFFFFF" points="89.883 50.1915 86.139 46.4475 88.26 44.3255 92.004 48.0705 89.883 50.1915"></polyline>
                <polygon id="Fill-230" fill="#FFFFFF" points="78.19 55.5445 81.19 55.5445 81.19 50.2475 78.19 50.2475"></polygon>
                <polyline id="Fill-231" fill="#FFFFFF" points="92.065 39.3765 92.064 36.3765 97.359 36.3745 97.36 39.3745 92.065 39.3765"></polyline>
                <path d="M25.365,113.6445 L67.805,113.6445 C67.033,102.6125 57.811,93.8725 46.586,93.8725 C35.36,93.8725 26.137,102.6125 25.365,113.6445 Z M69.358,116.6445 L23.813,116.6445 C22.984,116.6445 22.313,115.9725 22.313,115.1445 C22.313,101.7605 33.202,90.8725 46.586,90.8725 C59.969,90.8725 70.858,101.7605 70.858,115.1445 C70.858,115.9725 70.186,116.6445 69.358,116.6445 L69.358,116.6445 Z" id="Fill-232" fill="#FFFFFF"></path>
                <polygon id="Fill-233" fill="#FFFFFF" points="53.223 109.2065 59.473 109.2065 59.473 106.2065 53.223 106.2065"></polygon>
            </g>
        </g>
    </g>
</svg>