<?xml version="1.0" encoding="UTF-8"?>
<svg width="106px" height="106px" viewBox="0 0 106 106" version="1.1" xmlns="http://www.w3.org/2000/svg" xmlns:xlink="http://www.w3.org/1999/xlink">
    <!-- Generator: Sketch 53.1 (72631) - https://sketchapp.com -->
    <title>icon_size</title>
    <desc>Created with Sketch.</desc>
    <g id="Page-1" stroke="none" stroke-width="1" fill="none" fill-rule="evenodd">
        <g id="shutterstock_339433193-copy" transform="translate(-105.000000, -329.000000)">
            <g id="icon_size" transform="translate(105.087809, 329.199500)">
                <path d="M3.66319117,16.2645 L88.9351912,101.5365 L101.579191,88.8925 L16.3081912,3.6215 L3.66319117,16.2645 Z M88.9351912,105.1575 C88.5521912,105.1575 88.1681912,105.0105 87.8751912,104.7175 L0.481191167,17.3245 C0.200191167,17.0435 0.0421911673,16.6625 0.0421911673,16.2645 C0.0421911673,15.8665 0.200191167,15.4855 0.481191167,15.2035 L15.2481912,0.4395 C15.8341912,-0.1465 16.7831912,-0.1465 17.3691912,0.4395 L104.761191,87.8325 C105.347191,88.4185 105.347191,89.3675 104.761191,89.9535 L89.9961912,104.7175 C89.7031912,105.0105 89.3191912,105.1575 88.9351912,105.1575 L88.9351912,105.1575 Z" id="Fill-123" fill="#FFFFFF"></path>
                <polyline id="Fill-124" fill="#FFFFFF" points="36.4211912 29.6695 34.3001912 27.5485 38.3561912 23.4915 40.4771912 25.6135 36.4211912 29.6695"></polyline>
                <polyline id="Fill-125" fill="#FFFFFF" points="43.3891912 36.6375 41.2671912 34.5165 45.3221912 30.4595 47.4441912 32.5805 43.3891912 36.6375"></polyline>
                <polyline id="Fill-126" fill="#FFFFFF" points="22.8171912 16.0635 20.6951912 13.9425 24.7491912 9.8855 26.8711912 12.0075 22.8171912 16.0635"></polyline>
                <polyline id="Fill-127" fill="#FFFFFF" points="29.7851912 23.0315 27.6621912 20.9105 31.7161912 16.8545 33.8381912 18.9755 29.7851912 23.0315"></polyline>
                <polyline id="Fill-128" fill="#FFFFFF" points="53.5531912 46.8005 51.4321912 44.6795 55.4871912 40.6235 57.6081912 42.7445 53.5531912 46.8005"></polyline>
                <polyline id="Fill-129" fill="#FFFFFF" points="60.5191912 53.7665 58.3981912 51.6455 62.4551912 47.5895 64.5761912 49.7105 60.5191912 53.7665"></polyline>
                <polyline id="Fill-130" fill="#FFFFFF" points="70.6841912 63.9335 68.5631912 61.8125 72.6201912 57.7565 74.7411912 59.8775 70.6841912 63.9335"></polyline>
                <polyline id="Fill-131" fill="#FFFFFF" points="77.6501912 70.8995 75.5291912 68.7785 79.5861912 64.7215 81.7071912 66.8425 77.6501912 70.8995"></polyline>
                <polyline id="Fill-132" fill="#FFFFFF" points="85.0941912 78.3425 82.9731912 76.2205 87.0301912 72.1645 89.1511912 74.2865 85.0941912 78.3425"></polyline>
                <polyline id="Fill-133" fill="#FFFFFF" points="92.0621912 85.3105 89.9401912 83.1895 93.9951912 79.1315 96.1181912 81.2525 92.0621912 85.3105"></polyline>
                <polyline id="Fill-134" fill="#00D2D4" points="16.5941912 87.5365 3.94219117 84.9725 77.6491912 11.2665 85.2561912 18.8755 16.5941912 87.5365"></polyline>
                <path d="M6.97919117,84.0575 L16.1021912,85.9065 L83.1351912,18.8755 L77.6491912,13.3885 L6.97919117,84.0575 Z M16.5941912,89.0365 C16.4951912,89.0365 16.3951912,89.0265 16.2961912,89.0065 L3.64419117,86.4425 C3.10319117,86.3335 2.66519117,85.9345 2.50619117,85.4055 C2.34719117,84.8775 2.49119117,84.3025 2.88219117,83.9125 L76.5891912,10.2065 C76.8701912,9.9255 77.2511912,9.7665 77.6491912,9.7665 C78.0471912,9.7665 78.4291912,9.9255 78.7101912,10.2065 L86.3171912,17.8145 C86.9021912,18.4005 86.9021912,19.3505 86.3161912,19.9355 L17.6541912,88.5965 C17.3701912,88.8815 16.9871912,89.0365 16.5941912,89.0365 L16.5941912,89.0365 Z" id="Fill-135" fill="#FFFFFF"></path>
                <polyline id="Fill-136" fill="#00D2D4" points="16.5941912 87.5365 19.1581912 100.1875 92.8631912 26.4815 85.2561912 18.8755 16.5941912 87.5365"></polyline>
                <path d="M18.2241912,88.0275 L20.0731912,97.1515 L90.7421912,26.4815 L85.2561912,20.9965 L18.2241912,88.0275 Z M19.1581912,101.6875 C19.0141912,101.6875 18.8681912,101.6675 18.7251912,101.6245 C18.1961912,101.4645 17.7981912,101.0275 17.6881912,100.4855 L15.1231912,87.8345 C15.0241912,87.3415 15.1771912,86.8315 15.5331912,86.4755 L84.1951912,17.8145 C84.7811912,17.2285 85.7301912,17.2285 86.3161912,17.8145 L93.9241912,25.4205 C94.2051912,25.7015 94.3631912,26.0835 94.3631912,26.4815 C94.3631912,26.8795 94.2051912,27.2605 93.9241912,27.5415 L20.2191912,101.2485 C19.9331912,101.5335 19.5501912,101.6875 19.1581912,101.6875 L19.1581912,101.6875 Z" id="Fill-137" fill="#FFFFFF"></path>
                <path d="M79.7701912,11.2665 L92.7851912,24.2805 L94.5141912,22.5515 L81.4981912,9.5375 L79.7701912,11.2665 Z M92.7851912,27.9025 C92.3871912,27.9025 92.0061912,27.7445 91.7251912,27.4635 L76.5891912,12.3275 C76.0031912,11.7415 76.0031912,10.7925 76.5881912,10.2065 L80.4371912,6.3555 C80.9991912,5.7945 81.9961912,5.7935 82.5581912,6.3555 L97.6951912,21.4905 C98.2811912,22.0765 98.2811912,23.0265 97.6961912,23.6125 L93.8461912,27.4635 C93.5651912,27.7445 93.1831912,27.9025 92.7851912,27.9025 L92.7851912,27.9025 Z" id="Fill-138" fill="#FFFFFF"></path>
                <path d="M83.6191912,7.4155 L96.6351912,20.4305 L99.0271912,18.0395 C100.161191,16.9045 100.131191,15.0265 98.9591912,13.8555 L90.1971912,5.0915 C89.0691912,3.9635 87.1051912,3.9315 86.0081912,5.0245 L83.6191912,7.4155 Z M96.6351912,24.0515 C96.2511912,24.0515 95.8671912,23.9055 95.5741912,23.6125 L80.4371912,8.4765 C79.8511912,7.8915 79.8511912,6.9415 80.4371912,6.3565 L83.8881912,2.9025 C84.9921912,1.8015 86.4661912,1.1965 88.0421912,1.1965 C89.6561912,1.1965 91.1751912,1.8265 92.3191912,2.9705 L101.080191,11.7335 C103.421191,14.0725 103.452191,17.8535 101.149191,20.1595 L97.6951912,23.6125 C97.4021912,23.9055 97.0181912,24.0515 96.6351912,24.0515 L96.6351912,24.0515 Z" id="Fill-139" fill="#FFFFFF"></path>
                <path d="M3.64019117,98.3395 L3.26819117,100.9435 L5.94219117,100.5615 L3.64019117,98.3395 Z M1.50019117,104.2115 C1.10519117,104.2115 0.723191167,104.0545 0.439191167,103.7715 C0.105191167,103.4375 -0.0518088327,102.9665 0.0151911673,102.4995 L1.08519117,95.0095 C1.16519117,94.4515 1.55119117,93.9845 2.08319117,93.8015 C2.61719117,93.6195 3.20619117,93.7505 3.61219117,94.1415 L10.2321912,100.5335 C10.6441912,100.9305 10.7941912,101.5295 10.6181912,102.0745 C10.4411912,102.6195 9.97019117,103.0165 9.40219117,103.0975 L1.71219117,104.1965 C1.64119117,104.2065 1.57019117,104.2115 1.50019117,104.2115 L1.50019117,104.2115 Z" id="Fill-140" fill="#FFFFFF"></path>
                <path d="M4.16319117,94.6745 L9.70419117,100.0235 L17.3721912,98.9275 L15.3221912,88.8145 L5.28619117,86.8325 L4.16319117,94.6745 Z M9.19019117,103.1125 C8.80419117,103.1125 8.43019117,102.9635 8.14819117,102.6915 L1.52819117,96.3005 C1.18219117,95.9665 1.01719117,95.4855 1.08519117,95.0085 L2.54019117,84.8415 C2.59919117,84.4335 2.82219117,84.0685 3.15819117,83.8305 C3.49319117,83.5925 3.91319117,83.5045 4.31619117,83.5825 L16.8841912,86.0645 C17.4781912,86.1815 17.9431912,86.6445 18.0641912,87.2385 L20.6281912,99.8895 C20.7101912,100.2945 20.6221912,100.7155 20.3841912,101.0515 C20.1461912,101.3895 19.7791912,101.6145 19.3701912,101.6735 L9.40319117,103.0975 C9.33219117,103.1075 9.26119117,103.1125 9.19019117,103.1125 L9.19019117,103.1125 Z" id="Fill-141" fill="#FFFFFF"></path>
                <polyline id="Fill-142" fill="#FFFFFF" points="17.6541912 88.5965 15.5331912 86.4755 84.1951912 17.8145 86.3161912 19.9355 17.6541912 88.5965"></polyline>
            </g>
        </g>
    </g>
</svg>