<?xml version="1.0" encoding="UTF-8"?>
<svg width="67px" height="67px" viewBox="0 0 67 67" version="1.1" xmlns="http://www.w3.org/2000/svg" xmlns:xlink="http://www.w3.org/1999/xlink">
    <!-- Generator: Sketch 51.1 (57501) - http://www.bohemiancoding.com/sketch -->
    <title>BigLogo(67x67)</title>
    <desc>Created with Sketch.</desc>
    <defs></defs>
    <g id="Symbols" stroke="none" stroke-width="1" fill="none" fill-rule="evenodd">
        <g id="•/build/elements/header/home_Wht_Sales" transform="translate(-204.000000, -4.000000)">
            <g id="•/build/elements/header/home_Trq">
                <g id="BigLogo(67x67)" transform="translate(204.000000, 4.000000)">
                    <path d="M33.3692289,0 C51.7954398,0 66.7388614,14.9426145 66.7388614,33.3692289 C66.7388614,51.7958434 51.7954398,66.7388614 33.3692289,66.7388614 C14.9430181,66.7388614 0,51.7958434 0,33.3692289 C0,14.9426145 14.9430181,0 33.3692289,0" id="Fill-1" fill="#FEFEFE"></path>
                    <path d="M5.4051241,33.3843241 C5.4051241,17.9214506 17.9208048,5.40576988 33.3554253,5.40576988 C48.8187024,5.40576988 61.3343831,17.9214506 61.3343831,33.3843241 C61.3343831,34.3388723 61.3065337,35.2922096 61.1943289,36.2459506 C58.0239373,48.6506373 46.7691482,57.8264084 33.3554253,57.8264084 C19.9691482,57.8264084 8.71597349,48.6506373 5.54517831,36.2459506 C5.43378072,35.2922096 5.4051241,34.3388723 5.4051241,33.3843241" id="Fill-3" fill="#F89C1C"></path>
                    <path d="M41.3548217,35.9936512 L33.3830325,28.025091 L32.9628699,27.6323741 C29.7916711,28.3604946 26.7891831,29.6524645 24.094653,31.3359404 L26.6479181,33.889609 C27.8547253,33.7778078 29.0893819,33.833103 30.2687434,33.9457114 C30.7179663,35.4051813 31.0267313,36.8925006 31.2515446,38.4355187 L35.0394663,42.2807536 L41.3548217,35.9936512 Z M37.0595566,29.4276512 L42.5051229,34.84335 L45.591159,31.7569102 C42.8405265,30.4100488 39.8376349,29.4841572 36.6950928,29.063591 L37.0595566,29.4276512 Z M24.3755687,33.9174584 L18.4270988,27.9681813 C16.7706651,27.7720247 15.1146349,27.6590127 13.402906,27.6590127 C10.2599602,27.6590127 7.20096627,27.9964343 4.28283373,28.6983199 C4.36678554,28.1368922 4.47939398,27.5754645 4.59200241,27.0422898 C9.41802048,24.5443199 14.8062735,23.0008982 20.5303337,22.6364343 L22.0192675,24.1507958 L24.038147,26.1446512 C28.331394,24.0955006 33.1307735,22.9447958 38.2098578,22.9447958 C37.930153,22.5811392 37.6488337,22.1868078 37.3683217,21.8231512 C36.4141771,21.7670488 35.4608398,21.7101392 34.479653,21.7101392 C31.1663819,21.7101392 27.9669301,22.1868078 24.9640386,23.1139102 L23.1401048,21.2895729 C21.8775988,21.1777717 20.5864361,21.0934163 19.2682313,21.0934163 C14.5532072,21.0090608 9.97864096,21.7383922 5.71283976,23.169609 C5.93805663,22.5811392 6.16206265,22.0475608 6.38647229,21.4857295 C9.78288795,19.0164163 13.5429602,17.0806813 17.5847554,15.760862 L16.7432193,14.8914765 C21.7105024,12.3382114 27.3780566,10.9340367 33.3555867,10.9340367 C36.9215205,10.9340367 40.3429602,11.4119163 43.5985145,12.3656572 C44.7766651,13.5434042 45.8999241,14.8075247 46.9380205,16.1265367 C47.2746349,15.8734705 47.6395024,15.6486572 48.0326229,15.3968018 C52.4941771,16.7150066 56.6485807,18.7920066 60.3517434,21.4857295 C60.5765566,22.0475608 60.8009663,22.5811392 61.0253759,23.169609 C57.6011108,22.0189042 53.9823036,21.3170187 50.2496771,21.1204584 C50.6415867,21.850597 51.0347072,22.5528861 51.3713217,23.3096633 C55.1883036,24.0393982 58.8087253,25.3027114 62.1482313,27.0422898 C62.2604361,27.5754645 62.372641,28.1368922 62.4574,28.6983199 C59.5094,27.9964343 56.4798699,27.6590127 53.3365205,27.6590127 L53.1678096,27.6590127 C53.4204723,28.3604946 53.6444783,29.063591 53.868888,29.7929223 C56.984388,30.326097 59.9872795,31.2241392 62.7936108,32.4297355 C62.8214602,32.7385006 62.8214602,33.0190127 62.8214602,33.3281813 L62.8214602,33.6095006 C61.3619904,33.4407898 59.8746711,33.356838 58.3595024,33.356838 C55.4405627,33.356838 52.6063819,33.6651994 49.8565566,34.2540729 C48.9585145,33.6651994 48.0326229,33.0763259 47.0788819,32.5427476 L41.5215145,38.1267536 L35.9084482,43.7398199 L36.4416229,57.5462596 C35.4321831,57.6588681 34.4223398,57.7153741 33.3555867,57.7153741 C32.3457434,57.7153741 31.3068398,57.6588681 30.3244422,57.5462596 L30.577912,51.709591 L30.6618639,49.4941512 L19.0999241,37.9310006 L18.8751108,37.95885 C16.7706651,38.0706512 14.7211108,38.3798199 12.7571229,38.8572958 C12.5327133,38.4072657 12.336153,37.95885 12.1678458,37.4813741 C13.5994663,36.7241934 15.1146349,36.0505608 16.685906,35.5177898 L15.0867855,33.9174584 C14.5810566,33.833103 14.0765386,33.7495548 13.5708096,33.6934524 C13.0093819,33.6095006 12.4205084,33.552591 11.859888,33.4968922 C10.7091831,33.4125367 9.55968916,33.356838 8.37911687,33.356838 C6.86435181,33.356838 5.37703253,33.4407898 3.91756265,33.6095006 L3.91756265,33.3281813 C3.91756265,33.0190127 3.91756265,32.7385006 3.94500843,32.4297355 C7.98680361,30.6909645 12.392659,29.6242114 17.0229241,29.3162536 L21.9337012,34.2266271 C22.7477916,34.0857657 23.5614783,33.9747717 24.3755687,33.9174584 Z M31.0267313,40.5678139 L29.7065084,39.2512235 C27.0696952,38.4355187 24.2625566,37.987103 21.3718699,37.9310006 L30.7458157,47.3041392 L31.0267313,40.5678139 Z" id="Fill-5" fill="#231F20"></path>
                    <path d="M5.62844398,36.1347548 C8.77179337,48.5386343 19.9971187,57.7156163 33.3555464,57.7156163 C46.7414199,57.7156163 57.9667452,48.5386343 61.1092873,36.1347548 C61.6703114,36.0503994 62.2325464,35.9934898 62.7661247,35.9373873 C61.4745584,51.0362006 48.8168054,62.8786524 33.3555464,62.8786524 C17.9209259,62.8786524 5.26398012,51.0362006 3.9736247,35.9373873 C4.50639578,35.9934898 5.06701627,36.0503994 5.62844398,36.1347548" id="Fill-7" fill="#00A9AC"></path>
                </g>
            </g>
        </g>
    </g>
</svg>