<?xml version="1.0" encoding="UTF-8"?>
<svg width="30px" height="30px" viewBox="0 0 30 30" version="1.1" xmlns="http://www.w3.org/2000/svg" xmlns:xlink="http://www.w3.org/1999/xlink">
    <!-- Generator: Sketch 52.6 (67491) - http://www.bohemiancoding.com/sketch -->
    <title>icon_youtube</title>
    <desc>Created with Sketch.</desc>
    <g id="UC2---Home-page" stroke="none" stroke-width="1" fill="none" fill-rule="evenodd">
        <g id="Footer_LandingPage" transform="translate(-1196.000000, -321.000000)" fill="#FFFFFF">
            <path d="M1218.5,336.56625 L1218.5,335.428125 C1218.5,334.214063 1218.35,333.000938 1218.35,333.000938 C1218.35,333.000938 1218.20375,331.966875 1217.75375,331.51125 C1217.18375,330.914062 1216.54437,330.91125 1216.25094,330.876562 C1214.15188,330.724688 1211.00281,330.724688 1211.00281,330.724688 L1210.99719,330.724688 C1210.99719,330.724688 1207.84812,330.724688 1205.74906,330.876562 C1205.45563,330.91125 1204.81625,330.914062 1204.24625,331.51125 C1203.79625,331.966875 1203.65,333.000938 1203.65,333.000938 C1203.65,333.000938 1203.5,334.214063 1203.5,335.428125 L1203.5,336.56625 C1203.5,337.780312 1203.65,338.994375 1203.65,338.994375 C1203.65,338.994375 1203.79625,340.0275 1204.24625,340.483125 C1204.81625,341.080312 1205.56625,341.061562 1205.9,341.124375 C1207.1,341.23875 1211,341.274375 1211,341.274375 C1211,341.274375 1214.15188,341.269687 1216.25094,341.117813 C1216.54437,341.083125 1217.18375,341.080312 1217.75375,340.483125 C1218.20375,340.0275 1218.35,338.994375 1218.35,338.994375 C1218.35,338.994375 1218.5,337.780312 1218.5,336.56625 Z M1211,321 C1219.28469,321 1226,327.715312 1226,336 C1226,344.28375 1219.28469,351 1211,351 C1202.71531,351 1196,344.28375 1196,336 C1196,327.715312 1202.71531,321 1211,321 Z M1209.45144,337.945312 L1209.4505,333.730312 L1213.50425,335.845312 L1209.45144,337.945312 Z" id="icon_youtube"></path>
        </g>
    </g>
</svg>