<?xml version="1.0" encoding="UTF-8"?>
<svg width="30px" height="30px" viewBox="0 0 30 30" version="1.1" xmlns="http://www.w3.org/2000/svg" xmlns:xlink="http://www.w3.org/1999/xlink">
    <!-- Generator: Sketch 52.6 (67491) - http://www.bohemiancoding.com/sketch -->
    <title>icon_instagram</title>
    <desc>Created with Sketch.</desc>
    <g id="UC2---Home-page" stroke="none" stroke-width="1" fill="none" fill-rule="evenodd">
        <g id="Footer_LandingPage" transform="translate(-1106.000000, -322.000000)" fill="#FFFFFF">
            <path d="M1121.01753,339.894813 C1119.42472,339.894813 1118.13284,338.606687 1118.13284,337.016687 C1118.13284,335.427625 1119.42472,334.1395 1121.01753,334.1395 C1122.61034,334.1395 1123.90222,335.427625 1123.90222,337.016687 C1123.90222,338.606687 1122.61034,339.894813 1121.01753,339.894813 Z M1124.33919,334.069375 C1124.10762,334.069375 1123.91919,333.881875 1123.91919,333.65125 L1123.91919,331.627187 C1123.91919,331.396562 1124.10762,331.209062 1124.33919,331.209062 L1126.367,331.209062 C1126.59856,331.209062 1126.787,331.396562 1126.787,331.627187 L1126.787,333.65125 C1126.787,333.881875 1126.59856,334.069375 1126.367,334.069375 L1124.33919,334.069375 Z M1128.5,342.720625 L1128.5,331.278437 C1128.5,330.295938 1127.70219,329.5 1126.71688,329.5 L1115.28312,329.5 C1114.29875,329.5 1113.5,330.295938 1113.5,331.278437 L1113.5,342.720625 C1113.5,343.703125 1114.29875,344.5 1115.28312,344.5 L1126.71688,344.5 C1127.70219,344.5 1128.5,343.703125 1128.5,342.720625 Z M1121,322 C1129.28469,322 1136,328.715312 1136,337 C1136,345.28375 1129.28469,352 1121,352 C1112.71531,352 1106,345.28375 1106,337 C1106,328.715312 1112.71531,322 1121,322 Z M1125.58044,337.017062 C1125.58044,336.600812 1125.52419,336.19675 1125.41825,335.813312 L1126.82169,335.813312 L1126.82169,342.336437 C1126.82169,342.568 1126.63419,342.7555 1126.40169,342.7555 L1115.63263,342.7555 C1115.40106,342.7555 1115.21356,342.568 1115.21356,342.336437 L1115.21356,335.813312 L1116.617,335.813312 C1116.51106,336.19675 1116.45481,336.600812 1116.45481,337.017062 C1116.45481,339.52675 1118.50138,341.569562 1121.01763,341.569562 C1123.53388,341.569562 1125.58044,339.52675 1125.58044,337.017062 Z" id="icon_instagram"></path>
        </g>
    </g>
</svg>