<?xml version="1.0" encoding="UTF-8"?>
<svg width="30px" height="30px" viewBox="0 0 30 30" version="1.1" xmlns="http://www.w3.org/2000/svg" xmlns:xlink="http://www.w3.org/1999/xlink">
    <!-- Generator: Sketch 52.6 (67491) - http://www.bohemiancoding.com/sketch -->
    <title>icon_linkedin</title>
    <desc>Created with Sketch.</desc>
    <g id="UC2---Home-page" stroke="none" stroke-width="1" fill="none" fill-rule="evenodd">
        <g id="Footer_LandingPage" transform="translate(-1151.000000, -321.000000)" fill="#FFFFFF">
            <path d="M1173.5,343.485937 L1170.39219,343.485937 L1170.39219,338.622187 C1170.39219,337.4625 1170.37156,335.970937 1168.77688,335.970937 C1167.15969,335.970937 1166.91313,337.234687 1166.91313,338.539687 L1166.91313,343.485937 L1163.80813,343.485937 L1163.80813,333.484687 L1166.7875,333.484687 L1166.7875,334.8525 L1166.83063,334.8525 C1167.245,334.065937 1168.25938,333.23625 1169.77156,333.23625 C1172.91875,333.23625 1173.5,335.307187 1173.5,338.000625 L1173.5,343.485937 Z M1160.30375,332.11875 C1159.30531,332.11875 1158.5,331.310625 1158.5,330.315937 C1158.5,329.32125 1159.30531,328.513125 1160.30375,328.513125 C1161.2975,328.513125 1162.10469,329.32125 1162.10469,330.315937 C1162.10469,331.310625 1161.2975,332.11875 1160.30375,332.11875 L1160.30375,332.11875 Z M1161.85812,343.485937 L1158.74656,343.485937 L1158.74656,333.484688 L1161.85812,333.484688 L1161.85812,343.485937 Z M1166,321 C1157.71531,321 1151,327.715312 1151,336 C1151,344.28375 1157.71531,351 1166,351 C1174.28469,351 1181,344.28375 1181,336 C1181,327.715312 1174.28469,321 1166,321 L1166,321 Z" id="icon_linkedin"></path>
        </g>
    </g>
</svg>