<?xml version="1.0" encoding="UTF-8"?>
<svg width="30px" height="30px" viewBox="0 0 30 30" version="1.1" xmlns="http://www.w3.org/2000/svg" xmlns:xlink="http://www.w3.org/1999/xlink">
    <!-- Generator: Sketch 52.6 (67491) - http://www.bohemiancoding.com/sketch -->
    <title>icon_facebook</title>
    <desc>Created with Sketch.</desc>
    <g id="UC2---Home-page" stroke="none" stroke-width="1" fill="none" fill-rule="evenodd">
        <g id="Footer_LandingPage" transform="translate(-1016.000000, -321.000000)" fill="#FFFFFF">
            <path d="M1034.89531,330.99 L1033.48344,330.990938 C1032.37625,330.990938 1032.16156,331.516875 1032.16156,332.288437 L1032.16156,333.990937 L1034.8025,333.990937 L1034.45844,336.658125 L1032.16156,336.658125 L1032.16156,343.5 L1029.40812,343.5 L1029.40812,336.658125 L1027.10562,336.658125 L1027.10562,333.990937 L1029.40812,333.990937 L1029.40812,332.025 C1029.40812,329.742188 1030.80219,328.5 1032.8375,328.5 C1033.8125,328.5 1034.65062,328.572187 1034.89531,328.605 L1034.89531,330.99 Z M1031,321 C1022.71625,321 1016,327.715312 1016,336 C1016,344.28375 1022.71625,351 1031,351 C1039.28469,351 1046,344.28375 1046,336 C1046,327.715312 1039.28469,321 1031,321 L1031,321 Z" id="icon_facebook"></path>
        </g>
    </g>
</svg>