<?xml version="1.0" encoding="UTF-8"?>
<svg width="30px" height="30px" viewBox="0 0 30 30" version="1.1" xmlns="http://www.w3.org/2000/svg" xmlns:xlink="http://www.w3.org/1999/xlink">
    <!-- Generator: Sketch 52.6 (67491) - http://www.bohemiancoding.com/sketch -->
    <title>icon_twitter</title>
    <desc>Created with Sketch.</desc>
    <g id="UC2---Home-page" stroke="none" stroke-width="1" fill="none" fill-rule="evenodd">
        <g id="Footer_LandingPage" transform="translate(-1061.000000, -321.000000)" fill="#FFFFFF">
            <path d="M1081.96438,332.940938 C1081.97,333.073125 1081.97375,333.205312 1081.97375,333.339375 C1081.97375,337.405312 1078.87812,342.094688 1073.2175,342.094688 C1071.47937,342.094688 1069.86219,341.585625 1068.5,340.712812 C1068.74094,340.740937 1068.98563,340.755 1069.23406,340.755 C1070.67594,340.755 1072.0025,340.26375 1073.05625,339.437813 C1071.70906,339.413437 1070.57281,338.52375 1070.18094,337.30125 C1070.36937,337.336875 1070.56156,337.355625 1070.76031,337.355625 C1071.04063,337.355625 1071.3125,337.318125 1071.57125,337.247813 C1070.16313,336.965625 1069.10281,335.721563 1069.10281,334.230937 L1069.10281,334.191562 C1069.51719,334.422188 1069.9925,334.560938 1070.49688,334.576875 C1069.67094,334.024688 1069.12719,333.0825 1069.12719,332.015625 C1069.12719,331.45125 1069.27906,330.9225 1069.54437,330.467812 C1071.06219,332.329688 1073.33,333.555 1075.8875,333.683437 C1075.835,333.458438 1075.80781,333.223125 1075.80781,332.982188 C1075.80781,331.2825 1077.18594,329.904375 1078.88469,329.904375 C1079.77062,329.904375 1080.57031,330.278437 1081.13094,330.876562 C1081.83219,330.73875 1082.49125,330.482812 1083.08562,330.130313 C1082.85594,330.848437 1082.3675,331.45125 1081.73281,331.832812 C1082.35531,331.757812 1082.94781,331.592812 1083.5,331.348125 C1083.0875,331.965 1082.56531,332.506875 1081.96438,332.940938 M1076,321 C1067.71531,321 1061,327.715312 1061,336 C1061,344.28375 1067.71531,351 1076,351 C1084.28469,351 1091,344.28375 1091,336 C1091,327.715312 1084.28469,321 1076,321" id="icon_twitter"></path>
        </g>
    </g>
</svg>