<?xml version="1.0" encoding="UTF-8"?>
<svg width="512px" height="512px" viewBox="0 0 512 512" version="1.1" xmlns="http://www.w3.org/2000/svg" xmlns:xlink="http://www.w3.org/1999/xlink">
    <!-- Generator: Sketch 53.1 (72631) - https://sketchapp.com -->
    <title>south-africa-1</title>
    <desc>Created with Sketch.</desc>
    <g id="Page-1" stroke="none" stroke-width="1" fill="none" fill-rule="evenodd">
        <g id="Artboard" transform="translate(-43.000000, -59.000000)" fill-rule="nonzero">
            <g id="south-africa-1" transform="translate(43.000000, 59.000000)">
                <circle id="Oval" cx="256" cy="256" r="256"></circle>
                <path d="M18.025625,350.540718 C-6.09480465,289.738458 -6.00890348,221.561989 18.2833285,160.812253 C81.737672,224.265751 113.464844,255.9925 113.464844,255.9925 C50.0105002,319.457721 18.1974273,350.973794 18.025625,350.540718 Z" id="Path" fill="#FFFFFF"></path>
                <path d="M509.833,222.609 L222.602,222.609 L74.978,74.984 C59.07,90.892 45.249,108.883 33.953,128.514 L161.192,256 L33.943,383.47 C45.239,403.106 59.066,421.103 74.978,437.015 L222.602,289.391 L509.833,289.391 C511.256,278.461 512,267.317 512,256 C512,244.683 511.256,233.539 509.833,222.609 Z" id="Path" fill="#FFFFFF"></path>
                <path d="M100.138,459.077 C143.307,492.259 197.344,512 256,512 C374.279,512 473.805,431.779 503.181,322.783 L236.433,322.783 L100.138,459.077 Z" id="Path" fill="#FFFFFF"></path>
                <path d="M503.181,189.217 C473.805,80.221 374.279,0 256,0 C197.344,0 143.307,19.741 100.138,52.923 L236.432,189.217 L503.181,189.217 Z" id="Path" fill="#FFFFFF"></path>
            </g>
        </g>
    </g>
</svg>