<?xml version="1.0" encoding="UTF-8"?>
<svg width="512px" height="512px" viewBox="0 0 512 512" version="1.1" xmlns="http://www.w3.org/2000/svg" xmlns:xlink="http://www.w3.org/1999/xlink">
    <!-- Generator: Sketch 53.1 (72631) - https://sketchapp.com -->
    <title>south-africa-2</title>
    <desc>Created with Sketch.</desc>
    <g id="Page-1" stroke="none" stroke-width="1" fill="none" fill-rule="evenodd">
        <g id="Artboard-Copy-3" transform="translate(-43.000000, -59.000000)" fill-rule="nonzero">
            <g id="south-africa-2" transform="translate(43.000000, 59.000000)">
                <circle id="Oval" cx="256" cy="256" r="256"></circle>
                <path d="M18.025625,350.540718 C-6.09480465,289.738458 -6.00890348,221.561989 18.2833285,160.812253 C81.737672,224.265751 113.464844,255.9925 113.464844,255.9925 C50.0105002,319.457721 18.1974273,350.973794 18.025625,350.540718 Z" id="Path" fill="#000000"></path>
                <path d="M509.833,222.609 L222.602,222.609 L74.978,74.984 C59.07,90.892 45.249,108.883 33.953,128.514 L161.192,256 L33.943,383.47 C45.239,403.106 59.066,421.103 74.978,437.015 L222.602,289.391 L509.833,289.391 C511.256,278.461 512,267.317 512,256 C512,244.683 511.256,233.539 509.833,222.609 Z" id="Path" fill="#000000"></path>
                <path d="M107.747483,458.538614 C150.407188,489.825743 201.893215,507 256,507 C367.934533,507 465.219157,433.088146 496.566633,327.783 L238.504057,327.783 L107.747483,458.538614 Z" id="Path" stroke="#000000" stroke-width="10"></path>
                <path d="M496.566633,184.217 C465.219157,78.9118535 367.934533,5 256,5 C201.893208,5 150.407174,22.1742621 107.747466,53.4613983 L238.503068,184.217 L496.566633,184.217 Z" id="Path" stroke="#000000" stroke-width="10"></path>
            </g>
        </g>
    </g>
</svg>