<?xml version="1.0" encoding="UTF-8"?>
<svg width="700px" height="397px" viewBox="0 0 700 397" version="1.1" xmlns="http://www.w3.org/2000/svg" xmlns:xlink="http://www.w3.org/1999/xlink">
    <!-- Generator: Sketch 55 (78076) - https://sketchapp.com -->
    <title>slide3_cloud2</title>
    <desc>Created with Sketch.</desc>
    <defs>
        <filter x="-19.7%" y="-47.1%" width="139.5%" height="194.2%" filterUnits="objectBoundingBox" id="filter-1">
            <feGaussianBlur stdDeviation="35" in="SourceGraphic"></feGaussianBlur>
        </filter>
    </defs>
    <g id="eBucks-Opt-1-Shapes" stroke="none" stroke-width="1" fill="none" fill-rule="evenodd" opacity="0.620744978">
        <g id="slide3_cloud2" transform="translate(85.000000, 87.146499)" fill="#FFFFFF" fill-rule="nonzero">
            <path d="M488.062201,176.31074 C478.233245,181.535716 468.68773,187.27856 459.465812,193.515113 C454.55656,196.648767 449.647309,199.659532 444.676692,202.424521 C433.036169,208.98042 420.682069,214.175784 407.857307,217.908456 C394.668645,221.631988 380.992175,223.330787 367.294618,222.94688 C349.375851,222.455327 331.334352,220.489112 313.354219,218.768675 C294.578054,216.545783 275.681567,215.499194 256.775098,215.635021 C250.638533,215.635021 244.07241,215.635021 237.87448,215.635021 C208.173509,214.160361 179.822583,207.770165 148.035181,201.564302 C138.462141,199.720976 128.643638,197.87765 118.702404,196.095769 C88.0195832,190.627236 56.3549122,185.896033 25.6107257,183.49971 L24.8129724,182.516603 C14.9354799,170.098537 7.63344578,155.8309 3.33499785,140.550221 C-3.66959773,116.7729 0.48380509,91.097329 14.6262759,70.7496211 C23.6070422,68.8725009 32.6816683,67.477773 41.8112551,66.5714162 C49.0805282,66.517338 56.3308162,67.3216652 63.4119609,68.9677396 C75.1005103,72.3717204 87.2773835,73.7841348 99.4335925,73.1459446 C111.706721,71.6098398 116.493241,67.0015255 118.702404,60.8571065 C123.673021,47.3393847 114.9591,26.8170252 141.100863,17.8461735 C144.353242,16.6787338 148.157912,15.5727384 152.453507,14.4052988 C185.527192,6.21094147 219.35296,1.43427098 253.399987,0.150246701 C286.353337,-0.70997196 317.097523,1.9935724 332.623031,11.6403103 C348.148538,21.2870481 344.896159,26.3254717 362.569464,33.6373303 L368.706028,36.1565421 C384.476998,43.1611798 400.554796,50.657371 416.816691,57.6005645 C436.453696,66.0184185 453.636076,75.4808238 471.432112,84.6360081 C489.019719,94.1830876 507.296375,102.398598 526.108898,109.213684 C526.968017,120.027862 528.011233,130.657707 529.115815,141.287551 C530.036299,150.319847 531.01815,159.352143 532,168.445883 C516.886153,165.839318 501.337977,168.622438 488.062201,176.31074 L488.062201,176.31074 Z" id="Path" filter="url(#filter-1)"></path>
        </g>
    </g>
</svg>