<?xml version="1.0" encoding="UTF-8"?>
<svg width="162px" height="75px" viewBox="0 0 162 75" version="1.1" xmlns="http://www.w3.org/2000/svg" xmlns:xlink="http://www.w3.org/1999/xlink">
    <!-- Generator: Sketch 55 (78076) - https://sketchapp.com -->
    <title>slide2_next</title>
    <desc>Created with Sketch.</desc>
    <defs>
        <rect id="path-1" x="0" y="0" width="162" height="43"></rect>
    </defs>
    <g id="eBucks-Opt-1-Shapes" stroke="none" stroke-width="1" fill="none" fill-rule="evenodd">
        <g id="slide2_next" transform="translate(-0.132871, -2.895918)">
            <g id="Group-3">
                <mask id="mask-2" fill="white">
                    <use xlink:href="#path-1"></use>
                </mask>
                <g id="Rectangle" transform="translate(81.000000, 21.500000) scale(1, -1) translate(-81.000000, -21.500000) "></g>
                <path d="M37.085,5.16 L37.085,53.67 C37.085,54.79 36.455,55.28 35.685,55.28 C34.915,55.28 34.285,54.79 34.285,53.67 L34.285,30.36 L7.615,30.36 L7.615,53.67 C7.615,54.79 6.985,55.28 6.215,55.28 C5.445,55.28 4.815,54.79 4.815,53.67 L4.815,5.16 C4.815,4.04 5.445,3.55 6.215,3.55 C6.985,3.55 7.615,4.04 7.615,5.16 L7.615,27.7 L34.285,27.7 L34.285,5.16 C34.285,4.04 34.915,3.55 35.685,3.55 C36.455,3.55 37.085,4.04 37.085,5.16 Z M78.385,38.69 L78.385,5.16 C78.385,4.04 79.015,3.55 79.785,3.55 C80.555,3.55 81.185,4.04 81.185,5.16 L81.185,39.46 C81.185,50.73 74.465,55.7 65.365,55.7 C56.335,55.7 49.615,50.73 49.615,39.46 L49.615,5.16 C49.615,4.04 50.245,3.55 51.015,3.55 C51.785,3.55 52.415,4.04 52.415,5.16 L52.415,38.69 C52.415,49.33 57.945,53.04 65.365,53.04 C72.855,53.04 78.385,49.47 78.385,38.69 Z M125.635,31.76 L125.635,41.49 C125.635,50.59 118.915,55.7 109.465,55.7 C99.805,55.7 93.015,50.73 93.015,39.39 L93.015,19.72 C93.015,8.38 99.805,3.41 109.465,3.41 C118.215,3.41 122.765,6.91 125.425,13.21 C126.125,14.96 125.005,15.59 124.305,15.59 C123.675,15.59 123.185,15.31 122.905,14.54 C120.805,8.66 117.025,6.07 109.465,6.07 C101.415,6.07 95.815,9.64 95.815,20.42 L95.815,38.69 C95.815,49.47 101.415,53.04 109.465,53.04 C117.025,53.04 122.765,49.47 122.765,41.56 L122.765,32.53 L111.635,32.53 C110.585,32.53 110.165,31.97 110.165,31.2 C110.165,30.43 110.585,29.87 111.635,29.87 L123.815,29.87 C124.795,29.87 125.635,30.36 125.635,31.76 Z M139.565,52.34 L160.075,52.34 C161.125,52.34 161.545,52.9 161.545,53.67 C161.545,54.44 161.125,55 160.075,55 L138.585,55 C137.605,55 136.765,54.51 136.765,53.11 L136.765,5.72 C136.765,4.32 137.605,3.83 138.585,3.83 L160.075,3.83 C161.125,3.83 161.545,4.39 161.545,5.16 C161.545,5.93 161.125,6.49 160.075,6.49 L139.565,6.49 L139.565,27.42 L158.255,27.42 C159.305,27.42 159.725,27.98 159.725,28.75 C159.725,29.52 159.305,30.08 158.255,30.08 L139.565,30.08 L139.565,52.34 Z" id="HUGE" fill="#000000" fill-rule="nonzero" mask="url(#mask-2)"></path>
            </g>
            <path d="M5.3085,77.5 L1.6415,77.5 C1.1095,77.5 0.7675,77.291 0.7675,76.721 L0.7675,64.39 C0.7675,63.801 1.1095,63.611 1.6415,63.611 L5.3085,63.611 C8.0635,63.611 9.6215,65.492 9.6215,68.057 L9.6215,73.054 C9.6215,75.619 8.0445,77.5 5.3085,77.5 Z M8.3865,72.978 L8.3865,68.133 C8.3865,66.195 7.4365,64.694 5.0045,64.694 L2.0215,64.694 L2.0215,76.417 L5.0045,76.417 C7.4745,76.417 8.3865,74.916 8.3865,72.978 Z M18.7445,67.601 L18.7445,77.025 C18.7445,77.424 18.5355,77.576 18.1555,77.576 C17.7945,77.576 17.5665,77.424 17.5665,77.025 L17.5665,67.601 C17.5665,67.202 17.7945,67.05 18.1555,67.05 C18.5355,67.05 18.7445,67.202 18.7445,67.601 Z M18.7445,63.744 L18.7445,65.055 C18.7445,65.454 18.5355,65.606 18.1555,65.606 C17.7945,65.606 17.5665,65.454 17.5665,65.055 L17.5665,63.744 C17.5665,63.345 17.7945,63.193 18.1555,63.193 C18.5355,63.193 18.7445,63.345 18.7445,63.744 Z M27.0695,75.125 C27.4115,75.942 28.0385,76.664 29.3685,76.664 C30.6985,76.664 31.5725,75.923 31.5725,74.878 C31.5725,72.047 26.1955,73.244 26.1955,69.672 C26.1955,68.076 27.5065,66.955 29.4255,66.955 C31.0975,66.955 32.1235,67.772 32.5605,69.007 C32.6935,69.368 32.5035,69.558 32.1995,69.653 C31.8005,69.767 31.5915,69.653 31.4965,69.368 C31.1925,68.475 30.5845,67.981 29.3685,67.981 C28.1335,67.981 27.3355,68.589 27.3355,69.653 C27.3355,72.199 32.7125,71.059 32.7125,74.859 C32.7125,76.417 31.4205,77.671 29.3685,77.671 C27.7535,77.671 26.4995,76.911 26.0055,75.524 C25.8725,75.163 26.0435,74.954 26.3475,74.84 C26.6705,74.707 26.9365,74.802 27.0695,75.125 Z M46.6805,69.178 C46.8135,69.539 46.6425,69.748 46.3195,69.881 C45.9965,69.995 45.7115,69.938 45.5975,69.577 C45.3315,68.741 44.5525,67.981 43.2605,67.981 C41.7595,67.981 40.5815,68.912 40.5815,71.04 L40.5815,73.567 C40.5815,75.657 41.6455,76.645 43.2415,76.645 C44.5525,76.645 45.2745,76.018 45.5975,75.22 C45.7305,74.878 45.9965,74.802 46.3195,74.935 C46.6235,75.049 46.7945,75.258 46.6615,75.619 C46.1675,76.892 45.0465,77.671 43.1845,77.671 C41.0375,77.671 39.4225,76.36 39.4225,73.719 L39.4225,70.869 C39.4225,68.266 41.1135,66.955 43.2795,66.955 C45.0085,66.955 46.2245,67.886 46.6805,69.178 Z M61.5225,70.869 L61.5225,73.757 C61.5225,76.151 60.0405,77.671 57.4755,77.671 C54.9295,77.671 53.4475,76.227 53.4475,73.833 L53.4475,70.869 C53.4475,68.437 54.9865,66.955 57.4755,66.955 C60.0975,66.955 61.5225,68.437 61.5225,70.869 Z M60.3445,73.586 L60.3445,71.021 C60.3445,68.95 59.2995,67.981 57.4755,67.981 C55.7655,67.981 54.6445,68.931 54.6445,71.021 L54.6445,73.662 C54.6445,75.752 55.7085,76.645 57.4755,76.645 C59.2425,76.645 60.3445,75.695 60.3445,73.586 Z M75.2055,77.044 L75.2055,75.885 C74.4645,76.74 73.2105,77.614 71.6145,77.614 C69.9235,77.614 68.8595,76.531 68.8595,74.574 L68.8595,67.601 C68.8595,67.202 69.0685,67.05 69.4485,67.05 C69.8095,67.05 70.0375,67.202 70.0375,67.601 L70.0375,74.479 C70.0375,75.828 70.7595,76.588 71.8615,76.588 C73.0585,76.588 74.2555,75.961 75.1675,74.821 L75.1675,67.601 C75.1675,67.202 75.3765,67.05 75.7565,67.05 C76.1175,67.05 76.3455,67.202 76.3455,67.601 L76.3455,77.044 C76.3455,77.424 76.1175,77.576 75.7755,77.576 C75.4145,77.576 75.2055,77.424 75.2055,77.044 Z M84.2715,77.025 L84.2715,67.582 C84.2715,67.202 84.4995,67.05 84.8415,67.05 C85.2025,67.05 85.4115,67.202 85.4115,67.582 L85.4115,68.798 C86.1905,67.734 87.3495,66.955 88.7935,66.955 C90.8075,66.955 91.7195,68.304 91.7195,70.299 L91.7195,77.025 C91.7195,77.424 91.5105,77.576 91.1305,77.576 C90.7695,77.576 90.5415,77.424 90.5415,77.025 L90.5415,70.698 C90.5415,69.14 90.1425,68 88.4705,68 C87.2165,68 86.0195,68.969 85.4495,70.109 L85.4495,77.025 C85.4495,77.424 85.2405,77.576 84.8605,77.576 C84.4995,77.576 84.2715,77.424 84.2715,77.025 Z M102.7235,76.474 L103.2365,76.474 C103.5595,76.474 103.6925,76.664 103.6925,76.987 C103.6925,77.31 103.5595,77.5 103.2365,77.5 L102.7235,77.5 C100.8615,77.5 99.8735,76.987 99.8735,74.631 L99.8735,68.209 L98.7145,68.209 C98.3915,68.209 98.2585,68.019 98.2585,67.696 C98.2585,67.373 98.3915,67.183 98.7145,67.183 L99.8735,67.183 L99.8735,65.112 C99.8735,64.713 100.1015,64.561 100.4625,64.561 C100.8425,64.561 101.0515,64.713 101.0515,65.112 L101.0515,67.183 L102.9325,67.183 C103.2555,67.183 103.3885,67.373 103.3885,67.696 C103.3885,68.019 103.2555,68.209 102.9325,68.209 L101.0515,68.209 L101.0515,74.764 C101.0515,76.17 101.6405,76.474 102.7235,76.474 Z M111.2575,75.125 C111.5995,75.942 112.2265,76.664 113.5565,76.664 C114.8865,76.664 115.7605,75.923 115.7605,74.878 C115.7605,72.047 110.3835,73.244 110.3835,69.672 C110.3835,68.076 111.6945,66.955 113.6135,66.955 C115.2855,66.955 116.3115,67.772 116.7485,69.007 C116.8815,69.368 116.6915,69.558 116.3875,69.653 C115.9885,69.767 115.7795,69.653 115.6845,69.368 C115.3805,68.475 114.7725,67.981 113.5565,67.981 C112.3215,67.981 111.5235,68.589 111.5235,69.653 C111.5235,72.199 116.9005,71.059 116.9005,74.859 C116.9005,76.417 115.6085,77.671 113.5565,77.671 C111.9415,77.671 110.6875,76.911 110.1935,75.524 C110.0605,75.163 110.2315,74.954 110.5355,74.84 C110.8585,74.707 111.1245,74.802 111.2575,75.125 Z M140.6375,70.869 L140.6375,73.757 C140.6375,76.151 139.1555,77.671 136.5905,77.671 C134.0445,77.671 132.5625,76.227 132.5625,73.833 L132.5625,70.869 C132.5625,68.437 134.1015,66.955 136.5905,66.955 C139.2125,66.955 140.6375,68.437 140.6375,70.869 Z M139.4595,73.586 L139.4595,71.021 C139.4595,68.95 138.4145,67.981 136.5905,67.981 C134.8805,67.981 133.7595,68.931 133.7595,71.021 L133.7595,73.662 C133.7595,75.752 134.8235,76.645 136.5905,76.645 C138.3575,76.645 139.4595,75.695 139.4595,73.586 Z M148.1265,77.025 L148.1265,67.582 C148.1265,67.202 148.3545,67.05 148.6965,67.05 C149.0575,67.05 149.2665,67.202 149.2665,67.582 L149.2665,68.798 C150.0455,67.734 151.2045,66.955 152.6485,66.955 C154.6625,66.955 155.5745,68.304 155.5745,70.299 L155.5745,77.025 C155.5745,77.424 155.3655,77.576 154.9855,77.576 C154.6245,77.576 154.3965,77.424 154.3965,77.025 L154.3965,70.698 C154.3965,69.14 153.9975,68 152.3255,68 C151.0715,68 149.8745,68.969 149.3045,70.109 L149.3045,77.025 C149.3045,77.424 149.0955,77.576 148.7155,77.576 C148.3545,77.576 148.1265,77.424 148.1265,77.025 Z" id="Discountson" fill="#000000" fill-rule="nonzero"></path>
        </g>
    </g>
</svg>