<?xml version="1.0" encoding="UTF-8"?>
<svg width="86px" height="148px" viewBox="0 0 86 148" version="1.1" xmlns="http://www.w3.org/2000/svg" xmlns:xlink="http://www.w3.org/1999/xlink">
    <!-- Generator: Sketch 55 (78076) - https://sketchapp.com -->
    <title>slide1_e</title>
    <desc>Created with Sketch.</desc>
    <defs>
        <linearGradient x1="34.201158%" y1="0%" x2="64.0036717%" y2="100%" id="linearGradient-1">
            <stop stop-color="#FFFFFF" offset="0%"></stop>
            <stop stop-color="#F0F0F0" offset="100%"></stop>
        </linearGradient>
        <path d="M71.3294118,60.7256775 L71.2282353,60.7256775 L71.4305882,60.7256775 L71.3294118,60.7256775 L71.4305882,60.7256775 C78.7152941,60.7256775 80.9411765,64.5412513 80.9411765,73.1764972 C80.9411765,81.6109234 78.7152941,85.4264972 71.4305882,85.4264972 L29.1388235,85.4264972 L29.1388235,122.176497 L76.0847059,122.176497 C83.7741176,122.176497 86,126.192891 86,135.028956 C86,143.664202 83.7741176,147.680596 76.0847059,147.680596 L18.4141176,147.680596 C5.66588235,147.680596 0,144.6683 0,133.422399 L0,14.9387923 C0,3.69289065 5.66588235,0.68059557 18.4141176,0.68059557 L76.0847059,0.68059557 C83.7741176,0.68059557 86,4.69698901 86,13.5330546 C86,22.1683005 83.7741176,26.1846939 76.0847059,26.1846939 L29.1388235,26.1846939 L29.1388235,60.7256775 L71.3294118,60.7256775 Z" id="path-2"></path>
        <filter x="-5.2%" y="-3.1%" width="110.5%" height="106.1%" filterUnits="objectBoundingBox" id="filter-3">
            <feGaussianBlur stdDeviation="3.5" in="SourceAlpha" result="shadowBlurInner1"></feGaussianBlur>
            <feOffset dx="2" dy="2" in="shadowBlurInner1" result="shadowOffsetInner1"></feOffset>
            <feComposite in="shadowOffsetInner1" in2="SourceAlpha" operator="arithmetic" k2="-1" k3="1" result="shadowInnerInner1"></feComposite>
            <feColorMatrix values="0 0 0 0 0   0 0 0 0 0   0 0 0 0 0  0 0 0 0.7 0" type="matrix" in="shadowInnerInner1"></feColorMatrix>
        </filter>
    </defs>
    <g id="eBucks-Opt-1-Shapes" stroke="none" stroke-width="1" fill="none" fill-rule="evenodd">
        <g id="slide1_e" fill-rule="nonzero">
            <use fill="url(#linearGradient-1)" xlink:href="#path-2"></use>
            <use fill="black" fill-opacity="1" filter="url(#filter-3)" xlink:href="#path-2"></use>
        </g>
    </g>
</svg>