<?xml version="1.0" encoding="UTF-8"?>
<svg width="126px" height="153px" viewBox="0 0 126 153" version="1.1" xmlns="http://www.w3.org/2000/svg" xmlns:xlink="http://www.w3.org/1999/xlink">
    <!-- Generator: Sketch 55 (78076) - https://sketchapp.com -->
    <title>slide4_&amp;</title>
    <desc>Created with Sketch.</desc>
    <defs>
        <linearGradient x1="16.3627799%" y1="0%" x2="165.649524%" y2="89.1814281%" id="linearGradient-1">
            <stop stop-color="#FEC702" offset="0%"></stop>
            <stop stop-color="#F47D1E" offset="100%"></stop>
        </linearGradient>
        <path d="M73.6,119.8 L43.6,85.6 C34.4,92.4 29,97.4 29,109.4 C29,118.4 36.2,128.8 52.8,128.8 C62.4,128.8 69.2,125.2 73.6,119.8 Z M48.8,54.6 C56.6,49 61.6,45 61.6,36.2 C61.6,26.6 56.4,23.4 49.4,23.4 C42.8,23.4 38.4,28.2 38.4,36.2 C38.4,42.4 41.6,47 48.8,54.6 Z M95,145.2 L90.2,139.4 C78,149 67.8,152.4 52,152.4 C19.8,152.4 0.6,135 0.6,111.8 C0.6,92 10,80.4 28.6,68 C14.8,53.4 11.4,44.8 11.4,34 C11.4,14.4 29.8,-1.8189894e-12 49.4,-1.8189894e-12 C73.6,-1.8189894e-12 88.6,15.4 88.6,34.2 C88.6,51 78.4,60.2 64.2,71.4 L87.2,98.4 C88.4,93.8 88.6,89.2 88.6,85 L88.6,82.6 C88.6,75.4 93.8,73.6 102,73.6 C110.6,73.6 115.8,75.4 115.8,82.6 L115.8,83.6 C115.8,101.2 110.4,113.8 105.6,120 L121.8,138.8 C124.4,141.8 125.6,143.6 125.6,146.2 C125.6,150.4 121.2,151.4 114.4,151.4 C104.2,151.4 100.4,151.4 95,145.2 Z" id="path-2"></path>
        <filter x="-1.6%" y="-1.3%" width="103.2%" height="102.6%" filterUnits="objectBoundingBox" id="filter-3">
            <feGaussianBlur stdDeviation="1.5" in="SourceAlpha" result="shadowBlurInner1"></feGaussianBlur>
            <feOffset dx="0" dy="1" in="shadowBlurInner1" result="shadowOffsetInner1"></feOffset>
            <feComposite in="shadowOffsetInner1" in2="SourceAlpha" operator="arithmetic" k2="-1" k3="1" result="shadowInnerInner1"></feComposite>
            <feColorMatrix values="0 0 0 0 0   0 0 0 0 0   0 0 0 0 0  0 0 0 0.5 0" type="matrix" in="shadowInnerInner1"></feColorMatrix>
        </filter>
    </defs>
    <g id="eBucks-Opt-1-Shapes" stroke="none" stroke-width="1" fill="none" fill-rule="evenodd">
        <g id="slide4_&amp;" fill-rule="nonzero">
            <use fill="url(#linearGradient-1)" xlink:href="#path-2"></use>
            <use fill="black" fill-opacity="1" filter="url(#filter-3)" xlink:href="#path-2"></use>
        </g>
    </g>
</svg>