<?xml version="1.0" encoding="UTF-8"?>
<svg width="107px" height="148px" viewBox="0 0 107 148" version="1.1" xmlns="http://www.w3.org/2000/svg" xmlns:xlink="http://www.w3.org/1999/xlink">
    <!-- Generator: Sketch 55 (78076) - https://sketchapp.com -->
    <title>slide1_d</title>
    <desc>Created with Sketch.</desc>
    <defs>
        <linearGradient x1="25.5434097%" y1="0%" x2="71.6776687%" y2="100%" id="linearGradient-1">
            <stop stop-color="#FFFFFF" offset="0%"></stop>
            <stop stop-color="#F0F0F0" offset="100%"></stop>
        </linearGradient>
        <path d="M0,133.422399 L0,14.9387923 C0,3.69289065 5.63157895,0.68059557 18.3026316,0.68059557 L52.8966165,0.68059557 C90.306391,0.68059557 107,22.3691202 107,50.4838743 L107,99.8855136 C107,126.79535 90.306391,147.680596 52.8966165,147.680596 L18.3026316,147.680596 C5.63157895,147.680596 0,144.6683 0,133.422399 Z M78,94.1659512 L78,54.4002608 C78,35.9232734 70.1680328,25.6805956 49.0819672,25.6805956 L29,25.6805956 L29,121.680596 L49.0819672,121.680596 C70.1680328,121.680596 78,112.442102 78,94.1659512 Z" id="path-2"></path>
        <filter x="-4.2%" y="-3.1%" width="108.4%" height="106.1%" filterUnits="objectBoundingBox" id="filter-3">
            <feGaussianBlur stdDeviation="3.5" in="SourceAlpha" result="shadowBlurInner1"></feGaussianBlur>
            <feOffset dx="2" dy="2" in="shadowBlurInner1" result="shadowOffsetInner1"></feOffset>
            <feComposite in="shadowOffsetInner1" in2="SourceAlpha" operator="arithmetic" k2="-1" k3="1" result="shadowInnerInner1"></feComposite>
            <feColorMatrix values="0 0 0 0 0   0 0 0 0 0   0 0 0 0 0  0 0 0 0.7 0" type="matrix" in="shadowInnerInner1"></feColorMatrix>
        </filter>
    </defs>
    <g id="eBucks-Opt-1-Shapes" stroke="none" stroke-width="1" fill="none" fill-rule="evenodd">
        <g id="slide1_d" fill-rule="nonzero">
            <use fill="url(#linearGradient-1)" xlink:href="#path-2"></use>
            <use fill="black" fill-opacity="1" filter="url(#filter-3)" xlink:href="#path-2"></use>
        </g>
    </g>
</svg>