<?xml version="1.0" encoding="UTF-8"?>
<svg width="217px" height="78px" viewBox="0 0 217 78" version="1.1" xmlns="http://www.w3.org/2000/svg" xmlns:xlink="http://www.w3.org/1999/xlink">
    <!-- Generator: Sketch 55.1 (78136) - https://sketchapp.com -->
    <title>slide4_next</title>
    <desc>Created with Sketch.</desc>
    <defs>
        <rect id="path-1" x="0" y="0" width="213" height="39"></rect>
    </defs>
    <g id="Page-1" stroke="none" stroke-width="1" fill="none" fill-rule="evenodd">
        <g id="slide4_next">
            <g id="Heading" transform="translate(4.000000, 0.000000)">
                <g id="APPLY-Clipped">
                    <mask id="mask-2" fill="white">
                        <use xlink:href="#path-1"></use>
                    </mask>
                    <g id="path-1"></g>
                    <path d="M25.605,31.61 L17.415,3.75 L17.345,3.75 L8.805,31.61 L25.605,31.61 Z M19.445,1.23 L34.075,49.32 C34.495,50.65 33.585,51.28 32.815,51.28 C32.185,51.28 31.625,51 31.415,50.3 L26.445,34.2 L7.965,34.2 L2.925,50.3 C2.715,51 2.155,51.28 1.525,51.28 C0.755,51.28 -0.155,50.65 0.265,49.32 L15.455,1.23 C15.805,0.04 16.575,-0.45 17.415,-0.45 C18.185,-0.45 19.095,-0.03 19.445,1.23 Z M76.115,15.3 L76.115,13.55 C76.115,6.27 73.175,2.49 64.145,2.49 L54.065,2.49 L54.065,26.85 L64.145,26.85 C73.175,26.85 76.115,22.58 76.115,15.3 Z M53.085,-0.17 L64.355,-0.17 C75.065,-0.17 78.915,5.08 78.915,13.76 L78.915,15.16 C78.915,23.84 75.065,29.51 64.355,29.51 L54.065,29.51 L54.065,49.67 C54.065,50.79 53.435,51.28 52.665,51.28 C51.895,51.28 51.265,50.79 51.265,49.67 L51.265,1.72 C51.265,0.32 52.105,-0.17 53.085,-0.17 Z M122.705,15.3 L122.705,13.55 C122.705,6.27 119.765,2.49 110.735,2.49 L100.655,2.49 L100.655,26.85 L110.735,26.85 C119.765,26.85 122.705,22.58 122.705,15.3 Z M99.675,-0.17 L110.945,-0.17 C121.655,-0.17 125.505,5.08 125.505,13.76 L125.505,15.16 C125.505,23.84 121.655,29.51 110.945,29.51 L100.655,29.51 L100.655,49.67 C100.655,50.79 100.025,51.28 99.255,51.28 C98.485,51.28 97.855,50.79 97.855,49.67 L97.855,1.72 C97.855,0.32 98.695,-0.17 99.675,-0.17 Z M147.245,48.34 L168.805,48.34 C169.855,48.34 170.275,48.9 170.275,49.67 C170.275,50.44 169.855,51 168.805,51 L146.265,51 C145.285,51 144.445,50.51 144.445,49.11 L144.445,1.16 C144.445,0.04 145.075,-0.45 145.845,-0.45 C146.615,-0.45 147.245,0.04 147.245,1.16 L147.245,48.34 Z M198.035,29.3 L198.035,49.67 C198.035,50.79 197.405,51.28 196.635,51.28 C195.865,51.28 195.235,50.79 195.235,49.67 L195.235,29.37 L180.465,1.79 C179.835,0.74 180.535,-0.45 181.655,-0.45 C182.285,-0.45 182.635,-0.17 182.985,0.39 L196.705,26.29 L210.635,0.39 C210.915,-0.17 211.335,-0.45 211.965,-0.45 C213.085,-0.45 213.785,0.74 213.155,1.79 L198.035,29.3 Z" id="APPLY" fill="#000000" fill-rule="nonzero" mask="url(#mask-2)"></path>
                </g>
            </g>
            <path d="M6.846,71.315 L6.846,68.408 C3.179,68.275 1.83,68.826 1.83,70.517 L1.83,70.65 C1.83,71.79 2.723,72.645 3.958,72.645 C5.193,72.645 6.124,72.056 6.846,71.315 Z M8.024,66.793 L8.024,73.082 C8.024,73.481 7.815,73.633 7.435,73.633 C7.074,73.633 6.865,73.481 6.865,73.082 L6.865,72.322 C6.219,72.949 5.212,73.671 3.692,73.671 C2.039,73.671 0.652,72.55 0.652,70.669 L0.652,70.593 C0.652,68.199 2.286,67.306 6.846,67.515 L6.846,66.774 C6.846,64.817 6.067,63.981 4.528,63.981 C3.293,63.981 2.647,64.646 2.267,65.52 C2.115,65.862 1.868,65.919 1.583,65.786 C1.279,65.653 1.108,65.463 1.26,65.102 C1.811,63.848 2.799,62.955 4.585,62.955 C6.922,62.955 8.024,64.38 8.024,66.793 Z M15.741,73.025 L15.741,63.582 C15.741,63.202 15.969,63.05 16.311,63.05 C16.672,63.05 16.881,63.202 16.881,63.582 L16.881,64.798 C17.66,63.734 18.819,62.955 20.263,62.955 C22.277,62.955 23.189,64.304 23.189,66.299 L23.189,73.025 C23.189,73.424 22.98,73.576 22.6,73.576 C22.239,73.576 22.011,73.424 22.011,73.025 L22.011,66.698 C22.011,65.14 21.612,64 19.94,64 C18.686,64 17.489,64.969 16.919,66.109 L16.919,73.025 C16.919,73.424 16.71,73.576 16.33,73.576 C15.969,73.576 15.741,73.424 15.741,73.025 Z M37.233,70.023 L37.233,66.698 C37.233,65.026 35.979,63.981 34.364,63.981 C32.825,63.981 31.723,65.026 31.723,67.192 L31.723,69.624 C31.723,71.714 32.844,72.645 34.535,72.645 C36.093,72.645 37.233,71.41 37.233,70.023 Z M37.233,64.475 L37.233,59.687 C37.233,59.288 37.442,59.136 37.822,59.136 C38.183,59.136 38.411,59.288 38.411,59.687 L38.411,73.082 C38.411,73.481 38.183,73.633 37.822,73.633 C37.442,73.633 37.252,73.481 37.252,73.082 L37.252,72.056 C36.796,72.797 35.77,73.671 34.193,73.671 C32.027,73.671 30.526,72.284 30.526,69.814 L30.526,66.945 C30.526,64.494 32.008,62.955 34.136,62.955 C35.713,62.955 36.758,63.696 37.233,64.475 Z M55.688,71.125 C56.03,71.942 56.657,72.664 57.987,72.664 C59.317,72.664 60.191,71.923 60.191,70.878 C60.191,68.047 54.814,69.244 54.814,65.672 C54.814,64.076 56.125,62.955 58.044,62.955 C59.716,62.955 60.742,63.772 61.179,65.007 C61.312,65.368 61.122,65.558 60.818,65.653 C60.419,65.767 60.21,65.653 60.115,65.368 C59.811,64.475 59.203,63.981 57.987,63.981 C56.752,63.981 55.954,64.589 55.954,65.653 C55.954,68.199 61.331,67.059 61.331,70.859 C61.331,72.417 60.039,73.671 57.987,73.671 C56.372,73.671 55.118,72.911 54.624,71.524 C54.491,71.163 54.662,70.954 54.966,70.84 C55.289,70.707 55.555,70.802 55.688,71.125 Z M71.708,72.474 L72.221,72.474 C72.544,72.474 72.677,72.664 72.677,72.987 C72.677,73.31 72.544,73.5 72.221,73.5 L71.708,73.5 C69.846,73.5 68.858,72.987 68.858,70.631 L68.858,64.209 L67.699,64.209 C67.376,64.209 67.243,64.019 67.243,63.696 C67.243,63.373 67.376,63.183 67.699,63.183 L68.858,63.183 L68.858,61.112 C68.858,60.713 69.086,60.561 69.447,60.561 C69.827,60.561 70.036,60.713 70.036,61.112 L70.036,63.183 L71.917,63.183 C72.24,63.183 72.373,63.373 72.373,63.696 C72.373,64.019 72.24,64.209 71.917,64.209 L70.036,64.209 L70.036,70.764 C70.036,72.17 70.625,72.474 71.708,72.474 Z M85.372,71.315 L85.372,68.408 C81.705,68.275 80.356,68.826 80.356,70.517 L80.356,70.65 C80.356,71.79 81.249,72.645 82.484,72.645 C83.719,72.645 84.65,72.056 85.372,71.315 Z M86.55,66.793 L86.55,73.082 C86.55,73.481 86.341,73.633 85.961,73.633 C85.6,73.633 85.391,73.481 85.391,73.082 L85.391,72.322 C84.745,72.949 83.738,73.671 82.218,73.671 C80.565,73.671 79.178,72.55 79.178,70.669 L79.178,70.593 C79.178,68.199 80.812,67.306 85.372,67.515 L85.372,66.774 C85.372,64.817 84.593,63.981 83.054,63.981 C81.819,63.981 81.173,64.646 80.793,65.52 C80.641,65.862 80.394,65.919 80.109,65.786 C79.805,65.653 79.634,65.463 79.786,65.102 C80.337,63.848 81.325,62.955 83.111,62.955 C85.448,62.955 86.55,64.38 86.55,66.793 Z M98.428,64.209 C96.927,64.209 95.711,65.558 95.445,66.584 L95.445,73.025 C95.445,73.424 95.236,73.576 94.856,73.576 C94.495,73.576 94.267,73.424 94.267,73.025 L94.267,63.601 C94.267,63.221 94.495,63.069 94.837,63.069 C95.198,63.069 95.407,63.221 95.407,63.601 L95.407,65.349 C95.977,64.114 97.364,62.974 98.561,62.974 C98.903,62.974 98.979,63.221 98.979,63.411 C98.979,64.076 98.713,64.209 98.428,64.209 Z M109.014,72.474 L109.527,72.474 C109.85,72.474 109.983,72.664 109.983,72.987 C109.983,73.31 109.85,73.5 109.527,73.5 L109.014,73.5 C107.152,73.5 106.164,72.987 106.164,70.631 L106.164,64.209 L105.005,64.209 C104.682,64.209 104.549,64.019 104.549,63.696 C104.549,63.373 104.682,63.183 105.005,63.183 L106.164,63.183 L106.164,61.112 C106.164,60.713 106.392,60.561 106.753,60.561 C107.133,60.561 107.342,60.713 107.342,61.112 L107.342,63.183 L109.223,63.183 C109.546,63.183 109.679,63.373 109.679,63.696 C109.679,64.019 109.546,64.209 109.223,64.209 L107.342,64.209 L107.342,70.764 C107.342,72.17 107.931,72.474 109.014,72.474 Z M146.649,71.315 L146.649,68.408 C142.982,68.275 141.633,68.826 141.633,70.517 L141.633,70.65 C141.633,71.79 142.526,72.645 143.761,72.645 C144.996,72.645 145.927,72.056 146.649,71.315 Z M147.827,66.793 L147.827,73.082 C147.827,73.481 147.618,73.633 147.238,73.633 C146.877,73.633 146.668,73.481 146.668,73.082 L146.668,72.322 C146.022,72.949 145.015,73.671 143.495,73.671 C141.842,73.671 140.455,72.55 140.455,70.669 L140.455,70.593 C140.455,68.199 142.089,67.306 146.649,67.515 L146.649,66.774 C146.649,64.817 145.87,63.981 144.331,63.981 C143.096,63.981 142.45,64.646 142.07,65.52 C141.918,65.862 141.671,65.919 141.386,65.786 C141.082,65.653 140.911,65.463 141.063,65.102 C141.614,63.848 142.602,62.955 144.388,62.955 C146.725,62.955 147.827,64.38 147.827,66.793 Z M131.681,67.8 L131.681,66.964 C131.681,65.045 130.693,63.981 128.945,63.981 C127.463,63.981 126.304,64.95 126.304,66.831 L126.304,67.8 L131.681,67.8 Z M132.65,71.752 C132.118,72.968 130.921,73.671 129.059,73.671 C126.513,73.671 125.107,72.113 125.107,69.738 L125.107,66.793 C125.107,64.437 126.76,62.955 128.964,62.955 C131.32,62.955 132.859,64.342 132.859,67.021 L132.859,67.99 C132.859,68.522 132.555,68.769 132.004,68.769 L126.304,68.769 L126.304,69.681 C126.304,71.448 127.178,72.645 129.059,72.645 C130.446,72.645 131.187,72.151 131.586,71.334 C131.757,70.992 131.985,70.916 132.308,71.049 C132.612,71.163 132.802,71.391 132.65,71.752 Z M159.338,64.209 C157.837,64.209 156.621,65.558 156.355,66.584 L156.355,73.025 C156.355,73.424 156.146,73.576 155.766,73.576 C155.405,73.576 155.177,73.424 155.177,73.025 L155.177,63.601 C155.177,63.221 155.405,63.069 155.747,63.069 C156.108,63.069 156.317,63.221 156.317,63.601 L156.317,65.349 C156.887,64.114 158.274,62.974 159.471,62.974 C159.813,62.974 159.889,63.221 159.889,63.411 C159.889,64.076 159.623,64.209 159.338,64.209 Z M166.314,73.025 L166.314,63.582 C166.314,63.202 166.542,63.05 166.884,63.05 C167.245,63.05 167.454,63.202 167.454,63.582 L167.454,64.798 C168.233,63.734 169.392,62.955 170.836,62.955 C172.85,62.955 173.762,64.304 173.762,66.299 L173.762,73.025 C173.762,73.424 173.553,73.576 173.173,73.576 C172.812,73.576 172.584,73.424 172.584,73.025 L172.584,66.698 C172.584,65.14 172.185,64 170.513,64 C169.259,64 168.062,64.969 167.492,66.109 L167.492,73.025 C167.492,73.424 167.283,73.576 166.903,73.576 C166.542,73.576 166.314,73.424 166.314,73.025 Z M182.714,63.601 L182.714,73.025 C182.714,73.424 182.505,73.576 182.125,73.576 C181.764,73.576 181.536,73.424 181.536,73.025 L181.536,63.601 C181.536,63.202 181.764,63.05 182.125,63.05 C182.505,63.05 182.714,63.202 182.714,63.601 Z M182.714,59.744 L182.714,61.055 C182.714,61.454 182.505,61.606 182.125,61.606 C181.764,61.606 181.536,61.454 181.536,61.055 L181.536,59.744 C181.536,59.345 181.764,59.193 182.125,59.193 C182.505,59.193 182.714,59.345 182.714,59.744 Z M190.64,73.025 L190.64,63.582 C190.64,63.202 190.868,63.05 191.21,63.05 C191.571,63.05 191.78,63.202 191.78,63.582 L191.78,64.798 C192.559,63.734 193.718,62.955 195.162,62.955 C197.176,62.955 198.088,64.304 198.088,66.299 L198.088,73.025 C198.088,73.424 197.879,73.576 197.499,73.576 C197.138,73.576 196.91,73.424 196.91,73.025 L196.91,66.698 C196.91,65.14 196.511,64 194.839,64 C193.585,64 192.388,64.969 191.818,66.109 L191.818,73.025 C191.818,73.424 191.609,73.576 191.229,73.576 C190.868,73.576 190.64,73.424 190.64,73.025 Z M213.462,62.917 C213.785,62.917 213.918,63.126 213.918,63.449 C213.918,63.772 213.785,63.962 213.462,63.962 C212.949,63.962 212.493,63.981 212.037,64.019 C212.531,64.551 212.816,65.254 212.816,66.128 L212.816,66.356 C212.816,68.313 211.353,69.453 209.111,69.453 C208.598,69.453 208.142,69.396 207.724,69.263 C207.363,69.415 207.059,69.681 207.059,70.042 C207.059,70.555 207.61,70.726 208.37,70.859 L210.517,71.201 C212.778,71.581 213.614,72.379 213.614,74.336 C213.614,76.103 212.227,77.566 209.301,77.566 C206.489,77.566 205.026,76.426 205.026,74.507 C205.026,73.082 205.729,72.056 206.983,71.581 C206.413,71.315 206.033,70.916 206.033,70.308 C206.033,69.643 206.489,69.206 206.983,68.978 C206.014,68.465 205.425,67.553 205.425,66.337 L205.425,66.261 C205.425,64.095 206.945,62.955 209.111,62.955 C210.08,62.955 210.916,63.164 211.543,63.582 C212.094,63.221 212.683,62.917 213.462,62.917 Z M210.251,72.227 L208.256,71.904 L207.933,71.847 C206.717,72.246 206.147,73.196 206.147,74.317 C206.147,75.761 207.173,76.597 209.32,76.597 C211.448,76.597 212.474,75.78 212.474,74.336 C212.474,73.158 212.132,72.531 210.251,72.227 Z M211.695,66.261 C211.695,64.665 210.688,63.905 209.111,63.905 C207.553,63.905 206.527,64.665 206.527,66.261 C206.527,67.838 207.553,68.503 209.111,68.503 C210.707,68.503 211.695,67.857 211.695,66.261 Z" id="andstartaerning" fill="#000000" fill-rule="nonzero"></path>
        </g>
    </g>
</svg>