<?xml version="1.0" encoding="UTF-8"?>
<svg width="188px" height="77px" viewBox="0 0 188 77" version="1.1" xmlns="http://www.w3.org/2000/svg" xmlns:xlink="http://www.w3.org/1999/xlink">
    <!-- Generator: Sketch 55 (78076) - https://sketchapp.com -->
    <title>slide3_next</title>
    <desc>Created with Sketch.</desc>
    <defs>
        <rect id="path-1" x="0" y="0" width="188" height="40"></rect>
    </defs>
    <g id="eBucks-Opt-1-Shapes" stroke="none" stroke-width="1" fill="none" fill-rule="evenodd">
        <g id="slide3_next" transform="translate(0.000000, 0.146499)">
            <g id="Group">
                <mask id="mask-2" fill="white">
                    <use xlink:href="#path-1"></use>
                </mask>
                <g id="Rectangle" transform="translate(94.000000, 20.000000) scale(1, -1) translate(-94.000000, -20.000000) "></g>
                <path d="M14.578526,50.0399683 C20.9321847,50.0279498 25.815,46.598083 25.815,39.82 C25.815,33.52 22.315,30.93 13.985,27.01 C5.375,22.95 0.755,19.31 0.755,12.66 C0.755,5.59 5.725,0.41 14.475,0.41 C20.005,0.41 25.675,3 28.055,9.58 C28.685,11.33 27.635,11.96 26.935,11.96 C26.305,11.96 25.815,11.68 25.535,10.91 C23.645,5.31 19.305,3.07 14.125,3.07 C7.265,3.07 3.555,7.06 3.555,12.59 C3.555,16.86 5.235,19.73 15.105,24.35 C23.365,28.2 28.615,31.63 28.615,39.47 C28.615,47.8 22.665,52.7 14.685,52.7 C6.075,52.7 1.245,48.29 -0.295,43.18 C-0.855,41.43 0.125,40.8 0.825,40.8 C1.455,40.8 2.085,41.08 2.295,41.85 C3.62264117,46.6714337 7.74035925,50.0280771 14.578526,50.0399683 L14.578526,50.0399683 Z M62.915,16.3 L62.915,14.55 C62.915,7.27 59.975,3.49 50.945,3.49 L40.865,3.49 L40.865,27.85 L50.945,27.85 C59.975,27.85 62.915,23.58 62.915,16.3 Z M39.885,0.83 L51.155,0.83 C61.865,0.83 65.715,6.08 65.715,14.76 L65.715,16.16 C65.715,24.84 61.865,30.51 51.155,30.51 L40.865,30.51 L40.865,50.67 C40.865,51.79 40.235,52.28 39.465,52.28 C38.695,52.28 38.065,51.79 38.065,50.67 L38.065,2.72 C38.065,1.32 38.905,0.83 39.885,0.83 Z M78.455,49.34 L98.965,49.34 C100.015,49.34 100.435,49.9 100.435,50.67 C100.435,51.44 100.015,52 98.965,52 L77.475,52 C76.495,52 75.655,51.51 75.655,50.11 L75.655,2.72 C75.655,1.32 76.495,0.83 77.475,0.83 L98.965,0.83 C100.015,0.83 100.435,1.39 100.435,2.16 C100.435,2.93 100.015,3.49 98.965,3.49 L78.455,3.49 L78.455,24.42 L97.145,24.42 C98.195,24.42 98.615,24.98 98.615,25.75 C98.615,26.52 98.195,27.08 97.145,27.08 L78.455,27.08 L78.455,49.34 Z M138.445,50.11 L113.035,3.91 L112.965,3.91 C113.105,8.32 113.105,12.17 113.105,16.58 L113.105,50.67 C113.105,51.79 112.475,52.28 111.705,52.28 C110.935,52.28 110.305,51.79 110.305,50.67 L110.305,3.35 C110.305,1.53 111.285,0.55 112.685,0.55 C113.945,0.55 114.645,1.18 115.485,2.72 L140.825,48.43 L140.895,48.43 C140.755,44.09 140.755,40.1 140.755,35.62 L140.755,2.16 C140.755,1.04 141.385,0.55 142.155,0.55 C142.925,0.55 143.555,1.04 143.555,2.16 L143.555,49.48 C143.555,51.3 142.575,52.28 141.175,52.28 C139.915,52.28 139.285,51.65 138.445,50.11 Z M159.585,49.34 L171.065,49.34 C179.115,49.34 185.135,45.77 185.135,34.99 L185.135,17.84 C185.135,7.06 179.115,3.49 171.065,3.49 L159.585,3.49 L159.585,49.34 Z M156.785,50.11 L156.785,2.72 C156.785,1.32 157.625,0.83 158.605,0.83 L171.065,0.83 C180.725,0.83 187.935,5.8 187.935,17.14 L187.935,35.69 C187.935,47.03 180.725,52 171.065,52 L158.605,52 C157.625,52 156.785,51.51 156.785,50.11 Z" id="SPEND" fill="#000000" fill-rule="nonzero" mask="url(#mask-2)"></path>
            </g>
            <path d="M8.325,74.044 L8.325,68.724 L4.354,61.352 C4.107,60.896 4.392,60.554 4.81,60.554 C5.133,60.554 5.323,60.668 5.475,60.934 L8.971,67.546 L12.467,60.934 C12.619,60.668 12.809,60.554 13.132,60.554 C13.55,60.554 13.816,60.934 13.569,61.39 L9.579,68.705 L9.579,74.044 C9.579,74.481 9.351,74.633 8.952,74.633 C8.572,74.633 8.325,74.481 8.325,74.044 Z M26.986,67.869 L26.986,70.757 C26.986,73.151 25.504,74.671 22.939,74.671 C20.393,74.671 18.911,73.227 18.911,70.833 L18.911,67.869 C18.911,65.437 20.45,63.955 22.939,63.955 C25.561,63.955 26.986,65.437 26.986,67.869 Z M25.808,70.586 L25.808,68.021 C25.808,65.95 24.763,64.981 22.939,64.981 C21.229,64.981 20.108,65.931 20.108,68.021 L20.108,70.662 C20.108,72.752 21.172,73.645 22.939,73.645 C24.706,73.645 25.808,72.695 25.808,70.586 Z M40.669,74.044 L40.669,72.885 C39.928,73.74 38.674,74.614 37.078,74.614 C35.387,74.614 34.323,73.531 34.323,71.574 L34.323,64.601 C34.323,64.202 34.532,64.05 34.912,64.05 C35.273,64.05 35.501,64.202 35.501,64.601 L35.501,71.479 C35.501,72.828 36.223,73.588 37.325,73.588 C38.522,73.588 39.719,72.961 40.631,71.821 L40.631,64.601 C40.631,64.202 40.84,64.05 41.22,64.05 C41.581,64.05 41.809,64.202 41.809,64.601 L41.809,74.044 C41.809,74.424 41.581,74.576 41.239,74.576 C40.878,74.576 40.669,74.424 40.669,74.044 Z M53.896,65.209 C52.395,65.209 51.179,66.558 50.913,67.584 L50.913,74.025 C50.913,74.424 50.704,74.576 50.324,74.576 C49.963,74.576 49.735,74.424 49.735,74.025 L49.735,64.601 C49.735,64.221 49.963,64.069 50.305,64.069 C50.666,64.069 50.875,64.221 50.875,64.601 L50.875,66.349 C51.445,65.114 52.832,63.974 54.029,63.974 C54.371,63.974 54.447,64.221 54.447,64.411 C54.447,65.076 54.181,65.209 53.896,65.209 Z M75.961,68.8 L75.961,67.964 C75.961,66.045 74.973,64.981 73.225,64.981 C71.743,64.981 70.584,65.95 70.584,67.831 L70.584,68.8 L75.961,68.8 Z M76.93,72.752 C76.398,73.968 75.201,74.671 73.339,74.671 C70.793,74.671 69.387,73.113 69.387,70.738 L69.387,67.793 C69.387,65.437 71.04,63.955 73.244,63.955 C75.6,63.955 77.139,65.342 77.139,68.021 L77.139,68.99 C77.139,69.522 76.835,69.769 76.284,69.769 L70.584,69.769 L70.584,70.681 C70.584,72.448 71.458,73.645 73.339,73.645 C74.726,73.645 75.467,73.151 75.866,72.334 C76.037,71.992 76.265,71.916 76.588,72.049 C76.892,72.163 77.082,72.391 76.93,72.752 Z M85.901,73.417 L88.675,73.417 C90.518,73.417 91.601,72.847 91.601,70.548 C91.601,68.914 90.594,67.907 88.751,67.907 L85.901,67.907 L85.901,73.417 Z M91.297,64.43 L91.297,64.126 C91.297,62.758 90.575,61.694 88.447,61.694 L85.901,61.694 L85.901,66.824 L88.694,66.824 C90.1,66.824 91.297,66.121 91.297,64.43 Z M84.647,73.721 L84.647,61.39 C84.647,60.801 84.989,60.611 85.521,60.611 L88.675,60.611 C91.183,60.611 92.513,61.903 92.513,63.955 L92.513,64.449 C92.513,65.874 91.639,67.09 90.423,67.337 C91.715,67.565 92.855,68.743 92.855,70.51 L92.855,71.004 C92.855,72.98 91.563,74.5 88.96,74.5 L85.521,74.5 C84.989,74.5 84.647,74.291 84.647,73.721 Z M106.519,74.044 L106.519,72.885 C105.778,73.74 104.524,74.614 102.928,74.614 C101.237,74.614 100.173,73.531 100.173,71.574 L100.173,64.601 C100.173,64.202 100.382,64.05 100.762,64.05 C101.123,64.05 101.351,64.202 101.351,64.601 L101.351,71.479 C101.351,72.828 102.073,73.588 103.175,73.588 C104.372,73.588 105.569,72.961 106.481,71.821 L106.481,64.601 C106.481,64.202 106.69,64.05 107.07,64.05 C107.431,64.05 107.659,64.202 107.659,64.601 L107.659,74.044 C107.659,74.424 107.431,74.576 107.089,74.576 C106.728,74.576 106.519,74.424 106.519,74.044 Z M122.406,66.178 C122.539,66.539 122.368,66.748 122.045,66.881 C121.722,66.995 121.437,66.938 121.323,66.577 C121.057,65.741 120.278,64.981 118.986,64.981 C117.485,64.981 116.307,65.912 116.307,68.04 L116.307,70.567 C116.307,72.657 117.371,73.645 118.967,73.645 C120.278,73.645 121,73.018 121.323,72.22 C121.456,71.878 121.722,71.802 122.045,71.935 C122.349,72.049 122.52,72.258 122.387,72.619 C121.893,73.892 120.772,74.671 118.91,74.671 C116.763,74.671 115.148,73.36 115.148,70.719 L115.148,67.869 C115.148,65.266 116.839,63.955 119.005,63.955 C120.734,63.955 121.95,64.886 122.406,66.178 Z M132.783,68.211 L136.317,73.835 C136.564,74.215 136.431,74.576 135.861,74.576 C135.538,74.576 135.31,74.538 135.044,74.12 L131.89,69.047 L130.693,70.301 L130.693,74.025 C130.693,74.424 130.484,74.576 130.104,74.576 C129.743,74.576 129.515,74.424 129.515,74.025 L129.515,60.687 C129.515,60.288 129.743,60.136 130.104,60.136 C130.484,60.136 130.693,60.288 130.693,60.687 L130.693,68.933 L134.721,64.487 C135.025,64.126 135.196,64.05 135.557,64.05 C136.146,64.05 136.222,64.449 135.956,64.753 L132.783,68.211 Z M143.464,72.125 C143.806,72.942 144.433,73.664 145.763,73.664 C147.093,73.664 147.967,72.923 147.967,71.878 C147.967,69.047 142.59,70.244 142.59,66.672 C142.59,65.076 143.901,63.955 145.82,63.955 C147.492,63.955 148.518,64.772 148.955,66.007 C149.088,66.368 148.898,66.558 148.594,66.653 C148.195,66.767 147.986,66.653 147.891,66.368 C147.587,65.475 146.979,64.981 145.763,64.981 C144.528,64.981 143.73,65.589 143.73,66.653 C143.73,69.199 149.107,68.059 149.107,71.859 C149.107,73.417 147.815,74.671 145.763,74.671 C144.148,74.671 142.894,73.911 142.4,72.524 C142.267,72.163 142.438,71.954 142.742,71.84 C143.065,71.707 143.331,71.802 143.464,72.125 Z M173.699,71.118 L173.699,68.914 C170.564,68.838 169.88,69.427 169.88,70.567 L169.88,70.681 C169.88,71.612 170.545,72.22 171.571,72.22 C172.578,72.22 173.262,71.726 173.699,71.118 Z M171.856,64.734 C173.908,64.734 174.763,65.855 174.763,67.812 L174.763,71.042 C174.763,71.536 175.105,72.239 176.055,72.239 C176.986,72.239 177.651,71.46 177.651,70.244 L177.651,67.109 C177.651,64.525 176.131,62.739 171.97,62.739 C167.961,62.739 166.213,65.057 166.213,67.831 L166.213,70.206 C166.213,72.847 167.676,75.222 171.59,75.222 C173.566,75.222 174.744,74.766 175.542,74.462 C175.846,74.348 176.036,74.5 176.131,74.766 C176.226,75.032 176.15,75.222 175.865,75.336 C175.276,75.583 173.68,76.172 171.609,76.172 C166.593,76.172 165.111,72.98 165.111,70.301 L165.111,67.717 C165.111,64.335 167.695,61.77 171.97,61.77 C176.473,61.77 178.62,63.765 178.62,67.033 L178.62,70.111 C178.62,71.707 177.822,73.094 176.017,73.094 C174.478,73.094 174.003,71.973 174.003,71.973 C173.452,72.619 172.616,73.151 171.381,73.151 C170.07,73.151 168.835,72.239 168.835,70.7 L168.835,70.472 C168.835,68.857 169.994,67.926 173.699,68.078 L173.699,67.831 C173.699,66.292 173.091,65.627 171.837,65.627 C170.811,65.627 170.279,66.14 169.956,66.881 C169.842,67.166 169.633,67.204 169.386,67.09 C169.139,66.976 168.987,66.824 169.12,66.52 C169.576,65.475 170.431,64.734 171.856,64.734 Z" id="YoureBucks@" fill="#000000" fill-rule="nonzero"></path>
        </g>
    </g>
</svg>