<?xml version="1.0" encoding="UTF-8"?>
<svg width="99px" height="150px" viewBox="0 0 99 150" version="1.1" xmlns="http://www.w3.org/2000/svg" xmlns:xlink="http://www.w3.org/1999/xlink">
    <!-- Generator: Sketch 55 (78076) - https://sketchapp.com -->
    <title>slide1_p</title>
    <desc>Created with Sketch.</desc>
    <defs>
        <linearGradient x1="29.622032%" y1="0%" x2="68.0624867%" y2="100%" id="linearGradient-1">
            <stop stop-color="#FFFFFF" offset="0%"></stop>
            <stop stop-color="#F0F0F0" offset="100%"></stop>
        </linearGradient>
        <path d="M16.7693878,0.68059557 L47.277551,0.68059557 C82.6346939,0.68059557 99,19.0283628 99,46.4492018 L99,54.9174021 C99,82.338241 82.4326531,100.484384 46.8734694,100.484384 L29.0938776,100.484384 L29.0938776,138.389662 C29.0938776,147.26111 24.6489796,149.680596 14.5469388,149.680596 C4.44489796,149.680596 0,147.26111 0,138.389662 L0,13.7861436 C0,3.50332899 5.25306122,0.68059557 16.7693878,0.68059557 Z M70,53.2978795 L70,49.4666038 C70,33.5365626 64.2885572,26.6805956 44.9104478,26.6805956 L29,26.6805956 L29,75.6805956 L44.9104478,75.6805956 C64.2885572,75.6805956 70,69.0262746 70,53.2978795 Z" id="path-2"></path>
        <filter x="-4.5%" y="-3.0%" width="109.1%" height="106.0%" filterUnits="objectBoundingBox" id="filter-3">
            <feGaussianBlur stdDeviation="3.5" in="SourceAlpha" result="shadowBlurInner1"></feGaussianBlur>
            <feOffset dx="2" dy="2" in="shadowBlurInner1" result="shadowOffsetInner1"></feOffset>
            <feComposite in="shadowOffsetInner1" in2="SourceAlpha" operator="arithmetic" k2="-1" k3="1" result="shadowInnerInner1"></feComposite>
            <feColorMatrix values="0 0 0 0 0   0 0 0 0 0   0 0 0 0 0  0 0 0 0.7 0" type="matrix" in="shadowInnerInner1"></feColorMatrix>
        </filter>
    </defs>
    <g id="eBucks-Opt-1-Shapes" stroke="none" stroke-width="1" fill="none" fill-rule="evenodd">
        <g id="slide1_p" fill-rule="nonzero">
            <use fill="url(#linearGradient-1)" xlink:href="#path-2"></use>
            <use fill="black" fill-opacity="1" filter="url(#filter-3)" xlink:href="#path-2"></use>
        </g>
    </g>
</svg>