<?xml version="1.0" encoding="UTF-8"?>
<svg width="271px" height="104px" viewBox="0 0 271 104" version="1.1" xmlns="http://www.w3.org/2000/svg" xmlns:xlink="http://www.w3.org/1999/xlink">
    <!-- Generator: Sketch 55 (78076) - https://sketchapp.com -->
    <title>slide3_40</title>
    <desc>Created with Sketch.</desc>
    <defs>
        <linearGradient x1="3.84029523%" y1="42.7771953%" x2="88.3177569%" y2="56.7919681%" id="linearGradient-1">
            <stop stop-color="#FFFFFF" offset="0%"></stop>
            <stop stop-color="#FEFEFE" offset="100%"></stop>
        </linearGradient>
        <path d="M42.5395947,94.6042939 L42.5395947,80.462659 L8.60563443,80.462659 C4.33048983,80.462659 2.3265158,78.4424255 0.723336573,73.7285472 C-0.345449578,69.9574445 -0.479047847,67.6678465 2.05931926,64.0314261 L44.9443635,4.23251287 C48.150722,-0.21200095 51.3570805,0.461410235 56.3002164,4.23251287 C60.9761558,8.00361551 62.044942,10.6972602 58.9721818,15.0070918 L24.5038284,63.4926972 L42.5395947,63.4926972 L42.5395947,54.0649406 C42.5395947,48.1389221 45.4787566,46.5227353 52.1586701,46.5227353 C58.8385835,46.5227353 61.7777454,48.1389221 61.7777454,54.0649406 L61.7777454,63.4926972 L66.4536848,63.4926972 C71.530419,63.4926972 73,66.1863419 73,72.1123603 C73,77.9036965 71.530419,80.462659 66.4536848,80.462659 L61.7777454,80.462659 L61.7777454,94.6042939 C61.7777454,100.530312 58.8385835,102.146499 52.1586701,102.146499 C45.4787566,102.146499 42.5395947,100.530312 42.5395947,94.6042939 Z M161,35.6861817 L161,68.471896 C161,89.3845944 151.54409,103.146499 124.932458,103.146499 C98.4559099,103.146499 89,89.3845944 89,68.3369754 L89,35.6861817 C89,14.7734833 98.4559099,1.14649917 124.932458,1.14649917 C151.54409,1.14649917 161,14.7734833 161,35.6861817 Z M141,66.1385469 L141,38.1544515 C141,25.446698 138.57551,18.1464992 124.432653,18.1464992 C112.579592,18.1464992 108,25.446698 108,38.1544515 L108,66.003358 C108,78.7111115 112.579592,86.1464992 124.432653,86.1464992 C138.57551,86.1464992 141,78.7111115 141,66.1385469 Z M214,16.8274643 L214,34.3288048 C214,45.6773303 204.694079,51.1464992 193.365132,51.1464992 C182.171053,51.1464992 173,45.6773303 173,34.3288048 L173,16.8274643 C173,5.7523973 182.171053,0.146499175 193.5,0.146499175 C204.828947,0.146499175 214,5.7523973 214,16.8274643 Z M271,69.2835959 L271,86.4206927 C271,97.799725 261.694079,103.146499 250.365132,103.146499 C239.171053,103.146499 230,97.799725 230,86.4206927 L230,69.2835959 C230,58.0416605 239.171053,52.1464992 250.365132,52.1464992 C261.828947,52.1464992 271,58.0416605 271,69.2835959 Z M199,33.6830845 L199,16.6099138 C199,13.331865 196.85567,11.1464992 192.43299,11.1464992 C188.278351,11.1464992 186,13.4684504 186,16.8830845 L186,33.6830845 C186,36.9611333 188.14433,39.1464992 192.43299,39.1464992 C196.85567,39.1464992 199,37.0977187 199,33.6830845 Z M256,86.709606 L256,69.855237 C256,66.5931011 253.96875,64.1464992 249.5,64.1464992 C245.03125,64.1464992 243,66.5931011 243,69.855237 L243,86.709606 C243,89.9717419 245.03125,92.1464992 249.5,92.1464992 C253.833333,92.1464992 256,90.1076642 256,86.709606 Z M252.787566,7.08767565 L204.120296,95.8002425 C200.884798,101.606392 200.210736,102.146499 192.796055,102.146499 C187.133935,102.146499 185.650999,100.796232 188.212434,96.2053227 L236.879704,7.49275586 C240.115202,1.68660613 240.789264,1.14649917 248.203945,1.14649917 C253.866065,1.14649917 255.349001,2.49676655 252.787566,7.08767565 Z" id="path-2"></path>
        <filter x="-1.1%" y="-2.9%" width="102.2%" height="105.8%" filterUnits="objectBoundingBox" id="filter-3">
            <feGaussianBlur stdDeviation="2.5" in="SourceAlpha" result="shadowBlurInner1"></feGaussianBlur>
            <feOffset dx="1" dy="1" in="shadowBlurInner1" result="shadowOffsetInner1"></feOffset>
            <feComposite in="shadowOffsetInner1" in2="SourceAlpha" operator="arithmetic" k2="-1" k3="1" result="shadowInnerInner1"></feComposite>
            <feColorMatrix values="0 0 0 0 0   0 0 0 0 0   0 0 0 0 0  0 0 0 0.7 0" type="matrix" in="shadowInnerInner1"></feColorMatrix>
        </filter>
    </defs>
    <g id="eBucks-Opt-1-Shapes" stroke="none" stroke-width="1" fill="none" fill-rule="evenodd">
        <g id="slide3_40" fill-rule="nonzero">
            <use fill="url(#linearGradient-1)" xlink:href="#path-2"></use>
            <use fill="black" fill-opacity="1" filter="url(#filter-3)" xlink:href="#path-2"></use>
        </g>
    </g>
</svg>