<?xml version="1.0" encoding="UTF-8"?>
<svg width="158px" height="79px" viewBox="0 0 158 79" version="1.1" xmlns="http://www.w3.org/2000/svg" xmlns:xlink="http://www.w3.org/1999/xlink">
    <!-- Generator: Sketch 55 (78076) - https://sketchapp.com -->
    <title>slide1_next</title>
    <desc>Created with Sketch.</desc>
    <defs>
        <rect id="path-1" x="0" y="0" width="158" height="40"></rect>
    </defs>
    <g id="eBucks-Opt-1-Shapes" stroke="none" stroke-width="1" fill="none" fill-rule="evenodd">
        <g id="slide1_next" transform="translate(0.000000, -0.319404)">
            <g id="Group">
                <mask id="mask-2" fill="white">
                    <use xlink:href="#path-1"></use>
                </mask>
                <g id="Rectangle" transform="translate(79.000000, 20.000000) scale(1, -1) translate(-79.000000, -20.000000) "></g>
                <path d="M15.413526,50.0399683 C21.7671847,50.0279498 26.65,46.598083 26.65,39.82 C26.65,33.52 23.15,30.93 14.82,27.01 C6.21,22.95 1.59,19.31 1.59,12.66 C1.59,5.59 6.56,0.41 15.31,0.41 C20.84,0.41 26.51,3 28.89,9.58 C29.52,11.33 28.47,11.96 27.77,11.96 C27.14,11.96 26.65,11.68 26.37,10.91 C24.48,5.31 20.14,3.07 14.96,3.07 C8.1,3.07 4.39,7.06 4.39,12.59 C4.39,16.86 6.07,19.73 15.94,24.35 C24.2,28.2 29.45,31.63 29.45,39.47 C29.45,47.8 23.5,52.7 15.52,52.7 C6.91,52.7 2.08,48.29 0.54,43.18 C-0.02,41.43 0.96,40.8 1.66,40.8 C2.29,40.8 2.92,41.08 3.13,41.85 C4.45764117,46.6714337 8.57535925,50.0280771 15.413526,50.0399683 L15.413526,50.0399683 Z M71.17,2.16 L71.17,50.67 C71.17,51.79 70.54,52.28 69.77,52.28 C69,52.28 68.37,51.79 68.37,50.67 L68.37,27.36 L41.7,27.36 L41.7,50.67 C41.7,51.79 41.07,52.28 40.3,52.28 C39.53,52.28 38.9,51.79 38.9,50.67 L38.9,2.16 C38.9,1.04 39.53,0.55 40.3,0.55 C41.07,0.55 41.7,1.04 41.7,2.16 L41.7,24.7 L68.37,24.7 L68.37,2.16 C68.37,1.04 69,0.55 69.77,0.55 C70.54,0.55 71.17,1.04 71.17,2.16 Z M114.71,35.69 L114.71,17.42 C114.71,6.64 108.69,3.07 100.64,3.07 C92.59,3.07 86.57,6.64 86.57,17.42 L86.57,35.69 C86.57,46.33 92.59,50.04 100.64,50.04 C108.69,50.04 114.71,46.47 114.71,35.69 Z M117.51,16.72 L117.51,36.39 C117.51,47.73 110.3,52.7 100.64,52.7 C90.98,52.7 83.77,47.73 83.77,36.39 L83.77,16.72 C83.77,5.38 90.98,0.41 100.64,0.41 C110.3,0.41 117.51,5.38 117.51,16.72 Z M154.96,16.3 L154.96,14.55 C154.96,7.27 152.02,3.49 142.99,3.49 L132.91,3.49 L132.91,27.85 L142.99,27.85 C152.02,27.85 154.96,23.58 154.96,16.3 Z M131.93,0.83 L143.2,0.83 C153.91,0.83 157.76,6.08 157.76,14.76 L157.76,16.16 C157.76,24.84 153.91,30.51 143.2,30.51 L132.91,30.51 L132.91,50.67 C132.91,51.79 132.28,52.28 131.51,52.28 C130.74,52.28 130.11,51.79 130.11,50.67 L130.11,2.72 C130.11,1.32 130.95,0.83 131.93,0.83 Z" id="SHOP" fill="#000000" fill-rule="nonzero" mask="url(#mask-2)"></path>
            </g>
            <path d="M1.399,60.611 L9.987,60.611 C10.367,60.611 10.5,60.82 10.5,61.162 C10.5,61.504 10.367,61.694 9.987,61.694 L6.301,61.694 L6.301,74.044 C6.301,74.481 6.092,74.633 5.693,74.633 C5.313,74.633 5.066,74.481 5.066,74.044 L5.066,61.694 L1.399,61.694 C1.019,61.694 0.886,61.504 0.886,61.162 C0.886,60.82 1.019,60.611 1.399,60.611 Z M17.989,64.601 L17.989,74.025 C17.989,74.424 17.78,74.576 17.4,74.576 C17.039,74.576 16.811,74.424 16.811,74.025 L16.811,64.601 C16.811,64.202 17.039,64.05 17.4,64.05 C17.78,64.05 17.989,64.202 17.989,64.601 Z M17.989,60.744 L17.989,62.055 C17.989,62.454 17.78,62.606 17.4,62.606 C17.039,62.606 16.811,62.454 16.811,62.055 L16.811,60.744 C16.811,60.345 17.039,60.193 17.4,60.193 C17.78,60.193 17.989,60.345 17.989,60.744 Z M27.093,60.687 L27.093,74.025 C27.093,74.424 26.884,74.576 26.504,74.576 C26.143,74.576 25.915,74.424 25.915,74.025 L25.915,60.687 C25.915,60.288 26.143,60.136 26.504,60.136 C26.884,60.136 27.093,60.288 27.093,60.687 Z M36.197,60.687 L36.197,74.025 C36.197,74.424 35.988,74.576 35.608,74.576 C35.247,74.576 35.019,74.424 35.019,74.025 L35.019,60.687 C35.019,60.288 35.247,60.136 35.608,60.136 C35.988,60.136 36.197,60.288 36.197,60.687 Z M52.904,77.483 C53.911,76.894 54.595,75.925 55.108,74.405 L51.726,64.753 C51.593,64.335 51.764,64.05 52.239,64.05 C52.619,64.05 52.809,64.202 52.923,64.544 L55.754,72.961 L58.471,64.639 C58.604,64.202 58.832,64.05 59.193,64.05 C59.649,64.05 59.839,64.316 59.687,64.734 L56.077,75.032 C55.488,76.704 54.5,77.768 53.607,78.395 C53.284,78.623 53.056,78.585 52.809,78.281 C52.581,78.015 52.619,77.654 52.904,77.483 Z M73.845,67.869 L73.845,70.757 C73.845,73.151 72.363,74.671 69.798,74.671 C67.252,74.671 65.77,73.227 65.77,70.833 L65.77,67.869 C65.77,65.437 67.309,63.955 69.798,63.955 C72.42,63.955 73.845,65.437 73.845,67.869 Z M72.667,70.586 L72.667,68.021 C72.667,65.95 71.622,64.981 69.798,64.981 C68.088,64.981 66.967,65.931 66.967,68.021 L66.967,70.662 C66.967,72.752 68.031,73.645 69.798,73.645 C71.565,73.645 72.667,72.695 72.667,70.586 Z M87.528,74.044 L87.528,72.885 C86.787,73.74 85.533,74.614 83.937,74.614 C82.246,74.614 81.182,73.531 81.182,71.574 L81.182,64.601 C81.182,64.202 81.391,64.05 81.771,64.05 C82.132,64.05 82.36,64.202 82.36,64.601 L82.36,71.479 C82.36,72.828 83.082,73.588 84.184,73.588 C85.381,73.588 86.578,72.961 87.49,71.821 L87.49,64.601 C87.49,64.202 87.699,64.05 88.079,64.05 C88.44,64.05 88.668,64.202 88.668,64.601 L88.668,74.044 C88.668,74.424 88.44,74.576 88.098,74.576 C87.737,74.576 87.528,74.424 87.528,74.044 Z M111.816,71.023 L111.816,67.698 C111.816,66.026 110.562,64.981 108.947,64.981 C107.408,64.981 106.306,66.026 106.306,68.192 L106.306,70.624 C106.306,72.714 107.427,73.645 109.118,73.645 C110.676,73.645 111.816,72.41 111.816,71.023 Z M111.816,65.475 L111.816,60.687 C111.816,60.288 112.025,60.136 112.405,60.136 C112.766,60.136 112.994,60.288 112.994,60.687 L112.994,74.082 C112.994,74.481 112.766,74.633 112.405,74.633 C112.025,74.633 111.835,74.481 111.835,74.082 L111.835,73.056 C111.379,73.797 110.353,74.671 108.776,74.671 C106.61,74.671 105.109,73.284 105.109,70.814 L105.109,67.945 C105.109,65.494 106.591,63.955 108.719,63.955 C110.296,63.955 111.341,64.696 111.816,65.475 Z M125.081,65.209 C123.58,65.209 122.364,66.558 122.098,67.584 L122.098,74.025 C122.098,74.424 121.889,74.576 121.509,74.576 C121.148,74.576 120.92,74.424 120.92,74.025 L120.92,64.601 C120.92,64.221 121.148,64.069 121.49,64.069 C121.851,64.069 122.06,64.221 122.06,64.601 L122.06,66.349 C122.63,65.114 124.017,63.974 125.214,63.974 C125.556,63.974 125.632,64.221 125.632,64.411 C125.632,65.076 125.366,65.209 125.081,65.209 Z M139.581,67.869 L139.581,70.757 C139.581,73.151 138.099,74.671 135.534,74.671 C132.988,74.671 131.506,73.227 131.506,70.833 L131.506,67.869 C131.506,65.437 133.045,63.955 135.534,63.955 C138.156,63.955 139.581,65.437 139.581,67.869 Z M138.403,70.586 L138.403,68.021 C138.403,65.95 137.358,64.981 135.534,64.981 C133.824,64.981 132.703,65.931 132.703,68.021 L132.703,70.662 C132.703,72.752 133.767,73.645 135.534,73.645 C137.301,73.645 138.403,72.695 138.403,70.586 Z M153.72,70.434 L153.72,68.097 C153.72,66.178 153.036,65.019 151.288,65.019 C149.711,65.019 148.248,66.406 148.248,68.23 L148.248,71.08 C148.248,72.581 149.369,73.645 151.022,73.645 C152.618,73.645 153.72,72.733 153.72,70.434 Z M148.191,64.601 L148.191,65.893 C148.628,65.114 149.825,63.955 151.44,63.955 C153.644,63.955 154.898,65.323 154.898,67.945 L154.898,70.548 C154.898,73.189 153.226,74.671 151.155,74.671 C149.521,74.671 148.571,73.835 148.229,73.151 L148.229,77.996 C148.229,78.395 148.02,78.547 147.64,78.547 C147.279,78.547 147.051,78.395 147.051,77.996 L147.051,64.601 C147.051,64.221 147.279,64.069 147.621,64.069 C147.982,64.069 148.191,64.221 148.191,64.601 Z" id="Tillyoudrop" fill="#000000" fill-rule="nonzero"></path>
        </g>
    </g>
</svg>