<?xml version="1.0" encoding="UTF-8"?>
<svg width="1675px" height="1740px" viewBox="0 0 1675 1740" version="1.1" xmlns="http://www.w3.org/2000/svg" xmlns:xlink="http://www.w3.org/1999/xlink">
    <!-- Generator: Sketch 55 (78076) - https://sketchapp.com -->
    <title>slide3_plane</title>
    <desc>Created with Sketch.</desc>
    <defs>
        <filter x="-5.9%" y="-5.9%" width="111.9%" height="111.9%" filterUnits="objectBoundingBox" id="filter-1">
            <feOffset dx="0" dy="2" in="SourceAlpha" result="shadowOffsetOuter1"></feOffset>
            <feGaussianBlur stdDeviation="25" in="shadowOffsetOuter1" result="shadowBlurOuter1"></feGaussianBlur>
            <feColorMatrix values="0 0 0 0 0   0 0 0 0 0   0 0 0 0 0  0 0 0 0.1 0" type="matrix" in="shadowBlurOuter1" result="shadowMatrixOuter1"></feColorMatrix>
            <feMerge>
                <feMergeNode in="shadowMatrixOuter1"></feMergeNode>
                <feMergeNode in="SourceGraphic"></feMergeNode>
            </feMerge>
        </filter>
        <path d="M446.037173,699.69701 L0.302989796,253.959245 L253.560235,0.698418367 L253.563816,0.702 C253.560235,0.702 253.560235,0.705581633 253.560235,0.705581633 L223.173663,31.0957347 C221.354194,32.9116224 220.465949,35.031949 220.465949,37.0913878 C220.465949,39.7811939 221.977398,42.3707143 224.892847,44.0433367 L394.121408,141.259592 L444.772857,191.911041 L418.179235,241.298173 L458.701827,281.824347 L508.088959,255.227143 L558.736827,305.87501 L655.956663,475.107153 C657.629286,478.022602 660.215224,479.534051 662.905031,479.534051 C664.964469,479.534051 667.084796,478.649388 668.904265,476.829918 L699.298,446.436184 L446.037173,699.69701" id="path-2"></path>
        <path d="M1114.86836,1528.94267 L780.421827,1194.49972 L780.42541,1194.49614 C786.244426,1188.67712 790.060468,1178.32902 790.060468,1169.42492 C790.060468,1167.62977 789.906393,1165.89194 789.580328,1164.26162 L742.41548,928.466042 L1130.06803,540.817073 L1122.4682,548.420492 L1439.4756,1189.9348 C1439.49351,1189.97063 1439.51143,1190.01005 1439.53293,1190.04588 C1441.05576,1193.04496 1443.51021,1194.60721 1446.11515,1194.60721 C1448.02855,1194.60721 1450.02436,1193.76518 1451.78368,1192.02735 L1114.86836,1528.94267 M1528.93222,1081.76703 C1528.93222,1079.54906 1528.8104,1077.39201 1528.556,1075.32096 L1509.51162,920.260656 L1528.556,1075.32096 C1528.8104,1077.39201 1528.93222,1079.54906 1528.93222,1081.76703 M600.533958,786.58452 L600.533958,786.58452 L364.731218,739.426838 C363.10089,739.100773 361.366651,738.943115 359.571499,738.943115 C350.9863,738.943115 341.050258,742.494005 335.130913,747.96904 C334.915925,748.166112 334.70452,748.366768 334.496698,748.57459 L0.0537470726,414.135222 L392.772857,21.4161124 L337.026393,77.158993 C335.256323,78.9326464 334.39637,80.9392037 334.392787,82.8705152 C334.385621,85.5112881 335.987283,88.0015691 339.065199,89.5244028 L980.579508,406.531803 L988.182927,398.931967 L600.533958,786.58452 M393.668642,20.5454098 C406.335035,8.52398126 428.743981,0.114355972 447.075316,0.0713583138 C428.743981,0.114355972 406.335035,8.52398126 393.668642,20.5454098" id="path-4"></path>
        <path d="M71.2808,86.7264 L56.006,71.4516 L73.8296,53.6352 L86.552,66.3612 L71.2808,86.7264 M48.8492,64.2948 L0.0044,15.45 L20.366,0.1752 L66.1868,45.9924 L48.3704,63.8124 L48.8492,64.2948" id="path-6"></path>
        <linearGradient x1="50%" y1="0%" x2="50%" y2="99.8627534%" id="linearGradient-8">
            <stop stop-color="#F6881A" offset="0%"></stop>
            <stop stop-color="#FFCC00" offset="100%"></stop>
        </linearGradient>
        <polyline id="path-9" points="8.276875 25.843625 1.070375 18.637125 0.58825 18.151375 18.528375 0.207625 26.22425 7.9035 8.276875 25.843625"></polyline>
        <polyline id="path-11" points="15.5729667 157.690556 0.125733333 31.5130667 31.0951 0.447222222 101.711533 71.2836444 15.5729667 157.690556"></polyline>
        <linearGradient x1="50%" y1="100%" x2="50%" y2="0%" id="linearGradient-13">
            <stop stop-color="#FFFFFF" offset="0%"></stop>
            <stop stop-color="#FFFFFF" offset="100%"></stop>
        </linearGradient>
        <polyline id="path-14" points="15.5071429 149.017857 0.0357142857 23.0607143 22.9214286 0.178571429 93.6321429 70.8928571 15.5071429 149.017857"></polyline>
        <linearGradient x1="50%" y1="0%" x2="50%" y2="100%" id="linearGradient-16">
            <stop stop-color="#FFFFFF" offset="100%"></stop>
            <stop stop-color="#FFFFFF" offset="0%"></stop>
        </linearGradient>
        <polyline id="path-17" points="72.2052 87.46 72.2052 87.46 0.9288 16.18 21.294 0.9052 87.48 67.0912 72.2052 87.46"></polyline>
        <linearGradient x1="50%" y1="0%" x2="50%" y2="100%" id="linearGradient-19">
            <stop stop-color="#F6881A" offset="0%"></stop>
            <stop stop-color="#FFCC00" offset="99.8627534%"></stop>
        </linearGradient>
        <path d="M71.5536,86.9956 L0.2772,15.7192 L20.6388,0.4444 L86.8248,66.6304 L71.5536,86.9956 M66.4596,46.2652 L48.6432,64.0852 L56.2788,71.7172 L74.0952,53.9044 L66.4596,46.2652" id="path-20"></path>
        <linearGradient x1="50%" y1="0%" x2="50%" y2="100%" id="linearGradient-22">
            <stop stop-color="#F6881A" offset="0%"></stop>
            <stop stop-color="#FFCC00" offset="99.8627534%"></stop>
        </linearGradient>
        <polyline id="path-23" points="8.544625 26.104125 0.856 18.419125 18.796125 0.475375 26.48475 8.167625 8.544625 26.104125"></polyline>
        <polyline id="path-25" points="126.486933 101.877833 0.309444444 86.4306 86.7199333 0.288466667 157.556356 70.9049 126.486933 101.877833"></polyline>
        <linearGradient x1="50%" y1="0%" x2="50%" y2="100%" id="linearGradient-27">
            <stop stop-color="#FFFFFF" offset="100%"></stop>
            <stop stop-color="#FFFFFF" offset="0%"></stop>
        </linearGradient>
        <polyline id="path-28" points="71.8164 87.0712 0.5436 15.7912 20.9052 0.52 65.4552 45.0664 47.6352 62.8864 55.2708 70.522 73.0908 52.7056 67.6908 47.3056 87.0912 66.706 71.8164 87.0712"></polyline>
        <polyline id="path-30" points="8.529625 25.900625 0.841 18.212 18.78475 0.26825 21.035875 2.523 26.473375 7.9605 8.529625 25.900625"></polyline>
        <polyline id="path-32" points="126.935714 93.9607143 0.982142857 78.4928571 79.1107143 0.364285714 149.817857 71.0785714 126.935714 93.9607143"></polyline>
        <linearGradient x1="50%" y1="0%" x2="50%" y2="100%" id="linearGradient-34">
            <stop stop-color="#FFFFFF" offset="100%"></stop>
            <stop stop-color="#FFFFFF" offset="0%"></stop>
        </linearGradient>
        <path d="M25.774069,947.788713 L25.774069,947.788713 L81.536,892.098528 L81.5646897,892.069879 C94.0913103,879.557404 102.93131,856.434034 102.93131,837.643834 C102.93131,856.434034 94.0913103,879.557404 81.5646897,892.069879 L25.774069,947.788713 M83.494069,676.227887 L83.494069,676.227887 L78.6311724,636.713675 L78.6347586,636.710094 L83.494069,676.227887 M63.0993103,510.417891 L43.6835862,352.550845 L43.6871724,352.547264 L63.1028966,510.414309 L63.0993103,510.417891 M28.1517241,226.251479 L0.416,0.722524528 L0.416,0.72610566 L28.1517241,226.247898 L28.1517241,226.251479" id="path-35"></path>
        <path d="M273.18862,950.839203 L273.18862,950.839203 C275.12182,950.839203 277.13378,949.979353 278.90946,948.205914 C277.13378,949.979353 275.12182,950.839203 273.18862,950.839203 M278.90946,948.205914 L296.63046,930.46435 L0.4499,254.06006 L253.59528,0.726864662 L355.55368,831.570895 C357.95944,851.211293 348.57984,878.475692 334.59994,892.466162 L334.57488,892.491241 L278.90946,948.205914" id="path-37"></path>
        <linearGradient x1="50%" y1="0%" x2="50%" y2="100%" id="linearGradient-39">
            <stop stop-color="#FFFFFF" offset="0%"></stop>
            <stop stop-color="#E3E3E3" offset="100%"></stop>
        </linearGradient>
        <path d="M7.493,4.866 C4.82733333,4.866 2.31566667,3.34 0.757333333,0.4105 C2.31566667,3.34 4.82733333,4.866 7.493,4.866" id="path-40"></path>
        <polyline id="path-42" points="0.968 8.56166667 8.745 0.781 0.968 8.56166667"></polyline>
        <path d="M324.45652,697.838585 C321.852673,697.838585 319.399255,696.275692 317.877061,693.275369 C317.855571,693.239523 317.837663,693.200092 317.819755,693.164246 L0.94555102,51.3854615 L51.5934184,0.691830769 L347.909051,677.452877 L330.179969,695.203892 C328.40348,696.978277 326.390602,697.838585 324.45652,697.838585" id="path-44"></path>
        <polyline id="path-46" points="0.895333333 281.545595 0.895333333 281.545595 254.272833 28.2426835 28.60525 0.537341772 28.6088333 0.533759494 254.276417 28.2391013 0.895333333 281.545595"></polyline>
        <path d="M479.397156,59.3505294 L321.351437,39.9238235 L321.355022,39.9238235 L479.400741,59.3469412 L479.397156,59.3505294 M194.916296,24.3831765 L155.353778,19.5211176 L0.197718519,0.449647059 L194.916296,24.3831765" id="path-48"></path>
        <path d="M696.93994,355.54652 L20.5320677,59.36954 L2.79408647,77.09054 C1.02422932,78.86264 0.164379699,80.86744 0.160796992,82.79706 C0.164379699,80.86744 1.02422932,78.86264 2.79408647,77.09054 L58.5338383,21.39648 C71.0482331,8.89154 94.178188,0.06684 112.97665,0.06684 C115.194346,0.06684 117.351135,0.19214 119.425523,0.44632 L274.474323,19.47402 L314.009492,24.32492 L950.273135,102.40472 L696.93994,355.54652" id="path-50"></path>
        <linearGradient x1="50%" y1="0%" x2="50%" y2="100%" id="linearGradient-52">
            <stop stop-color="#FFFFFF" offset="0%"></stop>
            <stop stop-color="#E3E3E3" offset="100%"></stop>
        </linearGradient>
        <path d="M646.614538,347.054449 L4.83575385,30.1802449 C1.75656923,28.658051 0.154246154,26.1688163 0.161415385,23.5291531 C0.165,21.5986531 1.02530769,19.5929388 2.79610769,17.8200306 L20.5435385,0.0909489796 L697.311754,296.403 L646.614538,347.054449" id="path-53"></path>
        <path d="M138.223038,299.595083 C135.536769,299.595083 132.954231,298.082917 131.283808,295.166083 L0.0500769231,66.3129167 L136.627731,0.433333333 L183.710769,236.24175 C184.036269,237.872167 184.190077,239.610083 184.190077,241.405333 C184.190077,250.309917 180.380654,260.658583 174.571731,266.477917 L174.568154,266.4815 L144.214385,296.889667 C142.397308,298.71 140.279769,299.595083 138.223038,299.595083" id="path-55"></path>
        <path d="M233.687083,184.949923 L233.687083,184.949923 L4.83391667,53.7161923 C1.91708333,52.0457692 0.404916667,49.4596538 0.404916667,46.7733846 C0.404916667,44.7166538 1.29358333,42.5991154 3.11391667,40.7856154 L33.5149167,10.4354231 C39.33425,4.62292308 49.6865,0.8135 58.5910833,0.8135 C60.3863333,0.8135 62.1206667,0.970884615 63.7510833,1.29638462 L299.566667,48.3722692 L233.687083,184.949923" id="path-57"></path>
        <linearGradient x1="69.6834611%" y1="10.6270996%" x2="20.3870137%" y2="97.9809648%" id="linearGradient-59">
            <stop stop-color="#FFFFFF" offset="0%"></stop>
            <stop stop-color="#FFFFFE" offset="100%"></stop>
        </linearGradient>
        <linearGradient x1="50%" y1="0%" x2="50%" y2="100%" id="linearGradient-60">
            <stop stop-color="#F6881A" offset="0%"></stop>
            <stop stop-color="#FFCC00" offset="99.8627534%"></stop>
        </linearGradient>
    </defs>
    <g id="eBucks-Opt-1-Shapes" stroke="none" stroke-width="1" fill="none" fill-rule="evenodd">
        <g id="slide3_plane" filter="url(#filter-1)" transform="translate(837.500000, 523.646499) rotate(-225.000000) translate(-837.500000, -523.646499) translate(-3.000000, -316.853501)">
            <g id="Group-7" transform="translate(82.239308, 899.075811)">
                <mask id="mask-3" fill="white">
                    <use xlink:href="#path-2"></use>
                </mask>
                <g id="Clip-6"></g>
                <path d="M446.037173,699.69701 L0.302989796,253.959245 L253.560235,0.698418367 L253.563816,0.702 C253.560235,0.702 253.560235,0.705581633 253.560235,0.705581633 L223.173663,31.0957347 C221.354194,32.9116224 220.465949,35.031949 220.465949,37.0913878 C220.465949,39.7811939 221.977398,42.3707143 224.892847,44.0433367 L394.121408,141.259592 L444.772857,191.911041 L418.179235,241.298173 L458.701827,281.824347 L508.088959,255.227143 L558.736827,305.87501 L655.956663,475.107153 C657.629286,478.022602 660.215224,479.534051 662.905031,479.534051 C664.964469,479.534051 667.084796,478.649388 668.904265,476.829918 L699.298,446.436184 L446.037173,699.69701" id="Fill-5" mask="url(#mask-3)"></path>
            </g>
            <g id="Group-10" transform="translate(0.928783, 151.035582)">
                <mask id="mask-5" fill="white">
                    <use xlink:href="#path-4"></use>
                </mask>
                <g id="Clip-9"></g>
                <path d="M1114.86836,1528.94267 L780.421827,1194.49972 L780.42541,1194.49614 C786.244426,1188.67712 790.060468,1178.32902 790.060468,1169.42492 C790.060468,1167.62977 789.906393,1165.89194 789.580328,1164.26162 L742.41548,928.466042 L1130.06803,540.817073 L1122.4682,548.420492 L1439.4756,1189.9348 C1439.49351,1189.97063 1439.51143,1190.01005 1439.53293,1190.04588 C1441.05576,1193.04496 1443.51021,1194.60721 1446.11515,1194.60721 C1448.02855,1194.60721 1450.02436,1193.76518 1451.78368,1192.02735 L1114.86836,1528.94267 M1528.93222,1081.76703 C1528.93222,1079.54906 1528.8104,1077.39201 1528.556,1075.32096 L1509.51162,920.260656 L1528.556,1075.32096 C1528.8104,1077.39201 1528.93222,1079.54906 1528.93222,1081.76703 M600.533958,786.58452 L600.533958,786.58452 L364.731218,739.426838 C363.10089,739.100773 361.366651,738.943115 359.571499,738.943115 C350.9863,738.943115 341.050258,742.494005 335.130913,747.96904 C334.915925,748.166112 334.70452,748.366768 334.496698,748.57459 L0.0537470726,414.135222 L392.772857,21.4161124 L337.026393,77.158993 C335.256323,78.9326464 334.39637,80.9392037 334.392787,82.8705152 C334.385621,85.5112881 335.987283,88.0015691 339.065199,89.5244028 L980.579508,406.531803 L988.182927,398.931967 L600.533958,786.58452 M393.668642,20.5454098 C406.335035,8.52398126 428.743981,0.114355972 447.075316,0.0713583138 C428.743981,0.114355972 406.335035,8.52398126 393.668642,20.5454098" id="Fill-8" mask="url(#mask-5)"></path>
            </g>
            <polyline id="Fill-12" fill="#333639" points="1606.76627 924.863746 1540.99904 859.099251 1520.76627 874.276774 1591.59169 945.099251 1606.76627 924.863746"></polyline>
            <polyline id="Fill-13" fill="#6D7CA1" points="1594.35324 912.447109 1586.85182 904.940748 1569.35324 922.43792 1576.85112 929.940748 1594.35324 912.447109"></polyline>
            <polyline id="Fill-14" fill="#FFFFFE" points="1439.61608 1097.60079 1368.6586 1026.64576 1520.70471 874.60079 1591.6586 945.555824 1439.61608 1097.60079"></polyline>
            <g id="Group-17" transform="translate(1520.473374, 858.874506)">
                <mask id="mask-7" fill="white">
                    <use xlink:href="#path-6"></use>
                </mask>
                <g id="Clip-16"></g>
                <path d="M71.2808,86.7264 L56.006,71.4516 L73.8296,53.6352 L86.552,66.3612 L71.2808,86.7264 M48.8492,64.2948 L0.0044,15.45 L20.366,0.1752 L66.1868,45.9924 L48.3704,63.8124 L48.8492,64.2948" id="Fill-15" fill="url(#linearGradient-8)" mask="url(#mask-7)"></path>
            </g>
            <g id="Group-20" transform="translate(1568.128492, 904.233641)">
                <mask id="mask-10" fill="white">
                    <use xlink:href="#path-9"></use>
                </mask>
                <g id="Clip-19"></g>
                <polyline id="Fill-18" fill="#FFFFFF" mask="url(#mask-10)" points="8.276875 25.843625 1.070375 18.637125 0.58825 18.151375 18.528375 0.207625 26.22425 7.9035 8.276875 25.843625"></polyline>
            </g>
            <g id="Group-23" transform="translate(1489.493348, 873.771026)">
                <mask id="mask-12" fill="white">
                    <use xlink:href="#path-11"></use>
                </mask>
                <g id="Clip-22"></g>
                <polyline id="Fill-21" fill="url(#linearGradient-13)" mask="url(#mask-12)" points="15.5729667 157.690556 0.125733333 31.5130667 31.0951 0.447222222 101.711533 71.2836444 15.5729667 157.690556"></polyline>
            </g>
            <polyline id="Fill-24" fill="#FFFFFE" points="1396.6433 821.308839 1325.68468 750.354945 1477.72965 598.308839 1548.68468 669.266316 1396.6433 821.308839"></polyline>
            <polyline id="Fill-25" fill="#333639" points="1563.79235 648.56906 1498.02785 582.8073 1477.79235 597.984191 1548.61482 668.8073 1563.79235 648.56906"></polyline>
            <g id="Group-28" transform="translate(1454.460228, 598.433649)">
                <mask id="mask-15" fill="white">
                    <use xlink:href="#path-14"></use>
                </mask>
                <g id="Clip-27"></g>
                <polyline id="Fill-26" fill="url(#linearGradient-16)" mask="url(#mask-15)" points="15.5071429 149.017857 0.0357142857 23.0607143 22.9214286 0.178571429 93.6321429 70.8928571 15.5071429 149.017857"></polyline>
            </g>
            <g id="Group-31" transform="translate(1476.499454, 581.582555)">
                <mask id="mask-18" fill="white">
                    <use xlink:href="#path-17"></use>
                </mask>
                <g id="Clip-30"></g>
                <polyline id="Fill-29" fill="url(#linearGradient-19)" mask="url(#mask-18)" points="72.2052 87.46 72.2052 87.46 0.9288 16.18 21.294 0.9052 87.48 67.0912 72.2052 87.46"></polyline>
            </g>
            <polyline id="Fill-32" fill="#FFFFFF" points="1551.37932 636.151271 1543.8779 628.648796 1526.37932 646.149857 1533.8772 653.648796 1551.37932 636.151271"></polyline>
            <polyline id="Fill-33" fill="#333639" points="821.693512 139.287672 755.926281 73.5231761 735.693512 88.7006988 806.518935 159.523176 821.693512 139.287672"></polyline>
            <polyline id="Fill-34" fill="#6D7CA1" points="809.280482 126.868209 801.780482 119.364673 784.280482 136.868209 791.780482 144.364673 809.280482 126.868209"></polyline>
            <polyline id="Fill-35" fill="#FFFFFE" points="654.539742 312.024715 583.585848 241.067237 735.631954 89.0247149 806.585848 159.978609 654.539742 312.024715"></polyline>
            <g id="Group-38" transform="translate(734.659438, 73.264357)">
                <mask id="mask-21" fill="white">
                    <use xlink:href="#path-20"></use>
                </mask>
                <g id="Clip-37"></g>
                <path d="M71.5536,86.9956 L0.2772,15.7192 L20.6388,0.4444 L86.8248,66.6304 L71.5536,86.9956 M66.4596,46.2652 L48.6432,64.0852 L56.2788,71.7172 L74.0952,53.9044 L66.4596,46.2652" id="Fill-36" fill="url(#linearGradient-22)" mask="url(#mask-21)"></path>
            </g>
            <g id="Group-41" transform="translate(782.314556, 118.623492)">
                <mask id="mask-24" fill="white">
                    <use xlink:href="#path-23"></use>
                </mask>
                <g id="Clip-40"></g>
                <polyline id="Fill-39" fill="#FFFFFF" mask="url(#mask-24)" points="8.544625 26.104125 0.856 18.419125 18.796125 0.475375 26.48475 8.167625 8.544625 26.104125"></polyline>
            </g>
            <g id="Group-44" transform="translate(648.818665, 88.856822)">
                <mask id="mask-26" fill="white">
                    <use xlink:href="#path-25"></use>
                </mask>
                <g id="Clip-43"></g>
                <polyline id="Fill-42" fill="url(#linearGradient-27)" mask="url(#mask-26)" points="126.486933 101.877833 0.309444444 86.4306 86.7199333 0.288466667 157.556356 70.9049 126.486933 101.877833"></polyline>
            </g>
            <polyline id="Fill-45" fill="#333639" points="1097.25115 182.438433 1031.48392 116.673938 1011.25115 131.847884 1082.073 202.673938 1097.25115 182.438433"></polyline>
            <polyline id="Fill-46" fill="#6D7CA1" points="1083.61338 169.310803 1076.11444 161.808328 1058.61338 179.309388 1066.11231 186.808328 1083.61338 169.310803"></polyline>
            <polyline id="Fill-47" fill="#FFFFFE" points="931.064446 354.916658 860.109412 283.965207 1012.15796 131.916658 1083.10941 202.875276 931.064446 354.916658"></polyline>
            <g id="Group-50" transform="translate(1011.183002, 116.156300)">
                <mask id="mask-29" fill="white">
                    <use xlink:href="#path-28"></use>
                </mask>
                <g id="Clip-49"></g>
                <polyline id="Fill-48" fill="url(#linearGradient-22)" mask="url(#mask-29)" points="71.8164 87.0712 0.5436 15.7912 20.9052 0.52 65.4552 45.0664 47.6352 62.8864 55.2708 70.522 73.0908 52.7056 67.6908 47.3056 87.0912 66.706 71.8164 87.0712"></polyline>
            </g>
            <g id="Group-53" transform="translate(1057.838120, 160.515435)">
                <mask id="mask-31" fill="white">
                    <use xlink:href="#path-30"></use>
                </mask>
                <g id="Clip-52"></g>
                <polyline id="Fill-51" fill="#FFFFFF" mask="url(#mask-31)" points="8.529625 25.900625 0.841 18.212 18.78475 0.26825 21.035875 2.523 26.473375 7.9605 8.529625 25.900625"></polyline>
            </g>
            <g id="Group-56" transform="translate(932.766592, 132.376371)">
                <mask id="mask-33" fill="white">
                    <use xlink:href="#path-32"></use>
                </mask>
                <g id="Clip-55"></g>
                <polyline id="Fill-54" fill="url(#linearGradient-34)" mask="url(#mask-33)" points="126.935714 93.9607143 0.982142857 78.4928571 79.1107143 0.364285714 149.817857 71.0785714 126.935714 93.9607143"></polyline>
            </g>
            <path d="M1427.177,395.433084 L1529.10907,1226.17947 C1531.51421,1245.81748 1522.13703,1273.07856 1508.16074,1287.06732 L1452.48464,1342.80028 C1448.29355,1346.99154 1442.76388,1346.08164 1440.13326,1340.76197 L1123.48531,699.403047 L1427.177,395.433084" id="Fill-57" fill="#FFFFFE"></path>
            <g id="Group-60" transform="translate(1426.535672, 394.496530)">
                <mask id="mask-36" fill="white">
                    <use xlink:href="#path-35"></use>
                </mask>
                <g id="Clip-59"></g>
                <path d="M25.774069,947.788713 L25.774069,947.788713 L81.536,892.098528 L81.5646897,892.069879 C94.0913103,879.557404 102.93131,856.434034 102.93131,837.643834 C102.93131,856.434034 94.0913103,879.557404 81.5646897,892.069879 L25.774069,947.788713 M83.494069,676.227887 L83.494069,676.227887 L78.6311724,636.713675 L78.6347586,636.710094 L83.494069,676.227887 M63.0993103,510.417891 L43.6835862,352.550845 L43.6871724,352.547264 L63.1028966,510.414309 L63.0993103,510.417891 M28.1517241,226.251479 L0.416,0.722524528 L0.416,0.72610566 L28.1517241,226.247898 L28.1517241,226.251479" id="Fill-58" mask="url(#mask-36)"></path>
            </g>
            <g id="Group-66" transform="translate(1173.703404, 394.387572)">
                <mask id="mask-38" fill="white">
                    <use xlink:href="#path-37"></use>
                </mask>
                <g id="Clip-65"></g>
                <path d="M273.18862,950.839203 L273.18862,950.839203 C275.12182,950.839203 277.13378,949.979353 278.90946,948.205914 C277.13378,949.979353 275.12182,950.839203 273.18862,950.839203 M278.90946,948.205914 L296.63046,930.46435 L0.4499,254.06006 L253.59528,0.726864662 L355.55368,831.570895 C357.95944,851.211293 348.57984,878.475692 334.59994,892.466162 L334.57488,892.491241 L278.90946,948.205914" id="Fill-64" fill="url(#linearGradient-39)" mask="url(#mask-38)"></path>
            </g>
            <g id="Group-69" transform="translate(1439.724478, 1340.314779)">
                <mask id="mask-41" fill="white">
                    <use xlink:href="#path-40"></use>
                </mask>
                <g id="Clip-68"></g>
                <path d="M7.493,4.866 C4.82733333,4.866 2.31566667,3.34 0.757333333,0.4105 C2.31566667,3.34 4.82733333,4.866 7.493,4.866" id="Fill-67" mask="url(#mask-41)"></path>
            </g>
            <polyline id="Fill-70" fill="#4782B6" points="1130.72661 691.712193 1130.72661 691.712193 1173.72661 648.71577 1173.72661 648.712193 1130.72661 691.712193"></polyline>
            <g id="Group-73" transform="translate(1121.700468, 691.088174)">
                <mask id="mask-43" fill="white">
                    <use xlink:href="#path-42"></use>
                </mask>
                <g id="Clip-72"></g>
                <polyline id="Fill-71" mask="url(#mask-43)" points="0.968 8.56166667 8.745 0.781 0.968 8.56166667"></polyline>
            </g>
            <g id="Group-76" transform="translate(1122.440395, 648.156069)">
                <mask id="mask-45" fill="white">
                    <use xlink:href="#path-44"></use>
                </mask>
                <g id="Clip-75"></g>
                <path d="M324.45652,697.838585 C321.852673,697.838585 319.399255,696.275692 317.877061,693.275369 C317.855571,693.239523 317.837663,693.200092 317.819755,693.164246 L0.94555102,51.3854615 L51.5934184,0.691830769 L347.909051,677.452877 L330.179969,695.203892 C328.40348,696.978277 326.390602,697.838585 324.45652,697.838585" id="Fill-74" mask="url(#mask-45)"></path>
            </g>
            <path d="M337.983064,228.438401 L393.716146,172.758867 C407.704942,158.782613 434.966078,149.405459 454.600545,151.814171 L1285.34874,253.745979 L981.381702,557.436913 L340.02138,240.789759 C334.701697,238.162724 333.788216,232.633067 337.983064,228.438401" id="Fill-77" fill="#FFFFFE"></path>
            <g id="Group-80" transform="translate(1030.918624, 225.404015)">
                <mask id="mask-47" fill="white">
                    <use xlink:href="#path-46"></use>
                </mask>
                <g id="Clip-79"></g>
                <polyline id="Fill-78" mask="url(#mask-47)" points="0.895333333 281.545595 0.895333333 281.545595 254.272833 28.2426835 28.60525 0.537341772 28.6088333 0.533759494 254.276417 28.2391013 0.895333333 281.545595"></polyline>
            </g>
            <g id="Group-83" transform="translate(453.902580, 151.153885)">
                <mask id="mask-49" fill="white">
                    <use xlink:href="#path-48"></use>
                </mask>
                <g id="Clip-82"></g>
                <path d="M479.397156,59.3505294 L321.351437,39.9238235 L321.355022,39.9238235 L479.400741,59.3469412 L479.397156,59.3505294 M194.916296,24.3831765 L155.353778,19.5211176 L0.197718519,0.449647059 L194.916296,24.3831765" id="Fill-81" mask="url(#mask-49)"></path>
            </g>
            <g id="Group-89" transform="translate(335.269159, 150.959997)">
                <mask id="mask-51" fill="white">
                    <use xlink:href="#path-50"></use>
                </mask>
                <g id="Clip-88"></g>
                <path d="M696.93994,355.54652 L20.5320677,59.36954 L2.79408647,77.09054 C1.02422932,78.86264 0.164379699,80.86744 0.160796992,82.79706 C0.164379699,80.86744 1.02422932,78.86264 2.79408647,77.09054 L58.5338383,21.39648 C71.0482331,8.89154 94.178188,0.06684 112.97665,0.06684 C115.194346,0.06684 117.351135,0.19214 119.425523,0.44632 L274.474323,19.47402 L314.009492,24.32492 L950.273135,102.40472 L696.93994,355.54652" id="Fill-87" fill="url(#linearGradient-52)" mask="url(#mask-51)"></path>
            </g>
            <polyline id="Fill-90" fill="#4782B6" points="989.09951 549.523004 989.09951 549.523004 1032.09951 506.523004 989.09951 549.523004"></polyline>
            <g id="Group-93" transform="translate(334.371919, 210.400207)">
                <mask id="mask-54" fill="white">
                    <use xlink:href="#path-53"></use>
                </mask>
                <g id="Clip-92"></g>
                <path d="M646.614538,347.054449 L4.83575385,30.1802449 C1.75656923,28.658051 0.154246154,26.1688163 0.161415385,23.5291531 C0.165,21.5986531 1.02530769,19.5929388 2.79610769,17.8200306 L20.5435385,0.0909489796 L697.311754,296.403 L646.614538,347.054449" id="Fill-91" mask="url(#mask-54)"></path>
            </g>
            <path d="M707.965081,1043.99252 L743.346019,1079.50288 L790.393123,1315.57013 C792.326762,1325.28445 788.237885,1338.83715 781.26106,1345.83949 L750.926882,1376.28462 C746.737928,1380.48531 740.954883,1379.71405 738.006174,1374.55915 L606.872602,1145.45477 L707.965081,1043.99252" id="Fill-94" fill="#FFFFFE"></path>
            <g id="Group-97" transform="translate(606.408822, 1079.448539)">
                <mask id="mask-56" fill="white">
                    <use xlink:href="#path-55"></use>
                </mask>
                <g id="Clip-96"></g>
                <path d="M138.223038,299.595083 C135.536769,299.595083 132.954231,298.082917 131.283808,295.166083 L0.0500769231,66.3129167 L136.627731,0.433333333 L183.710769,236.24175 C184.036269,237.872167 184.190077,239.610083 184.190077,241.405333 C184.190077,250.309917 180.380654,260.658583 174.571731,266.477917 L174.568154,266.4815 L144.214385,296.889667 C142.397308,298.71 140.279769,299.595083 138.223038,299.595083" id="Fill-95" mask="url(#mask-56)"></path>
            </g>
            <path d="M304.521755,930.548744 L334.956185,900.220578 C341.958543,893.239917 355.51485,889.154461 365.2256,891.088172 L601.300491,938.129892 L636.810913,973.512156 L535.348465,1074.60842 L306.243647,943.469936 C301.088734,940.521117 300.317471,934.734281 304.521755,930.548744" id="Fill-98" fill="#FFFFFE"></path>
            <g id="Group-101" transform="translate(301.803185, 888.953974)">
                <mask id="mask-58" fill="white">
                    <use xlink:href="#path-57"></use>
                </mask>
                <g id="Clip-100"></g>
                <path d="M233.687083,184.949923 L233.687083,184.949923 L4.83391667,53.7161923 C1.91708333,52.0457692 0.404916667,49.4596538 0.404916667,46.7733846 C0.404916667,44.7166538 1.29358333,42.5991154 3.11391667,40.7856154 L33.5149167,10.4354231 C39.33425,4.62292308 49.6865,0.8135 58.5910833,0.8135 C60.3863333,0.8135 62.1206667,0.970884615 63.7510833,1.29638462 L299.566667,48.3722692 L233.687083,184.949923" id="Fill-99" mask="url(#mask-58)"></path>
            </g>
            <path d="M1665.43127,15.3043066 C1625.73974,-24.3873956 1536.40691,25.9993536 1491.93935,55.3435529 C1475.41852,66.242827 1451.40941,87.4501916 1437.41454,101.445117 L599.977201,938.882878 L741.857067,1080.75617 L1579.29441,243.318409 C1593.28211,229.327067 1614.48938,205.310685 1625.38861,188.800542 C1654.73269,144.325628 1705.11923,54.9960087 1665.43127,15.3043066 Z" id="Fill-103" fill="url(#linearGradient-59)"></path>
            <polyline id="Fill-104" fill="#FFFFFE" points="606.270528 1145.11993 535.245175 1074.09458 601.198057 937.119932 743.245175 1079.16705 606.270528 1145.11993"></polyline>
            <polyline id="Fill-105" fill="#FFFFFE" points="606.610925 1144.8805 535.945448 1074.21741 500.610925 1139.83391 540.992217 1180.21741 606.610925 1144.8805"></polyline>
            <polyline id="Fill-114" fill="#333639" points="723.199938 973.140634 707.995161 957.946605 647.19755 1008.61248 495.199938 1170.74183 510.39755 1185.9466 672.534068 1033.94183 723.199938 973.140634"></polyline>
            <path d="M1583.4082,96.9015104 C1598.02322,111.513295 1609.19878,128.253638 1617.02852,146.103282 C1626.97596,123.081708 1622.59649,95.3420077 1603.78208,76.5271294 C1584.96406,57.7086495 1557.22864,53.3290759 1534.20403,63.2839618 C1552.05323,71.1102885 1568.79677,82.2861245 1583.4082,96.9015104" id="Fill-115" fill="url(#linearGradient-60)"></path>
            <path d="M1595.76045,111.413717 C1597.9791,114.29607 1600.11675,117.221766 1602.11353,120.223314 L1618.76045,103.149527 C1617.66169,99.4147489 1616.26358,95.7413743 1614.47106,92.2233144 L1595.76045,111.413717" id="Fill-116" fill="#FFFFFF"></path>
        </g>
    </g>
</svg>