<?xml version="1.0" encoding="UTF-8"?>
<svg width="100px" height="153px" viewBox="0 0 100 153" version="1.1" xmlns="http://www.w3.org/2000/svg" xmlns:xlink="http://www.w3.org/1999/xlink">
    <!-- Generator: Sketch 55 (78076) - https://sketchapp.com -->
    <title>slide1_s</title>
    <desc>Created with Sketch.</desc>
    <defs>
        <linearGradient x1="30.0209034%" y1="0%" x2="67.7089378%" y2="100%" id="linearGradient-1">
            <stop stop-color="#FFFFFF" offset="0%"></stop>
            <stop stop-color="#F0F0F0" offset="100%"></stop>
        </linearGradient>
        <path d="M1.0003595,125.135622 C-2.00570246,116.490119 2.00238016,113.273188 9.81814125,110.458373 C19.2371354,107.040384 22.6440056,108.849908 26.25128,116.289061 C29.6581502,123.527156 37.073103,128.151495 49.6985632,128.151495 C58.516345,128.151495 70.7409969,123.527156 70.7409969,111.463664 C70.7409969,100.606521 62.9252358,95.3790083 44.2876517,87.3366802 C16.8322858,75.4742464 2.80399668,65.0192199 2.80399668,40.8922358 C2.80399668,16.1620771 23.8464304,0.68059557 48.4961384,0.68059557 C76.3523126,0.68059557 90.78141,12.9451458 96.3927256,27.8234527 C99.1983835,35.2626062 94.3886843,39.082712 85.1700943,41.2943522 C77.1539291,43.103876 73.7470589,42.9028178 71.1418052,37.4742464 C66.5325102,28.0245109 59.3179615,25.4107543 49.0973508,25.4107543 C37.073103,25.4107543 31.0609791,31.6435585 31.0609791,40.8922358 C31.0609791,51.3472622 40.8807815,54.9663099 63.12564,64.8181617 C86.9737315,75.4742464 100,86.7335056 100,109.855199 C100,134.384299 80.3603952,152.680596 48.8969467,152.680596 C21.0407726,152.680596 6.2108669,140.214987 1.0003595,125.135622 Z" id="path-2"></path>
        <filter x="-4.5%" y="-3.0%" width="109.0%" height="105.9%" filterUnits="objectBoundingBox" id="filter-3">
            <feGaussianBlur stdDeviation="3.5" in="SourceAlpha" result="shadowBlurInner1"></feGaussianBlur>
            <feOffset dx="2" dy="2" in="shadowBlurInner1" result="shadowOffsetInner1"></feOffset>
            <feComposite in="shadowOffsetInner1" in2="SourceAlpha" operator="arithmetic" k2="-1" k3="1" result="shadowInnerInner1"></feComposite>
            <feColorMatrix values="0 0 0 0 0   0 0 0 0 0   0 0 0 0 0  0 0 0 0.7 0" type="matrix" in="shadowInnerInner1"></feColorMatrix>
        </filter>
    </defs>
    <g id="eBucks-Opt-1-Shapes" stroke="none" stroke-width="1" fill="none" fill-rule="evenodd">
        <g id="slide1_s" fill-rule="nonzero">
            <use fill="url(#linearGradient-1)" xlink:href="#path-2"></use>
            <use fill="black" fill-opacity="1" filter="url(#filter-3)" xlink:href="#path-2"></use>
        </g>
    </g>
</svg>