<?xml version="1.0" encoding="UTF-8"?>
<svg width="65px" height="65px" viewBox="0 0 65 65" version="1.1" xmlns="http://www.w3.org/2000/svg" xmlns:xlink="http://www.w3.org/1999/xlink">
    <!-- Generator: Sketch 53 (72520) - https://sketchapp.com -->
    <title>travel+location/mozambique.arrow</title>
    <desc>Created with Sketch.</desc>
    <defs>
        <filter x="-23.3%" y="-25.6%" width="146.7%" height="151.2%" filterUnits="objectBoundingBox" id="filter-1">
            <feOffset dx="0" dy="0" in="SourceAlpha" result="shadowOffsetOuter1"></feOffset>
            <feGaussianBlur stdDeviation="2.5" in="shadowOffsetOuter1" result="shadowBlurOuter1"></feGaussianBlur>
            <feColorMatrix values="0 0 0 0 0   0 0 0 0 0   0 0 0 0 0  0 0 0 0.3 0" type="matrix" in="shadowBlurOuter1" result="shadowMatrixOuter1"></feColorMatrix>
            <feMerge>
                <feMergeNode in="shadowMatrixOuter1"></feMergeNode>
                <feMergeNode in="SourceGraphic"></feMergeNode>
            </feMerge>
        </filter>
    </defs>
    <g id="travel+location/mozambique.arrow" stroke="none" stroke-width="1" fill="none" fill-rule="evenodd">
        <rect id="Background" fill="#01AAAD" x="0" y="0" width="65" height="65"></rect>
        <g id="mozambique.arrow" filter="url(#filter-1)" transform="translate(11.000000, 12.000000)">
            <path d="M0.0606891892,16.8520853 L4.68109459,16.8520853 L6.54312162,24.42985 C6.82771622,25.5585559 7.06852703,26.7523794 7.24366216,27.7086441 C7.28744595,27.4698794 7.33122973,27.2962324 7.33122973,27.2528206 L7.57204054,26.3194676 L7.79095946,25.3414971 C7.90041892,24.8856735 8.00987838,24.42985 8.00987838,24.3864382 L9.91568919,16.8520853 L14.5750135,16.8520853 L14.5750135,31.3347324 L11.4919054,31.3347324 L11.4919054,23.7786735 L11.5137973,22.3894971 C11.5137973,22.1061147 11.5137973,21.7805265 11.5575811,21.2595853 L11.0978514,22.9092324 C10.9883919,23.3011441 10.9008243,23.5833206 10.8789324,23.6050265 L8.88555405,31.3347324 L5.64433784,31.3347324 L3.63028378,23.6267324 L3.43325676,22.8236147 L3.25812162,22.2146441 C3.14866216,21.7588206 3.12677027,21.6732029 2.99541892,21.2595853 C3.0392027,21.7805265 3.0392027,22.1507324 3.0392027,22.3894971 L3.06109459,23.7786735 L3.06109459,31.3347324 L0.0606891892,31.3347324 L0.0606891892,16.8520853 Z" id="Fill-28" fill="#FFFFFF"></path>
            <path d="M22.8766622,28.9027088 C25.2203108,28.9027088 26.6870676,27.0782088 26.6870676,24.1479147 C26.6870676,21.0861794 25.2859865,19.2833853 22.8766622,19.2833853 C20.4904459,19.2833853 19.0662568,21.0861794 19.0662568,24.0827971 C19.0662568,27.0999147 20.4904459,28.9027088 22.8766622,28.9027088 M17.8840946,18.3729441 C19.2195,17.1562088 20.9501757,16.5267382 22.8547703,16.5267382 C27.2562568,16.5267382 30.1253108,19.5450618 30.1253108,24.2130324 C30.1253108,28.6205324 27.1686892,31.6605618 22.8766622,31.6605618 C18.5408514,31.6605618 15.6292297,28.6205324 15.6292297,24.0827971 C15.6292297,21.71565 16.4392297,19.6752971 17.8840946,18.3729441" id="Fill-30" fill="#FFFFFF"></path>
            <path d="M38.2694595,35.0904529 C38.97,35.0904529 39.4516216,34.7214529 39.4516216,34.1788059 C39.4516216,33.6795706 39.0356757,33.3539824 38.357027,33.3539824 C38.0505405,33.3539824 37.8535135,33.3973941 37.35,33.5493353 L36.8245946,33.0935118 L37.7440541,31.6163059 C33.867973,31.3124235 31.4367568,28.4472471 31.4367568,24.0831588 C31.4367568,19.4356882 34.1525676,16.5258941 38.4883784,16.5258941 C42.0141892,16.5258941 44.4222973,18.3938059 44.8163514,21.4772471 L41.4656757,21.4772471 C41.1591892,20.0880706 40.0645946,19.2837471 38.5102703,19.2837471 C36.1228378,19.2837471 34.7217568,21.0431294 34.7217568,24.0831588 C34.7217568,27.1002765 36.1009459,28.9030706 38.4227027,28.9030706 C39.4297297,28.9030706 40.3272973,28.5111588 40.8977027,27.8382765 C41.1822973,27.4692765 41.3574324,27.0785706 41.5106757,26.3405706 L44.9914865,26.3405706 C44.5986486,29.5108353 42.2987838,31.5077765 38.9043243,31.6597176 L38.3351351,32.5508647 C39.0356757,32.4206294 39.1013514,32.4206294 39.3202703,32.4206294 C40.5474324,32.4206294 41.3793243,33.0935118 41.3793243,34.0919824 C41.3793243,35.3075118 40.2616216,36.1323353 38.6197297,36.1323353 C37.5908108,36.1323353 36.8014865,35.9803941 35.7068919,35.5245706 L36.1228378,34.6129235 C36.9778378,34.9385118 37.6114865,35.0904529 38.2694595,35.0904529" id="Fill-32" fill="#FFFFFF"></path>
            <polygon id="Fill-36" fill="#FF9900" points="17.027027 12.0588235 17.027027 0 26.7567568 0 26.7567568 12.0588235 32.8633784 12.0588235 21.8785135 21.7179412 10.9459459 12.0588235"></polygon>
            <polygon id="Stroke-38" fill="#FFFFFF" fill-rule="nonzero" points="0 39.6911765 0 38.6911765 44.541584 38.6911765 44.541584 39.6911765"></polygon>
        </g>
    </g>
</svg>