<?xml version="1.0" encoding="UTF-8"?>
<svg width="65px" height="65px" viewBox="0 0 65 65" version="1.1" xmlns="http://www.w3.org/2000/svg" xmlns:xlink="http://www.w3.org/1999/xlink">
    <!-- Generator: Sketch 53.1 (72631) - https://sketchapp.com -->
    <title>exampleAwire</title>
    <desc>Created with Sketch.</desc>
    <g id="exampleAwire" stroke="none" stroke-width="1" fill="none" fill-rule="evenodd">
        <rect id="Background" fill="#F99500" opacity="0.00939360119" x="0" y="0" width="65" height="65"></rect>
        <g id="Group-16" transform="translate(13.000000, 13.000000)">
            <path d="M28.527463,1.03794246 C32.7173117,1.69324564 31.9232912,6.49430515 34.6068212,9.61574254 C35.8068943,11.1571876 37.1579576,12.0855832 38.5774356,12.7371799 C39.6556929,13.180918 39.7995174,13.7308093 38.5774356,14.8101322 C31.2212296,18.9827233 30.9555893,26.1519181 26.9392513,30.5360743 C25.5817049,31.9611363 23.7333125,33.0988731 21.2434252,33.4429814 C17.880013,37.7971894 14.5797266,39.4735498 8.81104986,38.4229891 C3.82001503,37.2951857 0.610663959,33.7605514 0.466498223,28.68551 C0.401325074,26.201733 2.72879131,20.7963713 5.29238225,18.0982123 C4.44803168,16.2635117 3.42112806,14.7623929 2.21167137,13.5948561 C1.51779913,12.9515619 1.73703341,12.2725373 2.62233046,11.9508161 C6.79955398,10.4267173 8.71977333,7.08956359 10.7826229,3.87338893 C12.2227448,1.74320881 15.0159773,0.546909847 17.7930017,0.489830271 C19.714586,0.56395959 20.9742021,1.73045856 21.4351912,3.84951929 C23.6846885,1.51548354 26.0590726,0.703322711 28.527463,1.03794246 Z" id="Fill-1" stroke="#FFFFFF" stroke-width="0.5"></path>
            <path d="M10.6976744,8.68324142 C12.4828934,7.59783963 13.8112462,7.10926341 14.8673871,7.14464641 C17.0363941,7.26162035 18.0053183,9.19669883 19.6794721,9.21544051 C21.3289258,9.21770244 23.0059754,7.65551876 25.3253973,7.76134463 C28.7065815,7.94310661 29.2169361,10.8512984 31.1627907,12.1236323 C30.7129087,12.5359492 30.120107,12.769574 29.3787642,12.8182054 C28.5636618,12.8282225 27.6436268,12.4264073 27.1162376,11.1238606 C26.3646741,12.1565918 25.2637323,12.8459948 23.472892,12.8571429 C22.070439,12.8270915 20.9584247,12.3530563 20.4858868,10.9031611 C19.7970103,11.6106596 18.9193912,12.1477056 17.5193231,12.2144325 C15.5085669,12.2086161 14.5721787,11.3376127 14.2384722,9.98142591 C13.8715484,10.2095574 13.4499437,10.3381641 12.9736582,10.3286317 C11.7824334,10.2748301 10.9957787,9.7581414 10.6976744,8.68324142" id="Fill-6" fill="#FFFFFF"></path>
            <path d="M28.527463,1.03794246 C32.7173117,1.69324564 31.9232912,6.49430515 34.6068212,9.61574254 C35.8068943,11.1571876 37.1579576,12.0855832 38.5774356,12.7371799 C39.6556929,13.180918 39.7995174,13.7308093 38.5774356,14.8101322 C31.2212296,18.9827233 30.9555893,26.1519181 26.9392513,30.5360743 C25.5817049,31.9611363 23.7333125,33.0988731 21.2434252,33.4429814 C19.9013149,35.1804513 31.1627907,18.9646533 31.1627907,17.0598913 C31.1627907,15.5680355 34.3188226,14.5753877 35.1801758,14.010498 C35.3373452,13.9074237 33.4485693,14.2609407 30.9953613,11.9508161 C29.3756104,10.4255371 26.970903,7.81533787 24.6511628,7.74291992 C24.1289976,7.7266189 21.4850914,9.47421609 19.5,9.3425293 C16.8378478,9.16592772 15.0629363,7.03918466 14.4186047,7.14285714 C13.0211708,7.36770321 11.9895365,8.40608964 10.957024,9.04761905 C9.0089059,10.2580404 9.60149754,14.3304433 8.11328125,15.5511414 C6.16355042,17.1503933 4.97321624,18.434132 5.29238225,18.0982123 C4.44803168,16.2635117 3.42112806,14.7623929 2.21167137,13.5948561 C1.51779913,12.9515619 1.73703341,12.2725373 2.62233046,11.9508161 C6.79955398,10.4267173 8.71977333,7.08956359 10.7826229,3.87338893 C12.2227448,1.74320881 15.0159773,0.546909847 17.7930017,0.489830271 C19.714586,0.56395959 20.9742021,1.73045856 21.4351912,3.84951929 C23.6846885,1.51548354 26.0590726,0.703322711 28.527463,1.03794246 Z" id="Fill-1-Copy" stroke="#FFFFFF" stroke-width="0.5"></path>
            <path d="M16.5917564,12.1447964 C16.8297413,12.7795707 17.3149498,13.3006213 18.4313059,13.4966007 C13.7068528,16.6460296 10.056839,22.9784042 10.4677949,26.7867571 C11.5386413,21.6577751 15.6483714,15.1908933 20.1613584,14.1786501 C21.2963631,13.9905743 22.6512173,14.1786501 23.9785262,13.8964631 C25.1123333,13.6170571 26.0940423,12.8937335 26.9717291,12.0616625 C27.3657472,12.3273105 27.7672932,12.4272761 28.1797889,12.2851581 C28.2668733,12.3494113 28.3551552,12.4076635 28.4442926,12.4597686 C28.0697787,12.2198804 27.7305091,11.8441678 27.4796925,11.2853557 C26.7248476,12.2207586 25.6190991,12.8452875 23.8204399,12.8555329 C22.4118637,12.8281631 21.2949944,12.3988818 20.8203934,11.0852781 C20.1285093,11.7261996 19.2468874,12.212855 17.8408776,12.2733027 C17.3673031,12.2719855 16.9527543,12.227784 16.5917564,12.1447964 M6.04651163,12.7202939 C6.85080126,13.5160669 7.52129925,14.4138547 7.99624246,15.4606395 C8.04893788,15.5664596 8.18272952,15.5860721 8.32575997,15.4842038 C10.9268268,13.5523649 13.1956387,12.4638668 15.3936198,11.6000351 C15.522792,11.7083434 15.6731793,11.805089 15.8675364,11.8948093 C15.1515288,11.5466128 14.7433103,10.9749208 14.5455313,10.2502799 C14.1771766,10.4569438 13.7537312,10.5734484 13.2753662,10.564813 C12.0789405,10.5160743 11.2886802,10.0481533 10.9894454,9.07425703 L11.0383769,9.04761905 C11.0219523,9.04849722 11.00587,9.04952176 10.9894454,9.05069266 C9.38651209,9.89125264 7.75945521,10.9377447 6.04651163,12.7202939" id="Fill-4" fill="#FFFFFF"></path>
            <path d="M17.6904788,1.42914839 C16.847353,1.41408493 15.9488502,1.69099909 14.9277866,2.6112776 C14.5559465,2.99265048 14.2857138,3.61194146 14.4874321,3.7822852 C14.8735737,4.10692375 15.7045599,3.68064208 16.2890939,3.61813578 C17.0098252,3.65403467 17.7305564,4.27248097 18.491199,4.28571429 C19.2094357,4.27121395 19.954779,3.78693093 19.9993466,3.0921819 C20.0304441,2.44726896 18.9471854,1.42914839 17.6904788,1.42914839" id="Fill-8" fill="#FFFFFF"></path>
            <path d="M24.6511657,3.09163334 C24.6485963,2.41305802 26.3375914,1.47587409 27.7511399,1.42857143 C29.2895644,1.47571849 30.2061783,2.2985358 30.2325581,3.16040892 C30.23016,3.82451336 29.6366135,4.2693762 28.6792307,4.28571429 C27.8015014,4.28571429 27.5632263,3.44173526 26.9126377,3.44173526 C26.4199856,3.47721226 25.9204816,3.76258422 25.4759641,3.79183718 C25.0578264,3.82420216 24.6614436,3.5218697 24.6511657,3.09163334" id="Fill-10" fill="#FFFFFF"></path>
            <path d="M6.2088038,29.047619 C5.33900487,29.0261146 5.08821256,28.2232332 5.11870722,27.0650867 C5.78871353,22.0489559 10.651035,16.789059 13.8249336,15.7736372 C14.0312107,15.7301865 14.2352095,15.6652313 14.373487,15.7736372 C14.5047543,15.9216643 14.3265182,16.1682289 14.1344369,16.3180235 C11.4472261,18.8016387 8.86078796,22.4115855 7.66448583,26.8046768 C7.46907463,28.0273366 7.11768497,28.9942998 6.2088038,29.047619" id="Fill-12" fill="#FFFFFF"></path>
            <path d="M16.5632289,32.8257227 C15.9350494,32.6358383 15.0545756,31.8988467 15.4454467,31.0374128 C17.0149257,28.7993535 18.5263999,26.2247143 19.9449607,23.1082383 C21.8153947,19.3142104 24.1867149,16.9104232 26.4818708,15.8847253 C26.9104715,15.659997 27.196793,15.6758085 27.3306095,15.8258714 C27.5046238,16.0038972 27.4868169,16.2011017 27.1892118,16.4259764 C24.6394695,18.902233 22.4936451,22.0121207 21.8975534,24.0728862 C20.9354497,27.4773364 19.8883664,29.7992845 18.756656,31.6742648 C18.0773477,32.5913318 17.3557259,32.9751999 16.5632289,32.8257227" id="Fill-14" fill="#FFFFFF"></path>
        </g>
    </g>
</svg>