<?xml version="1.0" encoding="UTF-8"?>
<svg width="125px" height="125px" viewBox="0 0 125 125" version="1.1" xmlns="http://www.w3.org/2000/svg" xmlns:xlink="http://www.w3.org/1999/xlink">
    <!-- Generator: Sketch 55.2 (78181) - https://sketchapp.com -->
    <title>BigLogo</title>
    <desc>Created with Sketch.</desc>
    <g id="Home-Comncepts" stroke="none" stroke-width="1" fill="none" fill-rule="evenodd">
        <g id="PC-Med-1600-Content-1280-Copy-7" transform="translate(-160.000000, -300.000000)">
            <g id="BigLogo" transform="translate(160.000000, 300.000000)">
                <path d="M62.499622,0 C97.0113938,0 125,27.9870943 125,62.499622 C125,97.0121498 97.0113938,125 62.499622,125 C27.9878502,125 0,97.0121498 0,62.499622 C0,27.9870943 27.9878502,0 62.499622,0" id="Fill-1" fill="#FEFEFE"></path>
                <path d="M10,62.3057023 C10,33.3979735 33.272806,10 61.9733566,10 C90.727194,10 114,33.3979735 114,62.3057023 C114,64.0902231 113.948214,65.8724803 113.73957,67.6554921 C107.844253,90.8459631 86.9160647,108 61.9733566,108 C37.0816838,108 16.1564974,90.8459631 10.2604297,67.6554921 C10.0532868,65.8724803 10,64.0902231 10,62.3057023" id="Fill-3" fill="#F89C1C"></path>
                <path d="M77.9121563,68.1394406 L63.0252499,53.1498456 L62.2406178,52.411109 C56.3185671,53.7807706 50.7115752,56.2110848 45.6796788,59.3778579 L50.44777,64.1815437 C52.7014204,63.9712353 55.0070782,64.0752506 57.2094751,64.2870775 C58.0483757,67.0324746 58.6249786,69.830259 59.0448058,72.732818 L66.1185548,79.9660587 L77.9121563,68.1394406 Z M69.8909696,55.7881904 L80.0602846,65.9756182 L85.8232985,60.169741 C80.6866336,57.6361707 75.078888,55.8944835 69.2103521,55.1033596 L69.8909696,55.7881904 Z M46.2042743,64.2339309 L35.0958127,53.0427933 C32.0025079,52.6738046 28.9099568,52.4612186 25.713391,52.4612186 C19.8441014,52.4612186 14.1315874,53.0959398 8.68212497,54.4162511 C8.83890065,53.3601539 9.04919111,52.3040567 9.25948157,51.3011061 C18.2718222,46.6021949 28.3341076,43.6988767 39.0234958,43.0132866 L41.804003,45.8619398 L45.5741567,49.6125654 C53.5915747,45.7579245 62.5541692,43.5933429 72.039098,43.5933429 C71.5167636,42.9092713 70.9914143,42.1674978 70.4675725,41.4834262 C68.6857566,41.3778924 66.9054481,41.2708402 65.0731323,41.2708402 C58.8857689,41.2708402 52.9109572,42.1674978 47.3032116,43.9114627 L43.8971091,40.4797163 C41.539444,40.269408 39.1282642,40.1107277 36.6665844,40.1107277 C27.8615194,39.9520473 19.3187521,41.3239867 11.3525877,44.0162373 C11.7731686,42.9092713 12.1914883,41.9055614 12.6105618,40.848705 C18.9531934,36.2036995 25.9749351,32.562404 33.5227798,30.0797025 L31.9512543,28.4443083 C41.2274001,23.6413818 51.8112662,21 62.9739963,21 C69.6331942,21 76.0225571,21.8989353 82.1021372,23.6930099 C84.3022728,25.9084603 86.3999013,28.2863872 88.338493,30.7675703 C88.9671031,30.2915293 89.6484744,29.8686349 90.3826067,29.3948717 C98.7143298,31.8745363 106.472465,35.7815644 113.387931,40.848705 C113.807758,41.9055614 114.226831,42.9092713 114.645905,44.0162373 C108.251266,41.8516557 101.493329,40.5313444 94.5228414,40.1615965 C95.2547125,41.5350543 95.9888448,42.8561248 96.617455,44.2796922 C103.745472,45.6523907 110.506424,48.0287992 116.74278,51.3011061 C116.952316,52.3040567 117.161853,53.3601539 117.320136,54.4162511 C111.814898,53.0959398 106.157406,52.4612186 100.287363,52.4612186 L99.9723039,52.4612186 C100.444138,53.7807706 100.862458,55.1033596 101.281532,56.4752989 C107.099568,57.4782496 112.707313,59.1675496 117.947993,61.4353873 C118,62.0162028 118,62.5438718 118,63.1254465 L118,63.6546339 C115.274515,63.3372733 112.497023,63.1793522 109.667523,63.1793522 C104.216553,63.1793522 98.9238665,63.7594085 93.7887091,64.8671337 C92.1116616,63.7594085 90.3826067,62.6516833 88.6015445,61.6479734 L78.2234465,72.1520025 L67.7413338,82.7106966 L68.7370102,108.68188 C66.8519333,108.893707 64.9661027,109 62.9739963,109 C61.0881658,109 59.1480667,108.893707 57.3134897,108.68188 L57.7868317,97.7025693 L57.9436073,93.5351233 L36.3522793,71.7837731 L35.9324522,71.8361603 C32.0025079,72.0464687 28.1750707,72.6280434 24.5074242,73.5262195 C24.0883508,72.6796715 23.7212846,71.8361603 23.4069795,70.9379842 C26.0804572,69.5136576 28.9099568,68.2464928 31.8442247,67.2443014 L28.8579494,64.2339309 C27.9135267,64.0752506 26.9713651,63.9180888 26.0269424,63.812555 C24.978505,63.6546339 23.878814,63.5475817 22.8318841,63.4428071 C20.683002,63.2841268 18.5363811,63.1793522 16.3317231,63.1793522 C13.5029772,63.1793522 10.725485,63.3372733 8,63.6546339 L8,63.1254465 C8,62.5438718 8,62.0162028 8.05125359,61.4353873 C15.5990983,58.1645989 23.8268067,56.1579383 32.4735886,55.5786413 L41.6442124,64.8155057 C43.1644843,64.5505323 44.6840024,64.3417424 46.2042743,64.2339309 L46.2042743,64.2339309 Z M58.6249786,76.7438614 L56.1595302,74.2672338 C51.2354171,72.732818 45.9932301,71.8893069 40.5950213,71.7837731 L58.100383,89.4155091 L58.6249786,76.7438614 L58.6249786,76.7438614 Z" id="Fill-5" fill="#231F20"></path>
                <path d="M11.0961453,68.3662921 C16.977311,91.3865169 37.9797481,108.417978 62.9731919,108.417978 C88.0179865,108.417978 109.020424,91.3865169 114.900079,68.3662921 C115.949748,68.2097378 117.001682,68.1041199 118,68 C115.583496,96.0217228 91.9010057,118 62.9731919,118 C34.0952185,118 10.4142381,96.0217228 8,68 C8.99680774,68.1041199 10.0457213,68.2097378 11.0961453,68.3662921" id="Fill-7" fill="#00A9AC"></path>
            </g>
        </g>
    </g>
</svg>