<?xml version="1.0" encoding="UTF-8"?>
<svg width="170px" height="170px" viewBox="0 0 170 170" version="1.1" xmlns="http://www.w3.org/2000/svg" xmlns:xlink="http://www.w3.org/1999/xlink">
    <title>home_card_icon_07</title>
    <defs>
        <rect id="path-1" x="0.816987298" y="0.316987298" width="169" height="169" rx="20"></rect>
        <filter x="-8.2%" y="-9.8%" width="116.5%" height="119.7%" filterUnits="objectBoundingBox" id="filter-3">
            <feOffset dx="0" dy="0" in="SourceAlpha" result="shadowOffsetOuter1"></feOffset>
            <feGaussianBlur stdDeviation="2.5" in="shadowOffsetOuter1" result="shadowBlurOuter1"></feGaussianBlur>
            <feColorMatrix values="0 0 0 0 0   0 0 0 0 0   0 0 0 0 0  0 0 0 0.3 0" type="matrix" in="shadowBlurOuter1" result="shadowMatrixOuter1"></feColorMatrix>
            <feMerge>
                <feMergeNode in="shadowMatrixOuter1"></feMergeNode>
                <feMergeNode in="SourceGraphic"></feMergeNode>
            </feMerge>
        </filter>
    </defs>
    <g id="Page-1" stroke="none" stroke-width="1" fill="none" fill-rule="evenodd">
        <g id="PC-Med-1600---OBE-Help-Text-Web-Option-3" transform="translate(-574.000000, -2175.000000)">
            <g id="home_card_icon_07" transform="translate(574.000000, 2175.000000)">
                <mask id="mask-2" fill="white">
                    <use xlink:href="#path-1"></use>
                </mask>
                <use id="Rectangle" fill="#D8D8D8" xlink:href="#path-1"></use>
                <g id="Group" mask="url(#mask-2)">
                    <g transform="translate(0.816987, 0.316987)" id="device/workforce.dashboard">
                        <rect id="Background" fill="#01AAAD" x="0" y="0" width="169" height="169"></rect>
                        <g id="global.payments" filter="url(#filter-3)" transform="translate(20.800000, 31.200000)">
                            <path d="M109.752512,53.3 C109.752512,82.1227753 85.535311,105.491176 55.6584817,105.491176 C25.7848481,105.491176 1.56764706,82.1227753 1.56764706,53.3 C1.56764706,24.4772247 25.7848481,1.10882353 55.6584817,1.10882353 C85.535311,1.10882353 109.752512,24.4772247 109.752512,53.3" id="Fill-5" fill="#FFFFFF"></path>
                            <path d="M69.0294412,22.1778101 L59.5445306,25.2611194 L53.0508182,25.2611194 L49.8550936,31.427738 L43.4636444,31.427738 L43.4636444,37.5943566 L53.0508182,37.5943566 L53.0508182,34.5110473 L56.2465428,34.5110473 L56.2465428,37.5943566 L59.5445306,37.5943566 L72.2251658,46.8442845 L69.0294412,49.9275938 L65.8337166,49.9275938 L62.637992,46.8442845 L56.2465428,46.8442845 L56.2465428,43.7609752 L49.8550936,40.6776659 L43.4636444,40.6776659 L33.8764706,47.1279489 L33.8764706,59.1775216 L49.8550936,65.3441402 L43.4636444,77.6773774 L53.0508182,96.1772332 L72.2251658,80.7606867 L72.2251658,74.5940681 L85.0080642,65.3441402 L85.1582633,62.3101639 L78.7156825,62.3101639 L75.4208904,59.1775216 L75.4208904,49.9275938 L78.616615,49.9275938 L78.616615,56.0942123 L81.8123396,59.1775216 L85.0080642,59.1775216 L88.2037888,56.0942123 L85.0080642,56.0942123 C85.0080642,56.0942123 81.8123396,53.3408171 81.8123396,53.010903 L81.8123396,49.9275938 L85.0080642,49.9275938 L91.3995134,53.010903 L97.7909626,53.010903 L100.986687,59.1775216 L100.986687,62.2608309 L104.182412,62.2608309 L104.268696,57.336786 L110.123264,53.3809002 C110.078524,37.3785249 102.565375,23.0781364 90.7699557,13.5352941 L78.616615,25.2611194 L69.0294412,22.1778101 Z" id="Fill-7" fill="#01AAAD"></path>
                            <path d="M98.0471343,25.2832898 C96.890282,24.1671319 95.2924197,23.4764706 93.5283797,23.4764706 C89.997104,23.4764706 87.1369305,26.2391157 87.1369305,29.6430892 C87.1369305,31.3450759 87.8527728,32.8867306 89.0096251,34.0028885 L100.466298,45.0596357 L55.1796845,45.0596357 C51.6484088,45.0596357 48.7882353,47.8222808 48.7882353,51.2262543 C48.7882353,54.633311 51.6484088,57.3928729 55.1796845,57.3928729 L100.466298,57.3928729 L89.0096251,68.44962 C87.8527728,69.565778 87.1369305,71.1074326 87.1369305,72.8094193 C87.1369305,76.2164761 89.997104,78.9760379 93.5283797,78.9760379 C95.2956154,78.9760379 96.8934777,78.2853767 98.05033,77.1661354 L98.05033,77.1661354 L124.935961,51.2262543 L98.0471343,25.2832898 Z" id="Fill-13" fill="#FF9900"></path>
                        </g>
                    </g>
                </g>
            </g>
        </g>
    </g>
</svg>