<?xml version="1.0" encoding="UTF-8"?>
<svg width="82px" height="82px" viewBox="0 0 82 82" version="1.1" xmlns="http://www.w3.org/2000/svg" xmlns:xlink="http://www.w3.org/1999/xlink">
    <title>intro_icon2</title>
    <defs>
        <rect id="path-1" x="0" y="-9.09494702e-13" width="82" height="82" rx="20"></rect>
        <filter x="-27.7%" y="-20.3%" width="155.5%" height="140.6%" filterUnits="objectBoundingBox" id="filter-3">
            <feOffset dx="0" dy="0" in="SourceAlpha" result="shadowOffsetOuter1"></feOffset>
            <feGaussianBlur stdDeviation="2.5" in="shadowOffsetOuter1" result="shadowBlurOuter1"></feGaussianBlur>
            <feColorMatrix values="0 0 0 0 0   0 0 0 0 0   0 0 0 0 0  0 0 0 0.3 0" type="matrix" in="shadowBlurOuter1" result="shadowMatrixOuter1"></feColorMatrix>
            <feMerge>
                <feMergeNode in="shadowMatrixOuter1"></feMergeNode>
                <feMergeNode in="SourceGraphic"></feMergeNode>
            </feMerge>
        </filter>
    </defs>
    <g id="Page-1" stroke="none" stroke-width="1" fill="none" fill-rule="evenodd">
        <g id="PC-Med-1600---OBE-Help-Text-Web-Option-1" transform="translate(-597.000000, -900.000000)">
            <g id="Slide-2" transform="translate(159.000000, 900.000000)">
                <g id="intro_icon2" transform="translate(438.000000, 0.000000)">
                    <mask id="mask-2" fill="white">
                        <use xlink:href="#path-1"></use>
                    </mask>
                    <use id="Rectangle" fill="#D8D8D8" xlink:href="#path-1"></use>
                    <g id="Group" mask="url(#mask-2)">
                        <g id="FNB-Launcher-Icons/reserved/security.tips">
                            <rect id="Background" fill="#01AAAD" x="0" y="0" width="82" height="82"></rect>
                            <g id="security.tips" filter="url(#filter-3)" transform="translate(22.707692, 15.138462)">
                                <path d="M1.20588235,6.02941176 C1.20588235,5.70851811 6.92341919,3.85139698 18.3584929,0.458048373 C30.2371447,3.8300773 36.1764706,5.68719843 36.1764706,6.02941176 C36.1764706,20.7355977 37.3823529,20.9225394 37.3823529,30.6912427 C37.3823529,36.3817338 31.0410663,43.0336725 18.3584929,50.6470588 C6.11949762,43.1218026 0,36.4698639 0,30.6912427 C0,20.9705531 1.20588235,20.664003 1.20588235,6.02941176 Z" id="Rectangle-7" fill="#FFFFFF"></path>
                                <path d="M4.19271798,20.3628337 C4.16622946,20.6398641 4.05863881,21.7425353 4.03203833,22.0213482 C3.77681916,24.6964273 3.67330317,26.5843932 3.67330317,29.4709698 C3.67330317,33.8770745 8.53590497,39.3114138 18.4095056,45.5459923 C28.6562956,39.2345134 33.7090498,33.7899516 33.7090498,29.4709698 C33.7090498,26.5639375 33.605355,24.6790368 33.348793,22.0051131 C33.3229339,21.7356066 33.2164723,20.64995 33.1896899,20.3711869 C32.8377112,16.7076487 32.674402,13.5999416 32.6598392,8.53516522 C32.6121123,8.51677437 32.5615971,8.49760101 32.5083672,8.47768857 C31.8863846,8.24501516 30.9347405,7.92594897 29.6605985,7.52347728 C27.1464507,6.72931676 23.3948063,5.61592395 18.4092934,4.18451851 C13.6159587,5.62311183 10.0084344,6.73976122 7.59020752,7.53325351 C6.36366438,7.93571886 5.44757483,8.25362858 4.8488436,8.48403691 C4.80478442,8.5009921 4.7626578,8.51739527 4.72250905,8.53321947 C4.70791625,13.573924 4.54461413,16.6825239 4.19271798,20.3628337 Z M3.46204934,7.77186573 C3.46204934,7.48952235 8.44183949,5.8555048 18.4014198,2.86981308 C28.7473423,5.83674634 33.9203036,7.47076389 33.9203036,7.77186573 C33.9203036,20.7113372 34.9705882,20.8758208 34.9705882,29.4709698 C34.9705882,34.4778388 29.4475321,40.3306528 18.4014198,47.0294118 C7.74164973,40.4081955 2.41176471,34.5553815 2.41176471,29.4709698 C2.41176471,20.9180665 3.46204934,20.6483435 3.46204934,7.77186573 Z" id="Rectangle-7" fill="#01AAAD" fill-rule="nonzero"></path>
                                <path d="M4.68503886,8.46778667 C7.96957708,7.30806185 12.541596,5.86149013 18.4010957,4.1280715 L18.4273183,45.6233234 C8.55613949,39.388588 3.62055009,34.00928 3.62055009,29.4853994 C3.62055009,20.6768186 4.68503886,20.124373 4.68503886,8.46778667 Z" id="Rectangle-8" fill="#FF9900"></path>
                                <path d="M16.8984532,30.6710425 C17.0226237,31.138469 17.6201981,31.3721823 18.6911765,31.3721823 C19.7621548,31.3721823 20.3681103,31.138469 20.5090428,30.6710425 C20.1329301,26.1743392 20.1329301,23.7866943 20.5090428,23.5081078 C21.2377779,22.9683341 21.7058824,22.085177 21.7058824,21.1029412 C21.7058824,19.4379651 20.3561526,18.0882353 18.6911765,18.0882353 C17.0262004,18.0882353 15.6764706,19.4379651 15.6764706,21.1029412 C15.6764706,22.0964534 16.1570634,22.9777171 16.8984532,23.5269367 C17.2324981,23.7743962 17.2324981,26.1557648 16.8984532,30.6710425 Z" id="Oval-3" fill="#01AAAD"></path>
                            </g>
                        </g>
                    </g>
                </g>
            </g>
        </g>
    </g>
</svg>