<?xml version="1.0" encoding="UTF-8"?>
<svg width="408px" height="125px" viewBox="0 0 408 125" version="1.1" xmlns="http://www.w3.org/2000/svg" xmlns:xlink="http://www.w3.org/1999/xlink">
    <title>Group 3</title>
    <g id="Page-1" stroke="none" stroke-width="1" fill="none" fill-rule="evenodd">
        <g id="PC-Med-1600---OBE-Help-Text-Web-Option-1" transform="translate(-596.000000, -25.000000)">
            <g id="Header" transform="translate(50.000000, 0.000000)">
                <g id="Group-3" transform="translate(546.000000, 25.000000)">
                    <g id="text/med/heading1/paper/left/default" transform="translate(49.500000, 0.000000)">
                        <rect id="padding" x="0" y="25" width="308" height="25"></rect>
                        <text id="Heading" font-family="Roboto-Bold, Roboto" font-size="20" font-weight="bold" line-spacing="25" fill="#FFFFFF">
                            <tspan x="37.9160156" y="25">Online Banking Enterprise</tspan>
                        </text>
                    </g>
                    <g id="text/med/heading1/paper/left/default-copy" transform="translate(49.500000, 25.000000)">
                        <rect id="padding" x="0" y="50" width="308" height="25"></rect>
                        <text id="Heading" font-family="FNBSans-Regular, FNB Sans" font-size="50" font-weight="normal" line-spacing="50" letter-spacing="10" fill="#FFFFFF">
                            <tspan x="82.875" y="61.5">Help</tspan>
                            <tspan x="154" y="118"></tspan>
                        </text>
                    </g>
                    <g id="Logo" transform="translate(0.000000, 14.000000)" fill="#FFFFFF">
                        <rect id="Rectangle" fill-opacity="0.8" x="20" y="0" width="10" height="10"></rect>
                        <rect id="Rectangle-Copy-4" fill-opacity="0.6" x="0" y="0" width="10" height="10"></rect>
                        <rect id="Rectangle-Copy-5" fill-opacity="0.4" x="20" y="20" width="10" height="10"></rect>
                        <rect id="Rectangle-Copy-2" x="40" y="0" width="10" height="10"></rect>
                        <rect id="Rectangle-Copy-3" fill-opacity="0.8" x="40" y="20" width="10" height="10"></rect>
                        <rect id="Rectangle-Copy-9" fill-opacity="0.6" x="40" y="40" width="10" height="10"></rect>
                    </g>
                    <g id="Logo-Copy" transform="translate(383.000000, 39.000000) scale(-1, 1) translate(-383.000000, -39.000000) translate(358.000000, 14.000000)" fill="#FFFFFF">
                        <rect id="Rectangle" fill-opacity="0.8" x="20" y="0" width="10" height="10"></rect>
                        <rect id="Rectangle-Copy-4" fill-opacity="0.6" x="0" y="0" width="10" height="10"></rect>
                        <rect id="Rectangle-Copy-5" fill-opacity="0.4" x="20" y="20" width="10" height="10"></rect>
                        <rect id="Rectangle-Copy-2" x="40" y="0" width="10" height="10"></rect>
                        <rect id="Rectangle-Copy-3" fill-opacity="0.8" x="40" y="20" width="10" height="10"></rect>
                        <rect id="Rectangle-Copy-9" fill-opacity="0.6" x="40" y="40" width="10" height="10"></rect>
                    </g>
                </g>
            </g>
        </g>
    </g>
</svg>