<?xml version="1.0" encoding="UTF-8"?>
<svg width="153px" height="199px" viewBox="0 0 153 199" version="1.1" xmlns="http://www.w3.org/2000/svg" xmlns:xlink="http://www.w3.org/1999/xlink">
    <title>security.tips</title>
    <defs>
        <filter x="-7.7%" y="-5.7%" width="115.3%" height="111.5%" filterUnits="objectBoundingBox" id="filter-1">
            <feOffset dx="0" dy="0" in="SourceAlpha" result="shadowOffsetOuter1"></feOffset>
            <feGaussianBlur stdDeviation="2.5" in="shadowOffsetOuter1" result="shadowBlurOuter1"></feGaussianBlur>
            <feColorMatrix values="0 0 0 0 0   0 0 0 0 0   0 0 0 0 0  0 0 0 0.3 0" type="matrix" in="shadowBlurOuter1" result="shadowMatrixOuter1"></feColorMatrix>
            <feMerge>
                <feMergeNode in="shadowMatrixOuter1"></feMergeNode>
                <feMergeNode in="SourceGraphic"></feMergeNode>
            </feMerge>
        </filter>
        <linearGradient x1="76.7461532%" y1="100%" x2="14.0901319%" y2="-29.3080357%" id="linearGradient-2">
            <stop stop-color="#D25B73" offset="0%"></stop>
            <stop stop-color="#FF9900" offset="100%"></stop>
        </linearGradient>
        <linearGradient x1="56.1835944%" y1="100%" x2="41.6977945%" y2="-29.3080357%" id="linearGradient-3">
            <stop stop-color="#D25B73" offset="0%"></stop>
            <stop stop-color="#FF9900" offset="100%"></stop>
        </linearGradient>
    </defs>
    <g id="Page-1" stroke="none" stroke-width="1" fill="none" fill-rule="evenodd">
        <g id="PC-Med-1600---OBE-Help-Text-Web-Option-2" transform="translate(-723.000000, -882.000000)">
            <g id="Group-6" transform="translate(594.000000, 777.000000)">
                <g id="security.tips" filter="url(#filter-1)" transform="translate(137.000000, 113.000000)">
                    <path d="M4.67940447,21.0649282 C4.67940447,19.9012741 25.4802623,13.1668109 67.0819781,0.861538462 C110.297467,13.0894995 131.905211,19.8239628 131.905211,21.0649282 C131.905211,74.3938504 136.292308,75.0717556 136.292308,110.495925 C136.292308,131.131306 113.222198,155.253178 67.0819781,182.861538 C22.5555311,155.572763 0.292307692,131.450892 0.292307692,110.495925 C0.292307692,75.2458675 4.67940447,74.1342273 4.67940447,21.0649282 Z" id="Rectangle-7" fill="#FFFFFF"></path>
                    <path d="M15.8015552,73.2426238 C15.7047417,74.2463665 15.3115061,78.2415883 15.2142834,79.2517892 C14.2814769,88.9441926 13.9031339,95.7847112 13.9031339,106.243417 C13.9031339,122.207709 31.6755701,141.897524 67.7628223,164.486782 C105.214053,141.618896 123.681481,121.892044 123.681481,106.243417 C123.681481,95.7105953 123.302485,88.8811832 122.364771,79.1929659 C122.270258,78.2164839 121.881149,74.2829099 121.783261,73.2728894 C120.496806,59.9990796 119.899923,48.7391691 119.846697,30.3883632 C119.672259,30.3217291 119.48763,30.2522598 119.293079,30.1801126 C117.01978,29.3370853 113.541594,28.1810379 108.884703,26.7227939 C99.6956858,23.8453745 85.9837134,19.811306 67.7620468,14.6250072 C50.2427766,19.8373492 37.057552,23.8832171 28.2191185,26.7582153 C23.7361976,28.2164364 20.3879606,29.3682936 18.1996439,30.203114 C18.038611,30.2645464 17.8846414,30.3239787 17.7379008,30.3813133 C17.6845653,48.6449016 17.0877086,59.9080469 15.8015552,73.2426238 Z M13.1310174,27.6227602 C13.1310174,26.5997676 31.331768,20.6793604 67.7332693,9.86153846 C105.546822,20.6113943 124.453598,26.5318016 124.453598,27.6227602 C124.453598,74.5053292 128.292308,75.1012898 128.292308,106.243417 C128.292308,124.384411 108.105962,145.590452 67.7332693,169.861538 C28.7726282,145.871406 9.29230769,124.665366 9.29230769,106.243417 C9.29230769,75.2543552 13.1310174,74.2770891 13.1310174,27.6227602 Z" id="Rectangle-7" fill="url(#linearGradient-2)" fill-rule="nonzero"></path>
                    <path d="M17.1744779,29.6536342 C29.1531258,25.4334297 45.8271913,20.1693978 67.1966743,13.8615385 L67.2923077,164.861538 C31.2923077,142.17352 13.2923077,122.598376 13.2923077,106.136108 C13.2923077,74.0819418 17.1744779,72.0716085 17.1744779,29.6536342 Z" id="Rectangle-8" fill="url(#linearGradient-3)"></path>
                    <path d="M61.751054,110.328051 C62.2041248,112.017043 64.3845427,112.861538 68.2923077,112.861538 C72.2000727,112.861538 74.4110711,112.017043 74.925303,110.328051 C73.5529502,94.0797362 73.5529502,85.4522586 74.925303,84.4456186 C77.5842974,82.4952091 79.2923077,79.3040234 79.2923077,75.7548281 C79.2923077,69.7386304 74.3674399,64.8615385 68.2923077,64.8615385 C62.2171754,64.8615385 57.2923077,69.7386304 57.2923077,75.7548281 C57.2923077,79.3447691 59.0458852,82.5291132 61.751054,84.5136544 C62.9699106,85.4078208 62.9699106,94.0126198 61.751054,110.328051 Z" id="Oval-3" fill="#000000"></path>
                </g>
            </g>
        </g>
    </g>
</svg>