<?xml version="1.0" encoding="UTF-8"?>
<svg width="65px" height="65px" viewBox="0 0 65 65" version="1.1" xmlns="http://www.w3.org/2000/svg" xmlns:xlink="http://www.w3.org/1999/xlink">
    <!-- Generator: Sketch 53 (72520) - https://sketchapp.com -->
    <title>geopayments/pay.someone</title>
    <desc>Created with Sketch.</desc>
    <defs>
        <filter x="-27.6%" y="-24.4%" width="155.3%" height="148.8%" filterUnits="objectBoundingBox" id="filter-1">
            <feOffset dx="0" dy="0" in="SourceAlpha" result="shadowOffsetOuter1"></feOffset>
            <feGaussianBlur stdDeviation="2.5" in="shadowOffsetOuter1" result="shadowBlurOuter1"></feGaussianBlur>
            <feColorMatrix values="0 0 0 0 0   0 0 0 0 0   0 0 0 0 0  0 0 0 0.3 0" type="matrix" in="shadowBlurOuter1" result="shadowMatrixOuter1"></feColorMatrix>
            <feMerge>
                <feMergeNode in="shadowMatrixOuter1"></feMergeNode>
                <feMergeNode in="SourceGraphic"></feMergeNode>
            </feMerge>
        </filter>
    </defs>
    <g id="geopayments/pay.someone" stroke="none" stroke-width="1" fill="none" fill-rule="evenodd">
        <rect id="Background" fill="#01AAAD" x="0" y="0" width="65" height="65"></rect>
        <g id="pay.someone" filter="url(#filter-1)" transform="translate(14.000000, 11.000000)">
            <path d="M23.2236997,5.31015276 C23.2236997,8.10938771 20.9362971,10.3789349 18.1150396,10.3789349 C15.293782,10.3789349 13.0063795,8.10938771 13.0063795,5.31015276 C13.0063795,2.5109178 15.293782,0.24137058 18.1150396,0.24137058 C20.9362971,0.24137058 23.2236997,2.5109178 23.2236997,5.31015276" id="Fill-23" fill="#FF9900"></path>
            <path d="M2.83567571,25.6881777 C2.83439855,25.624818 2.84333871,25.5627254 2.84333871,25.4980984 C2.84461587,25.0761223 2.86249618,24.6541462 2.89953397,24.2334373 C2.91230562,24.0813738 2.93657175,23.9331119 2.95445206,23.7823156 C2.99148985,23.4731199 3.03491346,23.1651914 3.09110872,22.8572629 C3.12048352,22.6925275 3.15496697,22.5290592 3.18945043,22.365591 C3.25841734,22.0462577 3.3401559,21.7294589 3.42955746,21.41266 C3.46276375,21.2986124 3.49213854,21.1807632 3.52789916,21.0667156 C3.80121248,20.1860147 4.16265018,19.3268561 4.60199496,18.4981102 C4.63520125,18.4360176 4.6696847,18.3751923 4.70416816,18.3156341 C4.89702008,17.9608193 5.10647514,17.6148749 5.33125619,17.2739993 C5.3708483,17.2131739 5.41044042,17.1523486 5.4513097,17.0915232 C5.69269389,16.7354412 5.95068123,16.3894968 6.22527171,16.0498884 C6.24698352,16.0245445 6.26486383,15.9979334 6.28529847,15.9725895 C6.58798658,15.6076372 6.90216918,15.2490208 7.24317224,14.9056109 C7.3581171,14.7902961 7.50243674,14.6623093 7.6646367,14.5267194 C8.62761914,13.6270105 9.70043777,12.8413493 10.8741524,12.2102859 C11.1666232,12.0050003 11.436105,11.8136537 11.6404515,11.6577887 C13.3748416,9.91412761 13.3556841,7.10602228 11.598305,5.38517073 C10.7183383,4.52347776 9.56888977,4.09770006 8.42199557,4.10783762 L7.78979888,4.11163921 C7.7744729,1.85983273 9.73747555,0.0502774918 12.0644702,0.310052578 C13.9993753,0.524208625 15.3493387,2.25646493 15.4566206,4.18513655 C15.5319733,5.52709663 16.6558785,6.58647211 18.0237223,6.57760174 L18.1986939,6.57633454 C19.6022983,6.56746417 20.5818838,5.42572099 20.5691122,4.03307309 C20.552509,1.93079568 22.2575244,0.212478521 24.375064,0.199806566 C26.4913265,0.184600219 28.2180536,1.87503908 28.2321024,3.97478209 L27.5999057,3.97985087 C26.4542887,3.98491966 25.3099488,4.4259037 24.4414766,5.29900143 C22.7083636,7.0439297 22.7275211,9.85076783 24.4849002,11.5716194 C24.6879694,11.7224156 24.9548969,11.9074262 25.2460905,12.1051087 C26.5424131,12.7767223 27.7276222,13.6295449 28.7736204,14.6255606 C28.8221526,14.6699125 28.8834566,14.7193331 28.925603,14.7598834 C29.2755462,15.1020262 29.6025005,15.4581081 29.9115744,15.8243276 C29.9537209,15.8724811 29.9894815,15.9269705 30.0303508,15.9763911 C30.2921696,16.2944572 30.5437711,16.617592 30.774938,16.9508645 C30.8643395,17.0801184 30.9422466,17.2169755 31.0290938,17.3487639 C31.1976796,17.6072718 31.3662654,17.8670468 31.5169709,18.1331579 C31.626807,18.3257716 31.7213173,18.5259885 31.8222133,18.723671 C31.9294952,18.9340255 32.0406085,19.1443799 32.1376731,19.3598032 C32.2475093,19.6031047 32.3432966,19.8514751 32.4416383,20.1011126 C32.5093281,20.2747184 32.5770178,20.4483242 32.6383218,20.6231971 C32.7353863,20.9032474 32.8209564,21.1870992 32.9026949,21.4747526 C32.9435642,21.6230144 32.9844335,21.7738107 33.0214713,21.9233398 C33.0981012,22.2287339 33.1657909,22.5366624 33.2232633,22.8496597 C33.2475295,22.9852496 33.2679641,23.1208396 33.2883988,23.2564295 C33.3382082,23.5795644 33.3854633,23.9039664 33.4148381,24.2334373 C33.4161153,24.2562468 33.4212239,24.2777891 33.4225011,24.2993314 C33.4212239,24.2993314 33.4199468,24.3005986 33.4173924,24.3005986 C33.4505987,24.692162 33.483805,25.0837255 33.4863593,25.4828921 C33.5285058,31.7225629 29.7736406,37.1030752 24.3725097,39.4828684 L12.1385458,39.5652361 C6.9634731,37.3666519 3.25203152,32.4233221 2.87399067,26.5676114 C2.87143634,26.5270612 2.87143634,26.4877781 2.86888201,26.4484951 C2.85483319,26.195056 2.83695288,25.9441512 2.83567571,25.6881777 Z" id="Fill-25" fill="#FFFFFF"></path>
            <path d="M25.7849265,28.7532703 C25.7849265,30.5032674 24.3557788,31.9212592 22.5920139,31.9212592 L21.9713117,31.9212592 L16.8358311,31.9212592 C16.1295588,31.9212592 15.5612204,32.477558 15.5612204,33.1783172 L15.5612204,33.1833859 C15.5612204,33.8828779 16.1295588,34.4556503 16.8358311,34.4556503 L22.9381256,34.4556503 C23.954749,34.4556503 24.9305031,34.0438117 25.6482698,33.3316478 L33.2001467,27.2833235 C34.21677,26.4685168 35.686787,26.5470829 36.6101773,27.4632653 L36.8209095,27.6710853 C37.0699567,27.9194557 37.0699567,28.3198894 36.8221867,28.5682598 L27.3021985,38.0278745 C26.3379389,38.9858743 25.0288448,39.5244324 23.6648325,39.5244324 L14.590575,39.5244324 C13.5739516,39.5244324 12.5994747,39.9248662 11.8817079,40.6382973 L10.4500059,42.0588235 L0.235239992,42.0588235 L0.235239992,41.0780142 C0.235239992,40.0680593 0.640101307,39.0999219 1.35914522,38.3852236 L9.48319199,30.3359976 C10.914894,28.9167385 12.8561848,28.1196725 14.8792143,28.1196725 L15.5612204,28.1196725 L25.146344,28.1196725 C25.4988415,28.1196725 25.7849265,28.4035243 25.7849265,28.7532703" id="Fill-27" fill="#FF9900"></path>
            <polygon id="Fill-29" fill="#01AAAD" points="24.5008647 9.11173939 11.7292144 9.11173939 11.7292144 10.3789349 18.1150396 10.3789349 21.9465347 20.5164993 23.2236997 20.5164993 19.3922046 10.3789349 24.5008647 10.3789349"></polygon>
            <polygon id="Fill-31" fill="#01AAAD" points="18.1150396 14.1805216 16.8378746 14.1805216 14.2835445 20.5164993 15.5607095 20.5164993"></polygon>
        </g>
    </g>
</svg>